%TF.GenerationSoftware,KiCad,Pcbnew,9.0.4-1.fc42*%
%TF.CreationDate,2025-09-30T21:03:08+03:00*%
%TF.ProjectId,ea01,65613031-2e6b-4696-9361-645f70636258,rev?*%
%TF.SameCoordinates,Original*%
%TF.FileFunction,Profile,NP*%
%FSLAX46Y46*%
G04 Gerber Fmt 4.6, Leading zero omitted, Abs format (unit mm)*
G04 Created by KiCad (PCBNEW 9.0.4-1.fc42) date 2025-09-30 21:03:08*
%MOMM*%
%LPD*%
G01*
G04 APERTURE LIST*
%TA.AperFunction,Profile*%
%ADD10C,0.050000*%
%TD*%
G04 APERTURE END LIST*
D10*
X77750000Y-71250000D02*
X77750000Y-79250000D01*
X120750000Y-73750000D02*
X120750000Y-74750000D01*
X86500000Y-69750000D02*
X86500000Y-54750000D01*
X84000000Y-77250000D02*
X80000000Y-77250000D01*
X84500000Y-69750000D02*
X84500000Y-69750000D01*
X86250000Y-69750000D02*
X86500000Y-69750000D01*
X120750000Y-74750000D02*
X107500000Y-74750000D01*
X84500000Y-69750000D02*
X84500000Y-68250000D01*
X86250000Y-54750000D02*
X84500000Y-54750000D01*
X107500000Y-74750000D02*
X107500000Y-91500000D01*
X79750000Y-71250000D02*
X77750000Y-71250000D01*
X65500000Y-49000000D02*
X165500000Y-49000000D01*
X107500000Y-73750000D02*
X106500000Y-73750000D01*
X106500000Y-73750000D02*
X106500000Y-91500000D01*
X84500000Y-69750000D02*
X86250000Y-69750000D01*
X82000000Y-79250000D02*
X82000000Y-90750000D01*
X65500000Y-94000000D02*
X65500000Y-49000000D01*
X106500000Y-91500000D02*
X107500000Y-91500000D01*
X165500000Y-49000000D02*
X165500000Y-94000000D01*
X84000000Y-90750000D02*
X84000000Y-77250000D01*
X79750000Y-77250000D02*
X79750000Y-71250000D01*
X84500000Y-68250000D02*
X84500000Y-54750000D01*
X107500000Y-73750000D02*
X120750000Y-73750000D01*
X77750000Y-79250000D02*
X82000000Y-79250000D01*
X79750000Y-77250000D02*
X80000000Y-77250000D01*
X165500000Y-94000000D02*
X65500000Y-94000000D01*
X82000000Y-90750000D02*
X84000000Y-90750000D01*
X86250000Y-54750000D02*
X86500000Y-54750000D01*
M02*
