%TF.GenerationSoftware,KiCad,Pcbnew,9.0.4-1.fc42*%
%TF.CreationDate,2025-09-30T21:03:08+03:00*%
%TF.ProjectId,ea01,65613031-2e6b-4696-9361-645f70636258,rev?*%
%TF.SameCoordinates,Original*%
%TF.FileFunction,Legend,Top*%
%TF.FilePolarity,Positive*%
%FSLAX46Y46*%
G04 Gerber Fmt 4.6, Leading zero omitted, Abs format (unit mm)*
G04 Created by KiCad (PCBNEW 9.0.4-1.fc42) date 2025-09-30 21:03:08*
%MOMM*%
%LPD*%
G01*
G04 APERTURE LIST*
%ADD10C,0.100000*%
%ADD11C,0.200000*%
%ADD12C,0.125000*%
%ADD13C,0.120000*%
G04 APERTURE END LIST*
D10*
X153700000Y-74300000D02*
X153700000Y-76900000D01*
X165200000Y-92500000D02*
X165000000Y-92500000D01*
X80500000Y-49300000D02*
X65900000Y-49300000D01*
X165000000Y-50500000D02*
X150500000Y-50500000D01*
X165000000Y-50500000D02*
X165200000Y-50500000D01*
X80500000Y-93700000D02*
X65900000Y-93700000D01*
X165200000Y-93700000D02*
X165200000Y-92500000D01*
X165000000Y-92500000D02*
X150500000Y-92500000D01*
X150500000Y-49300000D02*
X150500000Y-49500000D01*
X158000000Y-74300000D02*
X157600000Y-74300000D01*
X65900000Y-49300000D02*
X65900000Y-50500000D01*
X150500000Y-93700000D02*
X165200000Y-93700000D01*
X150500000Y-92540000D02*
X150500000Y-93500000D01*
X150500000Y-93500000D02*
X150500000Y-93700000D01*
X65900000Y-93700000D02*
X65900000Y-92500000D01*
X80500000Y-50500000D02*
X80500000Y-49300000D01*
X153700000Y-74300000D02*
X154100000Y-74300000D01*
X150500000Y-50500000D02*
X150500000Y-49500000D01*
X158000000Y-71800000D02*
X157600000Y-71800000D01*
X65900000Y-50500000D02*
X80500000Y-50500000D01*
X165200000Y-49300000D02*
X150500000Y-49300000D01*
X158000000Y-74300000D02*
X158000000Y-71800000D01*
X165200000Y-50500000D02*
X165200000Y-49300000D01*
X66000000Y-92500000D02*
X80500000Y-92500000D01*
X66000000Y-92500000D02*
X65900000Y-92500000D01*
X80500000Y-92500000D02*
X80500000Y-93700000D01*
X153700000Y-76900000D02*
X154100000Y-76900000D01*
X153608533Y-64503884D02*
X153608533Y-65265789D01*
X153227580Y-64884836D02*
X153989485Y-64884836D01*
X153608533Y-67265789D02*
X153608533Y-68027694D01*
D11*
G36*
X92525175Y-84998143D02*
G01*
X92535107Y-85008075D01*
X92555387Y-85048634D01*
X92555387Y-85115707D01*
X92535107Y-85156266D01*
X92519958Y-85171415D01*
X92479399Y-85191695D01*
X92298244Y-85191695D01*
X92298244Y-84972647D01*
X92448683Y-84972647D01*
X92525175Y-84998143D01*
G37*
G36*
X92481864Y-84611975D02*
G01*
X92497010Y-84627120D01*
X92517291Y-84667682D01*
X92517291Y-84696659D01*
X92497010Y-84737221D01*
X92481864Y-84752366D01*
X92441303Y-84772647D01*
X92298244Y-84772647D01*
X92298244Y-84591695D01*
X92441303Y-84591695D01*
X92481864Y-84611975D01*
G37*
G36*
X90726168Y-84963123D02*
G01*
X90622701Y-84963123D01*
X90674434Y-84807922D01*
X90726168Y-84963123D01*
G37*
G36*
X93129484Y-83666877D02*
G01*
X93144630Y-83682022D01*
X93164911Y-83722584D01*
X93164911Y-83827752D01*
X93144630Y-83868312D01*
X93129483Y-83883460D01*
X93088923Y-83903740D01*
X92983756Y-83903740D01*
X92943195Y-83883459D01*
X92928049Y-83868312D01*
X92907768Y-83827752D01*
X92907768Y-83722584D01*
X92928048Y-83682024D01*
X92943194Y-83666877D01*
X92983756Y-83646597D01*
X93088923Y-83646597D01*
X93129484Y-83666877D01*
G37*
G36*
X93129484Y-83324020D02*
G01*
X93144630Y-83339165D01*
X93162631Y-83375168D01*
X93144630Y-83411169D01*
X93129483Y-83426317D01*
X93088923Y-83446597D01*
X92983756Y-83446597D01*
X92943195Y-83426316D01*
X92928049Y-83411169D01*
X92910047Y-83375168D01*
X92928048Y-83339167D01*
X92943194Y-83324020D01*
X92983756Y-83303740D01*
X93088923Y-83303740D01*
X93129484Y-83324020D01*
G37*
G36*
X90843769Y-83324020D02*
G01*
X90858916Y-83339166D01*
X90879197Y-83379728D01*
X90879197Y-83446798D01*
X90858916Y-83487360D01*
X90843769Y-83502506D01*
X90803209Y-83522787D01*
X90622054Y-83522787D01*
X90622054Y-83303740D01*
X90803209Y-83303740D01*
X90843769Y-83324020D01*
G37*
G36*
X94645863Y-85491695D02*
G01*
X90208553Y-85491695D01*
X90208553Y-85279188D01*
X90308553Y-85279188D01*
X90311319Y-85318108D01*
X90328769Y-85353006D01*
X90358245Y-85378572D01*
X90395261Y-85390910D01*
X90434181Y-85388144D01*
X90469079Y-85370694D01*
X90494645Y-85341218D01*
X90502636Y-85323318D01*
X90556034Y-85163123D01*
X90792835Y-85163123D01*
X90846233Y-85323318D01*
X90854224Y-85341218D01*
X90879789Y-85370695D01*
X90914688Y-85388144D01*
X90953608Y-85390910D01*
X90990624Y-85378572D01*
X91020100Y-85353007D01*
X91037550Y-85318108D01*
X91040316Y-85279188D01*
X91035969Y-85260072D01*
X90938420Y-84967424D01*
X91109689Y-84967424D01*
X91109689Y-85006442D01*
X91124621Y-85042490D01*
X91152211Y-85070080D01*
X91188259Y-85085012D01*
X91207768Y-85086933D01*
X91817292Y-85086933D01*
X91836801Y-85085012D01*
X91872849Y-85070080D01*
X91900439Y-85042490D01*
X91915371Y-85006442D01*
X91915371Y-84967424D01*
X91900439Y-84931376D01*
X91872849Y-84903786D01*
X91836801Y-84888854D01*
X91817292Y-84886933D01*
X91207768Y-84886933D01*
X91188259Y-84888854D01*
X91152211Y-84903786D01*
X91124621Y-84931376D01*
X91109689Y-84967424D01*
X90938420Y-84967424D01*
X90779844Y-84491695D01*
X92098244Y-84491695D01*
X92098244Y-85291695D01*
X92100165Y-85311204D01*
X92115097Y-85347252D01*
X92142687Y-85374842D01*
X92178735Y-85389774D01*
X92198244Y-85391695D01*
X92503006Y-85391695D01*
X92522515Y-85389774D01*
X92525835Y-85388398D01*
X92529419Y-85388144D01*
X92547727Y-85381138D01*
X92623917Y-85343043D01*
X92632313Y-85337757D01*
X92634754Y-85336747D01*
X92637499Y-85334493D01*
X92640508Y-85332600D01*
X92642239Y-85330603D01*
X92649908Y-85324310D01*
X92688002Y-85286214D01*
X92694294Y-85278546D01*
X92696290Y-85276816D01*
X92698182Y-85273809D01*
X92700439Y-85271060D01*
X92701450Y-85268617D01*
X92706733Y-85260226D01*
X92744829Y-85184037D01*
X92751836Y-85165728D01*
X92752090Y-85162142D01*
X92753466Y-85158823D01*
X92755387Y-85139314D01*
X92755387Y-85025028D01*
X92753466Y-85005519D01*
X92752090Y-85002199D01*
X92751836Y-84998614D01*
X92744829Y-84980305D01*
X92738388Y-84967424D01*
X92900165Y-84967424D01*
X92900165Y-85006442D01*
X92915097Y-85042490D01*
X92942687Y-85070080D01*
X92978735Y-85085012D01*
X92998244Y-85086933D01*
X93607768Y-85086933D01*
X93627277Y-85085012D01*
X93663325Y-85070080D01*
X93690915Y-85042490D01*
X93705847Y-85006442D01*
X93705847Y-84967424D01*
X93690915Y-84931376D01*
X93663325Y-84903786D01*
X93627277Y-84888854D01*
X93607768Y-84886933D01*
X92998244Y-84886933D01*
X92978735Y-84888854D01*
X92942687Y-84903786D01*
X92915097Y-84931376D01*
X92900165Y-84967424D01*
X92738388Y-84967424D01*
X92706733Y-84904116D01*
X92701450Y-84895724D01*
X92700439Y-84893282D01*
X92698182Y-84890532D01*
X92696290Y-84887526D01*
X92694294Y-84885795D01*
X92688002Y-84878128D01*
X92662138Y-84852263D01*
X92662343Y-84852015D01*
X92663354Y-84849573D01*
X92668639Y-84841178D01*
X92671952Y-84834552D01*
X93850624Y-84834552D01*
X93850624Y-84948838D01*
X93850959Y-84952241D01*
X93850742Y-84953700D01*
X93851821Y-84960998D01*
X93852545Y-84968347D01*
X93853109Y-84969710D01*
X93853610Y-84973092D01*
X93891706Y-85125473D01*
X93892219Y-85126911D01*
X93892271Y-85127632D01*
X93895374Y-85135742D01*
X93898301Y-85143934D01*
X93898731Y-85144515D01*
X93899277Y-85145940D01*
X93937372Y-85222130D01*
X93942655Y-85230524D01*
X93943667Y-85232966D01*
X93945921Y-85235713D01*
X93947815Y-85238721D01*
X93949811Y-85240452D01*
X93956104Y-85248119D01*
X94032294Y-85324310D01*
X94047447Y-85336747D01*
X94050766Y-85338122D01*
X94053482Y-85340477D01*
X94071382Y-85348468D01*
X94185669Y-85386563D01*
X94195339Y-85388762D01*
X94197782Y-85389774D01*
X94201321Y-85390122D01*
X94204784Y-85390910D01*
X94207417Y-85390722D01*
X94217291Y-85391695D01*
X94293482Y-85391695D01*
X94303355Y-85390722D01*
X94305989Y-85390910D01*
X94309452Y-85390122D01*
X94312991Y-85389774D01*
X94315433Y-85388762D01*
X94325105Y-85386563D01*
X94439390Y-85348468D01*
X94457290Y-85340477D01*
X94460005Y-85338121D01*
X94463324Y-85336747D01*
X94478478Y-85324311D01*
X94516574Y-85286215D01*
X94529010Y-85271061D01*
X94543942Y-85235013D01*
X94543942Y-85235012D01*
X94545863Y-85215504D01*
X94545863Y-84948838D01*
X94543942Y-84929329D01*
X94529010Y-84893281D01*
X94501420Y-84865691D01*
X94465372Y-84850759D01*
X94445863Y-84848838D01*
X94293482Y-84848838D01*
X94273973Y-84850759D01*
X94237925Y-84865691D01*
X94210335Y-84893281D01*
X94195403Y-84929329D01*
X94195403Y-84968347D01*
X94210335Y-85004395D01*
X94237925Y-85031985D01*
X94273973Y-85046917D01*
X94293482Y-85048838D01*
X94345863Y-85048838D01*
X94345863Y-85168825D01*
X94277255Y-85191695D01*
X94233518Y-85191695D01*
X94157023Y-85166197D01*
X94109001Y-85118174D01*
X94083071Y-85066314D01*
X94050624Y-84936527D01*
X94050624Y-84846862D01*
X94083071Y-84717074D01*
X94109000Y-84665216D01*
X94157024Y-84617192D01*
X94233518Y-84591695D01*
X94307970Y-84591695D01*
X94363046Y-84619233D01*
X94381354Y-84626239D01*
X94420274Y-84629005D01*
X94457290Y-84616666D01*
X94486767Y-84591102D01*
X94504216Y-84556203D01*
X94506982Y-84517283D01*
X94494643Y-84480267D01*
X94469079Y-84450790D01*
X94452488Y-84440347D01*
X94376298Y-84402252D01*
X94357990Y-84395246D01*
X94354406Y-84394991D01*
X94351086Y-84393616D01*
X94331577Y-84391695D01*
X94217291Y-84391695D01*
X94207417Y-84392667D01*
X94204784Y-84392480D01*
X94201321Y-84393267D01*
X94197782Y-84393616D01*
X94195339Y-84394627D01*
X94185669Y-84396827D01*
X94071382Y-84434922D01*
X94053482Y-84442913D01*
X94050766Y-84445268D01*
X94047448Y-84446643D01*
X94032294Y-84459079D01*
X93956104Y-84535269D01*
X93949809Y-84542938D01*
X93947815Y-84544669D01*
X93945921Y-84547676D01*
X93943668Y-84550423D01*
X93942657Y-84552862D01*
X93937372Y-84561259D01*
X93899277Y-84637450D01*
X93898731Y-84638874D01*
X93898301Y-84639456D01*
X93895371Y-84647656D01*
X93892271Y-84655759D01*
X93892219Y-84656478D01*
X93891706Y-84657917D01*
X93853610Y-84810298D01*
X93853109Y-84813679D01*
X93852545Y-84815043D01*
X93851821Y-84822391D01*
X93850742Y-84829690D01*
X93850959Y-84831148D01*
X93850624Y-84834552D01*
X92671952Y-84834552D01*
X92706734Y-84764987D01*
X92713740Y-84746678D01*
X92713994Y-84743095D01*
X92715370Y-84739775D01*
X92717291Y-84720266D01*
X92717291Y-84644076D01*
X92715370Y-84624567D01*
X92713994Y-84621246D01*
X92713740Y-84617664D01*
X92706734Y-84599355D01*
X92668639Y-84523164D01*
X92663354Y-84514768D01*
X92662343Y-84512327D01*
X92660087Y-84509579D01*
X92658196Y-84506574D01*
X92656200Y-84504843D01*
X92649906Y-84497174D01*
X92611812Y-84459079D01*
X92604142Y-84452784D01*
X92602412Y-84450790D01*
X92599404Y-84448896D01*
X92596658Y-84446643D01*
X92594218Y-84445632D01*
X92585822Y-84440347D01*
X92509631Y-84402252D01*
X92491322Y-84395246D01*
X92487739Y-84394991D01*
X92484419Y-84393616D01*
X92464910Y-84391695D01*
X92198244Y-84391695D01*
X92178735Y-84393616D01*
X92142687Y-84408548D01*
X92115097Y-84436138D01*
X92100165Y-84472186D01*
X92098244Y-84491695D01*
X90779844Y-84491695D01*
X90769303Y-84460072D01*
X90761312Y-84442172D01*
X90756627Y-84436770D01*
X90753434Y-84430384D01*
X90743965Y-84422171D01*
X90735747Y-84412696D01*
X90729355Y-84409499D01*
X90723958Y-84404819D01*
X90712064Y-84400854D01*
X90700848Y-84395246D01*
X90693720Y-84394739D01*
X90686942Y-84392480D01*
X90674435Y-84393368D01*
X90661928Y-84392480D01*
X90655149Y-84394739D01*
X90648022Y-84395246D01*
X90636809Y-84400852D01*
X90624912Y-84404818D01*
X90619512Y-84409501D01*
X90613123Y-84412696D01*
X90604907Y-84422167D01*
X90595436Y-84430383D01*
X90592241Y-84436772D01*
X90587558Y-84442172D01*
X90579567Y-84460072D01*
X90312900Y-85260072D01*
X90308553Y-85279188D01*
X90208553Y-85279188D01*
X90208553Y-83203740D01*
X90422054Y-83203740D01*
X90422054Y-84003740D01*
X90423975Y-84023249D01*
X90438907Y-84059297D01*
X90466497Y-84086887D01*
X90502545Y-84101819D01*
X90541563Y-84101819D01*
X90577611Y-84086887D01*
X90605201Y-84059297D01*
X90620133Y-84023249D01*
X90622054Y-84003740D01*
X90622054Y-83722787D01*
X90660465Y-83722787D01*
X90897274Y-84061086D01*
X90910035Y-84075967D01*
X90942940Y-84096935D01*
X90981364Y-84103716D01*
X91019459Y-84095277D01*
X91051424Y-84072902D01*
X91072393Y-84039997D01*
X91079173Y-84001572D01*
X91070734Y-83963478D01*
X91061120Y-83946394D01*
X90890550Y-83702723D01*
X90947727Y-83674135D01*
X90956125Y-83668848D01*
X90958563Y-83667839D01*
X90961306Y-83665587D01*
X90964318Y-83663692D01*
X90966050Y-83661694D01*
X90973717Y-83655403D01*
X91011811Y-83617308D01*
X91018103Y-83609641D01*
X91020101Y-83607909D01*
X91021994Y-83604900D01*
X91024248Y-83602155D01*
X91025258Y-83599714D01*
X91030543Y-83591319D01*
X91068639Y-83515128D01*
X91075646Y-83496820D01*
X91075900Y-83493234D01*
X91077276Y-83489915D01*
X91079197Y-83470406D01*
X91079197Y-83356121D01*
X91183958Y-83356121D01*
X91183958Y-83432311D01*
X91185879Y-83451820D01*
X91187254Y-83455140D01*
X91187509Y-83458724D01*
X91194516Y-83477033D01*
X91232611Y-83553224D01*
X91237897Y-83561622D01*
X91238907Y-83564059D01*
X91241158Y-83566802D01*
X91243054Y-83569814D01*
X91245051Y-83571546D01*
X91251343Y-83579213D01*
X91289438Y-83617307D01*
X91297104Y-83623599D01*
X91298837Y-83625597D01*
X91301845Y-83627490D01*
X91304591Y-83629744D01*
X91307031Y-83630754D01*
X91315428Y-83636040D01*
X91391618Y-83674135D01*
X91393044Y-83674680D01*
X91393625Y-83675111D01*
X91401801Y-83678032D01*
X91409926Y-83681141D01*
X91410648Y-83681192D01*
X91412086Y-83681706D01*
X91553816Y-83717138D01*
X91605673Y-83743067D01*
X91620820Y-83758213D01*
X91641101Y-83798775D01*
X91641101Y-83827752D01*
X91620820Y-83868312D01*
X91605673Y-83883460D01*
X91565113Y-83903740D01*
X91414471Y-83903740D01*
X91315581Y-83870777D01*
X91296465Y-83866430D01*
X91257545Y-83869196D01*
X91222646Y-83886646D01*
X91197081Y-83916122D01*
X91184743Y-83953138D01*
X91187509Y-83992058D01*
X91204959Y-84026957D01*
X91234435Y-84052522D01*
X91252335Y-84060513D01*
X91366622Y-84098608D01*
X91376292Y-84100807D01*
X91378735Y-84101819D01*
X91382274Y-84102167D01*
X91385737Y-84102955D01*
X91388370Y-84102767D01*
X91398244Y-84103740D01*
X91588720Y-84103740D01*
X91608229Y-84101819D01*
X91611549Y-84100443D01*
X91615132Y-84100189D01*
X91633441Y-84093183D01*
X91709632Y-84055088D01*
X91718027Y-84049803D01*
X91720469Y-84048792D01*
X91723217Y-84046536D01*
X91726222Y-84044645D01*
X91727951Y-84042651D01*
X91735623Y-84036355D01*
X91773717Y-83998259D01*
X91780007Y-83990594D01*
X91782006Y-83988861D01*
X91783901Y-83985849D01*
X91786154Y-83983105D01*
X91787164Y-83980666D01*
X91792449Y-83972270D01*
X91830544Y-83896080D01*
X91837550Y-83877772D01*
X91837804Y-83874188D01*
X91839180Y-83870868D01*
X91841101Y-83851359D01*
X91841101Y-83775168D01*
X91839180Y-83755659D01*
X91837804Y-83752338D01*
X91837550Y-83748755D01*
X91830544Y-83730447D01*
X91827603Y-83724565D01*
X91946648Y-83724565D01*
X91947784Y-83740549D01*
X91947784Y-83756582D01*
X91949159Y-83759902D01*
X91949414Y-83763485D01*
X91956579Y-83777815D01*
X91962716Y-83792630D01*
X91965257Y-83795171D01*
X91966864Y-83798384D01*
X91978971Y-83808885D01*
X91990306Y-83820220D01*
X91993624Y-83821594D01*
X91996340Y-83823950D01*
X92011550Y-83829020D01*
X92026354Y-83835152D01*
X92031453Y-83835654D01*
X92033355Y-83836288D01*
X92035989Y-83836100D01*
X92045863Y-83837073D01*
X92326816Y-83837073D01*
X92326816Y-84003740D01*
X92328737Y-84023249D01*
X92343669Y-84059297D01*
X92371259Y-84086887D01*
X92407307Y-84101819D01*
X92446325Y-84101819D01*
X92482373Y-84086887D01*
X92509963Y-84059297D01*
X92524895Y-84023249D01*
X92526816Y-84003740D01*
X92526816Y-83837073D01*
X92541102Y-83837073D01*
X92560611Y-83835152D01*
X92596659Y-83820220D01*
X92624249Y-83792630D01*
X92639181Y-83756582D01*
X92639181Y-83717564D01*
X92624249Y-83681516D01*
X92596659Y-83653926D01*
X92560611Y-83638994D01*
X92541102Y-83637073D01*
X92526816Y-83637073D01*
X92526816Y-83470406D01*
X92524895Y-83450897D01*
X92509963Y-83414849D01*
X92482373Y-83387259D01*
X92446325Y-83372327D01*
X92407307Y-83372327D01*
X92371259Y-83387259D01*
X92343669Y-83414849D01*
X92328737Y-83450897D01*
X92326816Y-83470406D01*
X92326816Y-83637073D01*
X92184606Y-83637073D01*
X92278257Y-83356121D01*
X92707768Y-83356121D01*
X92707768Y-83394216D01*
X92709689Y-83413725D01*
X92711064Y-83417044D01*
X92711319Y-83420630D01*
X92718326Y-83438938D01*
X92756422Y-83515128D01*
X92761704Y-83523519D01*
X92762716Y-83525962D01*
X92764972Y-83528712D01*
X92766865Y-83531718D01*
X92768858Y-83533446D01*
X92775152Y-83541116D01*
X92780632Y-83546596D01*
X92775153Y-83552076D01*
X92768861Y-83559742D01*
X92766864Y-83561475D01*
X92764968Y-83564486D01*
X92762717Y-83567230D01*
X92761707Y-83569666D01*
X92756421Y-83578065D01*
X92718326Y-83654256D01*
X92711319Y-83672565D01*
X92711064Y-83676148D01*
X92709689Y-83679469D01*
X92707768Y-83698978D01*
X92707768Y-83851359D01*
X92709689Y-83870868D01*
X92711064Y-83874187D01*
X92711319Y-83877773D01*
X92718326Y-83896081D01*
X92756422Y-83972271D01*
X92761704Y-83980662D01*
X92762716Y-83983105D01*
X92764972Y-83985855D01*
X92766865Y-83988861D01*
X92768858Y-83990589D01*
X92775152Y-83998259D01*
X92813247Y-84036355D01*
X92820915Y-84042648D01*
X92822647Y-84044645D01*
X92825655Y-84046538D01*
X92828400Y-84048791D01*
X92830838Y-84049801D01*
X92839238Y-84055088D01*
X92915428Y-84093183D01*
X92933736Y-84100189D01*
X92937319Y-84100443D01*
X92940640Y-84101819D01*
X92960149Y-84103740D01*
X93112530Y-84103740D01*
X93132039Y-84101819D01*
X93135359Y-84100443D01*
X93138942Y-84100189D01*
X93157251Y-84093183D01*
X93233442Y-84055088D01*
X93241837Y-84049803D01*
X93244279Y-84048792D01*
X93247027Y-84046536D01*
X93250032Y-84044645D01*
X93251761Y-84042651D01*
X93259433Y-84036355D01*
X93297527Y-83998259D01*
X93303817Y-83990594D01*
X93305816Y-83988861D01*
X93307711Y-83985849D01*
X93309964Y-83983105D01*
X93310974Y-83980666D01*
X93316259Y-83972270D01*
X93354354Y-83896080D01*
X93361360Y-83877772D01*
X93361614Y-83874188D01*
X93362990Y-83870868D01*
X93364911Y-83851359D01*
X93364911Y-83698978D01*
X93362990Y-83679469D01*
X93361614Y-83676148D01*
X93361360Y-83672566D01*
X93354354Y-83654257D01*
X93324398Y-83594345D01*
X93470140Y-83594345D01*
X93471594Y-83599164D01*
X93471594Y-83604200D01*
X93477187Y-83617704D01*
X93481410Y-83631700D01*
X93484598Y-83635597D01*
X93486525Y-83640248D01*
X93496862Y-83650585D01*
X93506118Y-83661898D01*
X93510553Y-83664277D01*
X93514115Y-83667839D01*
X93527618Y-83673432D01*
X93540501Y-83680343D01*
X93545513Y-83680844D01*
X93550163Y-83682770D01*
X93564777Y-83682770D01*
X93579326Y-83684225D01*
X93584145Y-83682770D01*
X93589181Y-83682771D01*
X93602685Y-83677177D01*
X93616681Y-83672955D01*
X93620578Y-83669766D01*
X93625229Y-83667840D01*
X93640383Y-83655404D01*
X93667005Y-83628782D01*
X93707566Y-83608502D01*
X93850828Y-83608502D01*
X93891389Y-83628782D01*
X93906535Y-83643927D01*
X93926816Y-83684489D01*
X93926816Y-83827752D01*
X93906535Y-83868312D01*
X93891388Y-83883460D01*
X93850828Y-83903740D01*
X93707566Y-83903740D01*
X93667006Y-83883460D01*
X93640384Y-83856838D01*
X93625230Y-83844402D01*
X93589182Y-83829470D01*
X93550164Y-83829470D01*
X93514116Y-83844402D01*
X93486526Y-83871992D01*
X93471594Y-83908040D01*
X93471594Y-83947058D01*
X93486526Y-83983106D01*
X93498962Y-83998260D01*
X93537058Y-84036356D01*
X93544724Y-84042647D01*
X93546457Y-84044645D01*
X93549468Y-84046540D01*
X93552212Y-84048792D01*
X93554649Y-84049801D01*
X93563048Y-84055088D01*
X93639238Y-84093183D01*
X93657546Y-84100189D01*
X93661129Y-84100443D01*
X93664450Y-84101819D01*
X93683959Y-84103740D01*
X93874435Y-84103740D01*
X93893944Y-84101819D01*
X93897264Y-84100443D01*
X93900847Y-84100189D01*
X93919156Y-84093183D01*
X93995347Y-84055088D01*
X94003742Y-84049803D01*
X94006184Y-84048792D01*
X94008932Y-84046536D01*
X94011937Y-84044645D01*
X94013666Y-84042651D01*
X94021338Y-84036355D01*
X94059432Y-83998259D01*
X94065722Y-83990594D01*
X94067721Y-83988861D01*
X94069616Y-83985849D01*
X94071869Y-83983105D01*
X94072879Y-83980666D01*
X94078164Y-83972270D01*
X94116259Y-83896080D01*
X94123265Y-83877772D01*
X94123519Y-83874188D01*
X94124895Y-83870868D01*
X94126816Y-83851359D01*
X94126816Y-83660883D01*
X94124895Y-83641374D01*
X94123519Y-83638053D01*
X94123265Y-83634471D01*
X94116259Y-83616162D01*
X94078164Y-83539971D01*
X94072879Y-83531575D01*
X94071868Y-83529134D01*
X94069612Y-83526386D01*
X94067721Y-83523381D01*
X94065725Y-83521650D01*
X94059431Y-83513981D01*
X94021337Y-83475886D01*
X94013667Y-83469591D01*
X94011937Y-83467597D01*
X94008929Y-83465703D01*
X94006183Y-83463450D01*
X94003743Y-83462439D01*
X93995347Y-83457154D01*
X93919156Y-83419059D01*
X93900847Y-83412053D01*
X93897264Y-83411798D01*
X93893944Y-83410423D01*
X93874435Y-83408502D01*
X93687791Y-83408502D01*
X93698268Y-83303740D01*
X93988721Y-83303740D01*
X94008230Y-83301819D01*
X94044278Y-83286887D01*
X94071868Y-83259297D01*
X94086800Y-83223249D01*
X94086800Y-83184231D01*
X94071868Y-83148183D01*
X94044278Y-83120593D01*
X94008230Y-83105661D01*
X93988721Y-83103740D01*
X93607769Y-83103740D01*
X93600552Y-83104450D01*
X93598116Y-83104207D01*
X93595737Y-83104924D01*
X93588260Y-83105661D01*
X93574750Y-83111257D01*
X93560761Y-83115478D01*
X93556864Y-83118665D01*
X93552212Y-83120593D01*
X93541875Y-83130929D01*
X93530563Y-83140185D01*
X93528182Y-83144622D01*
X93524622Y-83148183D01*
X93519028Y-83161685D01*
X93512118Y-83174568D01*
X93510641Y-83181933D01*
X93509690Y-83184231D01*
X93509690Y-83186680D01*
X93508265Y-83193790D01*
X93470169Y-83574741D01*
X93470140Y-83594345D01*
X93324398Y-83594345D01*
X93316259Y-83578066D01*
X93310974Y-83569670D01*
X93309963Y-83567229D01*
X93307707Y-83564481D01*
X93305816Y-83561476D01*
X93303820Y-83559745D01*
X93297526Y-83552076D01*
X93292046Y-83546596D01*
X93297527Y-83541116D01*
X93303817Y-83533451D01*
X93305816Y-83531718D01*
X93307711Y-83528706D01*
X93309964Y-83525962D01*
X93310974Y-83523523D01*
X93316259Y-83515127D01*
X93354354Y-83438937D01*
X93361360Y-83420629D01*
X93361614Y-83417045D01*
X93362990Y-83413725D01*
X93364911Y-83394216D01*
X93364911Y-83356121D01*
X93362990Y-83336612D01*
X93361614Y-83333291D01*
X93361360Y-83329709D01*
X93354354Y-83311400D01*
X93316259Y-83235209D01*
X93310974Y-83226813D01*
X93309963Y-83224372D01*
X93307707Y-83221624D01*
X93305816Y-83218619D01*
X93303820Y-83216888D01*
X93297526Y-83209219D01*
X93259432Y-83171124D01*
X93251762Y-83164829D01*
X93250032Y-83162835D01*
X93247024Y-83160941D01*
X93244278Y-83158688D01*
X93241838Y-83157677D01*
X93233442Y-83152392D01*
X93157251Y-83114297D01*
X93138942Y-83107291D01*
X93135359Y-83107036D01*
X93132039Y-83105661D01*
X93112530Y-83103740D01*
X92960149Y-83103740D01*
X92940640Y-83105661D01*
X92937319Y-83107036D01*
X92933736Y-83107291D01*
X92915428Y-83114297D01*
X92839238Y-83152392D01*
X92830841Y-83157677D01*
X92828401Y-83158688D01*
X92825655Y-83160941D01*
X92822647Y-83162835D01*
X92820914Y-83164832D01*
X92813248Y-83171125D01*
X92775153Y-83209219D01*
X92768861Y-83216885D01*
X92766864Y-83218618D01*
X92764968Y-83221629D01*
X92762717Y-83224373D01*
X92761707Y-83226809D01*
X92756421Y-83235208D01*
X92718326Y-83311399D01*
X92711319Y-83329708D01*
X92711064Y-83333291D01*
X92709689Y-83336612D01*
X92707768Y-83356121D01*
X92278257Y-83356121D01*
X92331208Y-83197268D01*
X92335555Y-83178153D01*
X92332789Y-83139233D01*
X92315339Y-83104334D01*
X92285863Y-83078769D01*
X92248847Y-83066430D01*
X92209927Y-83069196D01*
X92175029Y-83086646D01*
X92149463Y-83116122D01*
X92141472Y-83134022D01*
X91950995Y-83705450D01*
X91948795Y-83715122D01*
X91947784Y-83717564D01*
X91947784Y-83719569D01*
X91946648Y-83724565D01*
X91827603Y-83724565D01*
X91792449Y-83654257D01*
X91787163Y-83645860D01*
X91786153Y-83643420D01*
X91783899Y-83640674D01*
X91782006Y-83637666D01*
X91780008Y-83635933D01*
X91773716Y-83628267D01*
X91735622Y-83590172D01*
X91727955Y-83583880D01*
X91726223Y-83581883D01*
X91723211Y-83579987D01*
X91720468Y-83577736D01*
X91718031Y-83576726D01*
X91709633Y-83571440D01*
X91633442Y-83533345D01*
X91632016Y-83532799D01*
X91631434Y-83532368D01*
X91623240Y-83529440D01*
X91615133Y-83526338D01*
X91614412Y-83526286D01*
X91612974Y-83525773D01*
X91471243Y-83490340D01*
X91419384Y-83464411D01*
X91404238Y-83449264D01*
X91383958Y-83408704D01*
X91383958Y-83379727D01*
X91404238Y-83339167D01*
X91419384Y-83324020D01*
X91459946Y-83303740D01*
X91610589Y-83303740D01*
X91709478Y-83336703D01*
X91728594Y-83341050D01*
X91767514Y-83338284D01*
X91802413Y-83320834D01*
X91827978Y-83291358D01*
X91840316Y-83254342D01*
X91837550Y-83215422D01*
X91820100Y-83180524D01*
X91790624Y-83154958D01*
X91772724Y-83146967D01*
X91658439Y-83108872D01*
X91648767Y-83106672D01*
X91646325Y-83105661D01*
X91642786Y-83105312D01*
X91639323Y-83104525D01*
X91636689Y-83104712D01*
X91626816Y-83103740D01*
X91436339Y-83103740D01*
X91416830Y-83105661D01*
X91413509Y-83107036D01*
X91409926Y-83107291D01*
X91391618Y-83114297D01*
X91315428Y-83152392D01*
X91307031Y-83157677D01*
X91304591Y-83158688D01*
X91301845Y-83160941D01*
X91298837Y-83162835D01*
X91297104Y-83164832D01*
X91289438Y-83171125D01*
X91251343Y-83209219D01*
X91245051Y-83216885D01*
X91243054Y-83218618D01*
X91241158Y-83221629D01*
X91238907Y-83224373D01*
X91237897Y-83226809D01*
X91232611Y-83235208D01*
X91194516Y-83311399D01*
X91187509Y-83329708D01*
X91187254Y-83333291D01*
X91185879Y-83336612D01*
X91183958Y-83356121D01*
X91079197Y-83356121D01*
X91077276Y-83336612D01*
X91075900Y-83333292D01*
X91075646Y-83329707D01*
X91068639Y-83311399D01*
X91030543Y-83235208D01*
X91025258Y-83226812D01*
X91024248Y-83224372D01*
X91021994Y-83221626D01*
X91020101Y-83218618D01*
X91018103Y-83216885D01*
X91011811Y-83209219D01*
X90973717Y-83171124D01*
X90966050Y-83164832D01*
X90964318Y-83162835D01*
X90961306Y-83160939D01*
X90958563Y-83158688D01*
X90956125Y-83157678D01*
X90947727Y-83152392D01*
X90871537Y-83114297D01*
X90853229Y-83107291D01*
X90849645Y-83107036D01*
X90846325Y-83105661D01*
X90826816Y-83103740D01*
X90522054Y-83103740D01*
X90502545Y-83105661D01*
X90466497Y-83120593D01*
X90438907Y-83148183D01*
X90423975Y-83184231D01*
X90422054Y-83203740D01*
X90208553Y-83203740D01*
X90208553Y-82966430D01*
X94645863Y-82966430D01*
X94645863Y-85491695D01*
G37*
D12*
X157695595Y-71327287D02*
X158343214Y-71327287D01*
X158343214Y-71327287D02*
X158419404Y-71289192D01*
X158419404Y-71289192D02*
X158457500Y-71251097D01*
X158457500Y-71251097D02*
X158495595Y-71174906D01*
X158495595Y-71174906D02*
X158495595Y-71022525D01*
X158495595Y-71022525D02*
X158457500Y-70946335D01*
X158457500Y-70946335D02*
X158419404Y-70908240D01*
X158419404Y-70908240D02*
X158343214Y-70870144D01*
X158343214Y-70870144D02*
X157695595Y-70870144D01*
X158457500Y-70527288D02*
X158495595Y-70413002D01*
X158495595Y-70413002D02*
X158495595Y-70222526D01*
X158495595Y-70222526D02*
X158457500Y-70146335D01*
X158457500Y-70146335D02*
X158419404Y-70108240D01*
X158419404Y-70108240D02*
X158343214Y-70070145D01*
X158343214Y-70070145D02*
X158267023Y-70070145D01*
X158267023Y-70070145D02*
X158190833Y-70108240D01*
X158190833Y-70108240D02*
X158152738Y-70146335D01*
X158152738Y-70146335D02*
X158114642Y-70222526D01*
X158114642Y-70222526D02*
X158076547Y-70374907D01*
X158076547Y-70374907D02*
X158038452Y-70451097D01*
X158038452Y-70451097D02*
X158000357Y-70489192D01*
X158000357Y-70489192D02*
X157924166Y-70527288D01*
X157924166Y-70527288D02*
X157847976Y-70527288D01*
X157847976Y-70527288D02*
X157771785Y-70489192D01*
X157771785Y-70489192D02*
X157733690Y-70451097D01*
X157733690Y-70451097D02*
X157695595Y-70374907D01*
X157695595Y-70374907D02*
X157695595Y-70184430D01*
X157695595Y-70184430D02*
X157733690Y-70070145D01*
X158076547Y-69460621D02*
X158114642Y-69346335D01*
X158114642Y-69346335D02*
X158152738Y-69308240D01*
X158152738Y-69308240D02*
X158228928Y-69270144D01*
X158228928Y-69270144D02*
X158343214Y-69270144D01*
X158343214Y-69270144D02*
X158419404Y-69308240D01*
X158419404Y-69308240D02*
X158457500Y-69346335D01*
X158457500Y-69346335D02*
X158495595Y-69422525D01*
X158495595Y-69422525D02*
X158495595Y-69727287D01*
X158495595Y-69727287D02*
X157695595Y-69727287D01*
X157695595Y-69727287D02*
X157695595Y-69460621D01*
X157695595Y-69460621D02*
X157733690Y-69384430D01*
X157733690Y-69384430D02*
X157771785Y-69346335D01*
X157771785Y-69346335D02*
X157847976Y-69308240D01*
X157847976Y-69308240D02*
X157924166Y-69308240D01*
X157924166Y-69308240D02*
X158000357Y-69346335D01*
X158000357Y-69346335D02*
X158038452Y-69384430D01*
X158038452Y-69384430D02*
X158076547Y-69460621D01*
X158076547Y-69460621D02*
X158076547Y-69727287D01*
D10*
X108256265Y-49496895D02*
X108256265Y-50144514D01*
X108256265Y-50144514D02*
X108294360Y-50220704D01*
X108294360Y-50220704D02*
X108332455Y-50258800D01*
X108332455Y-50258800D02*
X108408646Y-50296895D01*
X108408646Y-50296895D02*
X108561027Y-50296895D01*
X108561027Y-50296895D02*
X108637217Y-50258800D01*
X108637217Y-50258800D02*
X108675312Y-50220704D01*
X108675312Y-50220704D02*
X108713408Y-50144514D01*
X108713408Y-50144514D02*
X108713408Y-49496895D01*
X109246741Y-49496895D02*
X109322931Y-49496895D01*
X109322931Y-49496895D02*
X109399122Y-49534990D01*
X109399122Y-49534990D02*
X109437217Y-49573085D01*
X109437217Y-49573085D02*
X109475312Y-49649276D01*
X109475312Y-49649276D02*
X109513407Y-49801657D01*
X109513407Y-49801657D02*
X109513407Y-49992133D01*
X109513407Y-49992133D02*
X109475312Y-50144514D01*
X109475312Y-50144514D02*
X109437217Y-50220704D01*
X109437217Y-50220704D02*
X109399122Y-50258800D01*
X109399122Y-50258800D02*
X109322931Y-50296895D01*
X109322931Y-50296895D02*
X109246741Y-50296895D01*
X109246741Y-50296895D02*
X109170550Y-50258800D01*
X109170550Y-50258800D02*
X109132455Y-50220704D01*
X109132455Y-50220704D02*
X109094360Y-50144514D01*
X109094360Y-50144514D02*
X109056264Y-49992133D01*
X109056264Y-49992133D02*
X109056264Y-49801657D01*
X109056264Y-49801657D02*
X109094360Y-49649276D01*
X109094360Y-49649276D02*
X109132455Y-49573085D01*
X109132455Y-49573085D02*
X109170550Y-49534990D01*
X109170550Y-49534990D02*
X109246741Y-49496895D01*
X86346265Y-50451895D02*
X86346265Y-49651895D01*
X86727217Y-50451895D02*
X86727217Y-49651895D01*
X86727217Y-49651895D02*
X87184360Y-50451895D01*
X87184360Y-50451895D02*
X87184360Y-49651895D01*
X87984359Y-50451895D02*
X87527216Y-50451895D01*
X87755788Y-50451895D02*
X87755788Y-49651895D01*
X87755788Y-49651895D02*
X87679597Y-49766180D01*
X87679597Y-49766180D02*
X87603407Y-49842371D01*
X87603407Y-49842371D02*
X87527216Y-49880466D01*
X96208646Y-49596895D02*
X96361027Y-49596895D01*
X96361027Y-49596895D02*
X96437217Y-49634990D01*
X96437217Y-49634990D02*
X96513408Y-49711180D01*
X96513408Y-49711180D02*
X96551503Y-49863561D01*
X96551503Y-49863561D02*
X96551503Y-50130228D01*
X96551503Y-50130228D02*
X96513408Y-50282609D01*
X96513408Y-50282609D02*
X96437217Y-50358800D01*
X96437217Y-50358800D02*
X96361027Y-50396895D01*
X96361027Y-50396895D02*
X96208646Y-50396895D01*
X96208646Y-50396895D02*
X96132455Y-50358800D01*
X96132455Y-50358800D02*
X96056265Y-50282609D01*
X96056265Y-50282609D02*
X96018169Y-50130228D01*
X96018169Y-50130228D02*
X96018169Y-49863561D01*
X96018169Y-49863561D02*
X96056265Y-49711180D01*
X96056265Y-49711180D02*
X96132455Y-49634990D01*
X96132455Y-49634990D02*
X96208646Y-49596895D01*
X96894360Y-49596895D02*
X96894360Y-50244514D01*
X96894360Y-50244514D02*
X96932455Y-50320704D01*
X96932455Y-50320704D02*
X96970550Y-50358800D01*
X96970550Y-50358800D02*
X97046741Y-50396895D01*
X97046741Y-50396895D02*
X97199122Y-50396895D01*
X97199122Y-50396895D02*
X97275312Y-50358800D01*
X97275312Y-50358800D02*
X97313407Y-50320704D01*
X97313407Y-50320704D02*
X97351503Y-50244514D01*
X97351503Y-50244514D02*
X97351503Y-49596895D01*
X97618169Y-49596895D02*
X98075312Y-49596895D01*
X97846740Y-50396895D02*
X97846740Y-49596895D01*
X98761026Y-50396895D02*
X98303883Y-50396895D01*
X98532455Y-50396895D02*
X98532455Y-49596895D01*
X98532455Y-49596895D02*
X98456264Y-49711180D01*
X98456264Y-49711180D02*
X98380074Y-49787371D01*
X98380074Y-49787371D02*
X98303883Y-49825466D01*
X148922931Y-72377847D02*
X149037217Y-72415942D01*
X149037217Y-72415942D02*
X149075312Y-72454038D01*
X149075312Y-72454038D02*
X149113408Y-72530228D01*
X149113408Y-72530228D02*
X149113408Y-72644514D01*
X149113408Y-72644514D02*
X149075312Y-72720704D01*
X149075312Y-72720704D02*
X149037217Y-72758800D01*
X149037217Y-72758800D02*
X148961027Y-72796895D01*
X148961027Y-72796895D02*
X148656265Y-72796895D01*
X148656265Y-72796895D02*
X148656265Y-71996895D01*
X148656265Y-71996895D02*
X148922931Y-71996895D01*
X148922931Y-71996895D02*
X148999122Y-72034990D01*
X148999122Y-72034990D02*
X149037217Y-72073085D01*
X149037217Y-72073085D02*
X149075312Y-72149276D01*
X149075312Y-72149276D02*
X149075312Y-72225466D01*
X149075312Y-72225466D02*
X149037217Y-72301657D01*
X149037217Y-72301657D02*
X148999122Y-72339752D01*
X148999122Y-72339752D02*
X148922931Y-72377847D01*
X148922931Y-72377847D02*
X148656265Y-72377847D01*
X149341979Y-71996895D02*
X149799122Y-71996895D01*
X149570550Y-72796895D02*
X149570550Y-71996895D01*
X150218170Y-71996895D02*
X150294360Y-71996895D01*
X150294360Y-71996895D02*
X150370551Y-72034990D01*
X150370551Y-72034990D02*
X150408646Y-72073085D01*
X150408646Y-72073085D02*
X150446741Y-72149276D01*
X150446741Y-72149276D02*
X150484836Y-72301657D01*
X150484836Y-72301657D02*
X150484836Y-72492133D01*
X150484836Y-72492133D02*
X150446741Y-72644514D01*
X150446741Y-72644514D02*
X150408646Y-72720704D01*
X150408646Y-72720704D02*
X150370551Y-72758800D01*
X150370551Y-72758800D02*
X150294360Y-72796895D01*
X150294360Y-72796895D02*
X150218170Y-72796895D01*
X150218170Y-72796895D02*
X150141979Y-72758800D01*
X150141979Y-72758800D02*
X150103884Y-72720704D01*
X150103884Y-72720704D02*
X150065789Y-72644514D01*
X150065789Y-72644514D02*
X150027693Y-72492133D01*
X150027693Y-72492133D02*
X150027693Y-72301657D01*
X150027693Y-72301657D02*
X150065789Y-72149276D01*
X150065789Y-72149276D02*
X150103884Y-72073085D01*
X150103884Y-72073085D02*
X150141979Y-72034990D01*
X150141979Y-72034990D02*
X150218170Y-71996895D01*
D12*
X153776547Y-79027287D02*
X153776547Y-78760621D01*
X154195595Y-78646335D02*
X154195595Y-79027287D01*
X154195595Y-79027287D02*
X153395595Y-79027287D01*
X153395595Y-79027287D02*
X153395595Y-78646335D01*
X153395595Y-78379668D02*
X154195595Y-77846334D01*
X153395595Y-77846334D02*
X154195595Y-78379668D01*
X153395595Y-77655858D02*
X153395595Y-77198715D01*
X154195595Y-77427287D02*
X153395595Y-77427287D01*
G36*
X151419902Y-62869269D02*
G01*
X151440394Y-62889761D01*
X151467355Y-62943683D01*
X151467355Y-63028459D01*
X151440394Y-63082381D01*
X151416641Y-63106134D01*
X151362719Y-63133095D01*
X151135212Y-63133095D01*
X151135212Y-62839047D01*
X151329235Y-62839047D01*
X151419902Y-62869269D01*
G37*
G36*
X151378546Y-62485056D02*
G01*
X151402297Y-62508807D01*
X151429259Y-62562730D01*
X151429259Y-62609411D01*
X151402297Y-62663334D01*
X151378546Y-62687085D01*
X151324623Y-62714047D01*
X151135212Y-62714047D01*
X151135212Y-62458095D01*
X151324623Y-62458095D01*
X151378546Y-62485056D01*
G37*
G36*
X152362200Y-63346984D02*
G01*
X150921323Y-63346984D01*
X150921323Y-62395595D01*
X151010212Y-62395595D01*
X151010212Y-63195595D01*
X151014970Y-63219513D01*
X151048794Y-63253337D01*
X151072712Y-63258095D01*
X151377474Y-63258095D01*
X151380545Y-63257484D01*
X151381904Y-63257937D01*
X151391564Y-63255291D01*
X151401392Y-63253337D01*
X151402405Y-63252323D01*
X151405425Y-63251497D01*
X151481615Y-63213402D01*
X151489530Y-63207258D01*
X151497859Y-63201694D01*
X151535954Y-63163598D01*
X151541526Y-63155257D01*
X151547660Y-63147355D01*
X151585756Y-63071166D01*
X151586582Y-63068146D01*
X151587597Y-63067132D01*
X151589552Y-63057302D01*
X151592197Y-63047645D01*
X151591743Y-63046285D01*
X151592355Y-63043214D01*
X151592355Y-62928928D01*
X151591743Y-62925856D01*
X151592197Y-62924497D01*
X151589552Y-62914839D01*
X151587597Y-62905010D01*
X151586582Y-62903995D01*
X151585756Y-62900976D01*
X151547660Y-62824787D01*
X151541526Y-62816884D01*
X151535954Y-62808544D01*
X151497859Y-62770448D01*
X151495254Y-62768707D01*
X151494614Y-62767427D01*
X151485915Y-62762468D01*
X151482334Y-62760075D01*
X151497858Y-62744552D01*
X151503422Y-62736223D01*
X151509566Y-62728308D01*
X151547661Y-62652116D01*
X151548487Y-62649097D01*
X151549501Y-62648084D01*
X151551454Y-62638262D01*
X151554102Y-62628596D01*
X151553648Y-62627235D01*
X151554259Y-62624166D01*
X151554259Y-62547976D01*
X151553648Y-62544906D01*
X151554102Y-62543546D01*
X151551454Y-62533879D01*
X151549501Y-62524058D01*
X151548487Y-62523044D01*
X151547661Y-62520026D01*
X151509566Y-62443834D01*
X151503422Y-62435918D01*
X151497858Y-62427590D01*
X151459763Y-62389496D01*
X151451441Y-62383935D01*
X151443520Y-62377788D01*
X151431298Y-62371677D01*
X151700684Y-62371677D01*
X151700684Y-62419513D01*
X151734508Y-62453337D01*
X151758426Y-62458095D01*
X151924497Y-62458095D01*
X151924497Y-63195595D01*
X151929255Y-63219513D01*
X151963079Y-63253337D01*
X152010915Y-63253337D01*
X152044739Y-63219513D01*
X152049497Y-63195595D01*
X152049497Y-62458095D01*
X152215569Y-62458095D01*
X152239487Y-62453337D01*
X152273311Y-62419513D01*
X152273311Y-62371677D01*
X152239487Y-62337853D01*
X152215569Y-62333095D01*
X151758426Y-62333095D01*
X151734508Y-62337853D01*
X151700684Y-62371677D01*
X151431298Y-62371677D01*
X151367329Y-62339693D01*
X151364309Y-62338866D01*
X151363296Y-62337853D01*
X151353468Y-62335898D01*
X151343808Y-62333253D01*
X151342449Y-62333705D01*
X151339378Y-62333095D01*
X151072712Y-62333095D01*
X151048794Y-62337853D01*
X151014970Y-62371677D01*
X151010212Y-62395595D01*
X150921323Y-62395595D01*
X150921323Y-62244206D01*
X152362200Y-62244206D01*
X152362200Y-63346984D01*
G37*
D11*
X150641101Y-51771980D02*
X150593482Y-51819600D01*
X150593482Y-51819600D02*
X150450625Y-51867219D01*
X150450625Y-51867219D02*
X150355387Y-51867219D01*
X150355387Y-51867219D02*
X150212530Y-51819600D01*
X150212530Y-51819600D02*
X150117292Y-51724361D01*
X150117292Y-51724361D02*
X150069673Y-51629123D01*
X150069673Y-51629123D02*
X150022054Y-51438647D01*
X150022054Y-51438647D02*
X150022054Y-51295790D01*
X150022054Y-51295790D02*
X150069673Y-51105314D01*
X150069673Y-51105314D02*
X150117292Y-51010076D01*
X150117292Y-51010076D02*
X150212530Y-50914838D01*
X150212530Y-50914838D02*
X150355387Y-50867219D01*
X150355387Y-50867219D02*
X150450625Y-50867219D01*
X150450625Y-50867219D02*
X150593482Y-50914838D01*
X150593482Y-50914838D02*
X150641101Y-50962457D01*
X151069673Y-51867219D02*
X151069673Y-50867219D01*
X151069673Y-50867219D02*
X151307768Y-50867219D01*
X151307768Y-50867219D02*
X151450625Y-50914838D01*
X151450625Y-50914838D02*
X151545863Y-51010076D01*
X151545863Y-51010076D02*
X151593482Y-51105314D01*
X151593482Y-51105314D02*
X151641101Y-51295790D01*
X151641101Y-51295790D02*
X151641101Y-51438647D01*
X151641101Y-51438647D02*
X151593482Y-51629123D01*
X151593482Y-51629123D02*
X151545863Y-51724361D01*
X151545863Y-51724361D02*
X151450625Y-51819600D01*
X151450625Y-51819600D02*
X151307768Y-51867219D01*
X151307768Y-51867219D02*
X151069673Y-51867219D01*
X152641101Y-51867219D02*
X152307768Y-51391028D01*
X152069673Y-51867219D02*
X152069673Y-50867219D01*
X152069673Y-50867219D02*
X152450625Y-50867219D01*
X152450625Y-50867219D02*
X152545863Y-50914838D01*
X152545863Y-50914838D02*
X152593482Y-50962457D01*
X152593482Y-50962457D02*
X152641101Y-51057695D01*
X152641101Y-51057695D02*
X152641101Y-51200552D01*
X152641101Y-51200552D02*
X152593482Y-51295790D01*
X152593482Y-51295790D02*
X152545863Y-51343409D01*
X152545863Y-51343409D02*
X152450625Y-51391028D01*
X152450625Y-51391028D02*
X152069673Y-51391028D01*
X152926816Y-50867219D02*
X153260149Y-51867219D01*
X153260149Y-51867219D02*
X153593482Y-50867219D01*
X154450625Y-50914838D02*
X154355387Y-50867219D01*
X154355387Y-50867219D02*
X154212530Y-50867219D01*
X154212530Y-50867219D02*
X154069673Y-50914838D01*
X154069673Y-50914838D02*
X153974435Y-51010076D01*
X153974435Y-51010076D02*
X153926816Y-51105314D01*
X153926816Y-51105314D02*
X153879197Y-51295790D01*
X153879197Y-51295790D02*
X153879197Y-51438647D01*
X153879197Y-51438647D02*
X153926816Y-51629123D01*
X153926816Y-51629123D02*
X153974435Y-51724361D01*
X153974435Y-51724361D02*
X154069673Y-51819600D01*
X154069673Y-51819600D02*
X154212530Y-51867219D01*
X154212530Y-51867219D02*
X154307768Y-51867219D01*
X154307768Y-51867219D02*
X154450625Y-51819600D01*
X154450625Y-51819600D02*
X154498244Y-51771980D01*
X154498244Y-51771980D02*
X154498244Y-51438647D01*
X154498244Y-51438647D02*
X154307768Y-51438647D01*
G36*
X96332780Y-68587018D02*
G01*
X96302975Y-68646627D01*
X96278306Y-68671295D01*
X96218697Y-68701101D01*
X96123054Y-68701101D01*
X96063444Y-68671296D01*
X96038776Y-68646627D01*
X96008971Y-68587017D01*
X96008971Y-68329673D01*
X96332780Y-68329673D01*
X96332780Y-68587018D01*
G37*
G36*
X96643891Y-69962672D02*
G01*
X95221669Y-69962672D01*
X95221669Y-69182054D01*
X95332780Y-69182054D01*
X95332780Y-69753482D01*
X95334701Y-69772991D01*
X95349633Y-69809039D01*
X95377223Y-69836629D01*
X95413271Y-69851561D01*
X95452289Y-69851561D01*
X95488337Y-69836629D01*
X95515927Y-69809039D01*
X95530859Y-69772991D01*
X95532780Y-69753482D01*
X95532780Y-69567768D01*
X96432780Y-69567768D01*
X96432850Y-69567761D01*
X96432885Y-69567768D01*
X96432986Y-69567747D01*
X96452289Y-69565847D01*
X96461437Y-69562057D01*
X96471145Y-69560116D01*
X96479285Y-69554664D01*
X96488337Y-69550915D01*
X96495336Y-69543915D01*
X96503565Y-69538405D01*
X96509001Y-69530250D01*
X96515927Y-69523325D01*
X96519714Y-69514181D01*
X96525209Y-69505940D01*
X96527110Y-69496326D01*
X96530859Y-69487277D01*
X96530859Y-69477375D01*
X96532780Y-69467664D01*
X96530859Y-69458058D01*
X96530859Y-69448259D01*
X96527069Y-69439110D01*
X96525128Y-69429403D01*
X96519676Y-69421262D01*
X96515927Y-69412211D01*
X96508927Y-69405211D01*
X96503417Y-69396983D01*
X96488410Y-69384694D01*
X96488337Y-69384621D01*
X96488304Y-69384607D01*
X96488250Y-69384563D01*
X96353634Y-69294819D01*
X96276870Y-69218055D01*
X96236509Y-69137333D01*
X96226066Y-69120742D01*
X96196589Y-69095178D01*
X96159573Y-69082839D01*
X96120653Y-69085605D01*
X96085754Y-69103054D01*
X96060190Y-69132531D01*
X96047851Y-69169547D01*
X96050617Y-69208467D01*
X96057623Y-69226775D01*
X96105242Y-69322013D01*
X96110527Y-69330409D01*
X96111538Y-69332849D01*
X96113791Y-69335595D01*
X96115685Y-69338603D01*
X96117679Y-69340332D01*
X96123974Y-69348003D01*
X96143739Y-69367768D01*
X95532780Y-69367768D01*
X95532780Y-69182054D01*
X95530859Y-69162545D01*
X95515927Y-69126497D01*
X95488337Y-69098907D01*
X95452289Y-69083975D01*
X95413271Y-69083975D01*
X95377223Y-69098907D01*
X95349633Y-69126497D01*
X95334701Y-69162545D01*
X95332780Y-69182054D01*
X95221669Y-69182054D01*
X95221669Y-68803269D01*
X95332803Y-68803269D01*
X95341243Y-68841363D01*
X95363618Y-68873328D01*
X95396523Y-68894297D01*
X95434948Y-68901078D01*
X95473042Y-68892638D01*
X95490126Y-68883024D01*
X95818651Y-68653056D01*
X95819528Y-68655346D01*
X95867147Y-68750584D01*
X95872432Y-68758980D01*
X95873443Y-68761420D01*
X95875696Y-68764166D01*
X95877590Y-68767174D01*
X95879584Y-68768903D01*
X95885879Y-68776574D01*
X95933498Y-68824192D01*
X95941164Y-68830484D01*
X95942897Y-68832482D01*
X95945905Y-68834375D01*
X95948651Y-68836629D01*
X95951091Y-68837639D01*
X95959488Y-68842925D01*
X96054725Y-68890544D01*
X96073034Y-68897550D01*
X96076617Y-68897804D01*
X96079938Y-68899180D01*
X96099447Y-68901101D01*
X96242304Y-68901101D01*
X96261813Y-68899180D01*
X96265133Y-68897804D01*
X96268717Y-68897550D01*
X96287025Y-68890544D01*
X96382263Y-68842925D01*
X96390659Y-68837639D01*
X96393099Y-68836629D01*
X96395845Y-68834375D01*
X96398853Y-68832482D01*
X96400582Y-68830487D01*
X96408253Y-68824193D01*
X96455871Y-68776574D01*
X96462163Y-68768907D01*
X96464161Y-68767175D01*
X96466054Y-68764166D01*
X96468308Y-68761421D01*
X96469318Y-68758980D01*
X96474604Y-68750584D01*
X96522223Y-68655347D01*
X96529229Y-68637038D01*
X96529483Y-68633454D01*
X96530859Y-68630134D01*
X96532780Y-68610625D01*
X96532780Y-68229673D01*
X96530859Y-68210164D01*
X96515927Y-68174116D01*
X96488337Y-68146526D01*
X96452289Y-68131594D01*
X96432780Y-68129673D01*
X95432780Y-68129673D01*
X95413271Y-68131594D01*
X95377223Y-68146526D01*
X95349633Y-68174116D01*
X95334701Y-68210164D01*
X95334701Y-68249182D01*
X95349633Y-68285230D01*
X95377223Y-68312820D01*
X95413271Y-68327752D01*
X95432780Y-68329673D01*
X95808971Y-68329673D01*
X95808971Y-68415702D01*
X95375434Y-68719178D01*
X95360553Y-68731939D01*
X95339584Y-68764844D01*
X95332803Y-68803269D01*
X95221669Y-68803269D01*
X95221669Y-68018562D01*
X96643891Y-68018562D01*
X96643891Y-69962672D01*
G37*
G36*
X159288935Y-88336322D02*
G01*
X159313604Y-88360990D01*
X159343409Y-88420600D01*
X159343409Y-88630326D01*
X159067219Y-88630326D01*
X159067219Y-88420600D01*
X159097024Y-88360990D01*
X159121692Y-88336321D01*
X159181302Y-88306517D01*
X159229326Y-88306517D01*
X159288935Y-88336322D01*
G37*
G36*
X159812746Y-88288704D02*
G01*
X159837414Y-88313371D01*
X159867219Y-88372981D01*
X159867219Y-88630326D01*
X159543409Y-88630326D01*
X159543409Y-88413220D01*
X159578430Y-88308154D01*
X159597882Y-88288702D01*
X159657492Y-88258898D01*
X159753135Y-88258898D01*
X159812746Y-88288704D01*
G37*
G36*
X159773236Y-87249194D02*
G01*
X159837414Y-87313371D01*
X159867219Y-87372981D01*
X159867219Y-87516243D01*
X159837414Y-87575852D01*
X159773236Y-87640029D01*
X159621575Y-87677945D01*
X159312861Y-87677945D01*
X159161202Y-87640030D01*
X159097023Y-87575851D01*
X159067219Y-87516242D01*
X159067219Y-87372981D01*
X159097023Y-87313372D01*
X159161202Y-87249193D01*
X159312861Y-87211279D01*
X159621575Y-87211279D01*
X159773236Y-87249194D01*
G37*
G36*
X159773236Y-86201575D02*
G01*
X159837414Y-86265752D01*
X159867219Y-86325362D01*
X159867219Y-86468624D01*
X159837414Y-86528233D01*
X159773236Y-86592410D01*
X159621575Y-86630326D01*
X159312861Y-86630326D01*
X159161202Y-86592411D01*
X159097023Y-86528232D01*
X159067219Y-86468623D01*
X159067219Y-86325362D01*
X159097023Y-86265753D01*
X159161202Y-86201574D01*
X159312861Y-86163660D01*
X159621575Y-86163660D01*
X159773236Y-86201575D01*
G37*
G36*
X160178330Y-88941437D02*
G01*
X158756108Y-88941437D01*
X158756108Y-88396993D01*
X158867219Y-88396993D01*
X158867219Y-88730326D01*
X158869140Y-88749835D01*
X158884072Y-88785883D01*
X158911662Y-88813473D01*
X158947710Y-88828405D01*
X158967219Y-88830326D01*
X159967219Y-88830326D01*
X159986728Y-88828405D01*
X160022776Y-88813473D01*
X160050366Y-88785883D01*
X160065298Y-88749835D01*
X160067219Y-88730326D01*
X160067219Y-88349374D01*
X160065298Y-88329865D01*
X160063922Y-88326544D01*
X160063668Y-88322961D01*
X160056662Y-88304652D01*
X160009043Y-88209415D01*
X160003757Y-88201018D01*
X160002747Y-88198578D01*
X160000493Y-88195832D01*
X159998600Y-88192824D01*
X159996603Y-88191092D01*
X159990310Y-88183424D01*
X159942690Y-88135806D01*
X159935020Y-88129511D01*
X159933291Y-88127517D01*
X159930286Y-88125625D01*
X159927537Y-88123369D01*
X159925093Y-88122357D01*
X159916701Y-88117074D01*
X159821463Y-88069455D01*
X159803155Y-88062449D01*
X159799571Y-88062194D01*
X159796251Y-88060819D01*
X159776742Y-88058898D01*
X159633885Y-88058898D01*
X159614376Y-88060819D01*
X159611055Y-88062194D01*
X159607472Y-88062449D01*
X159589163Y-88069455D01*
X159493926Y-88117074D01*
X159485529Y-88122359D01*
X159483089Y-88123370D01*
X159480343Y-88125623D01*
X159477335Y-88127517D01*
X159475602Y-88129514D01*
X159467936Y-88135807D01*
X159420317Y-88183425D01*
X159419670Y-88184213D01*
X159418882Y-88183425D01*
X159411211Y-88177130D01*
X159409482Y-88175136D01*
X159406474Y-88173242D01*
X159403728Y-88170989D01*
X159401288Y-88169978D01*
X159392892Y-88164693D01*
X159297654Y-88117074D01*
X159279346Y-88110068D01*
X159275762Y-88109813D01*
X159272442Y-88108438D01*
X159252933Y-88106517D01*
X159157695Y-88106517D01*
X159138186Y-88108438D01*
X159134865Y-88109813D01*
X159131282Y-88110068D01*
X159112973Y-88117074D01*
X159017736Y-88164693D01*
X159009339Y-88169978D01*
X159006899Y-88170989D01*
X159004153Y-88173242D01*
X159001145Y-88175136D01*
X158999412Y-88177133D01*
X158991746Y-88183426D01*
X158944127Y-88231044D01*
X158937832Y-88238714D01*
X158935838Y-88240444D01*
X158933944Y-88243451D01*
X158931691Y-88246198D01*
X158930680Y-88248637D01*
X158925395Y-88257034D01*
X158877776Y-88352272D01*
X158870770Y-88370580D01*
X158870515Y-88374163D01*
X158869140Y-88377484D01*
X158867219Y-88396993D01*
X158756108Y-88396993D01*
X158756108Y-87349374D01*
X158867219Y-87349374D01*
X158867219Y-87539850D01*
X158869140Y-87559359D01*
X158870515Y-87562679D01*
X158870770Y-87566263D01*
X158877776Y-87584571D01*
X158925395Y-87679809D01*
X158930680Y-87688205D01*
X158931691Y-87690645D01*
X158933944Y-87693391D01*
X158935838Y-87696399D01*
X158937832Y-87698128D01*
X158944127Y-87705799D01*
X159039365Y-87801037D01*
X159054519Y-87813473D01*
X159061387Y-87816318D01*
X159067362Y-87820745D01*
X159085822Y-87827340D01*
X159276298Y-87874959D01*
X159279679Y-87875459D01*
X159281043Y-87876024D01*
X159288393Y-87876747D01*
X159295691Y-87877827D01*
X159297149Y-87877609D01*
X159300552Y-87877945D01*
X159633885Y-87877945D01*
X159637287Y-87877609D01*
X159638746Y-87877827D01*
X159646043Y-87876747D01*
X159653394Y-87876024D01*
X159654757Y-87875459D01*
X159658139Y-87874959D01*
X159848614Y-87827340D01*
X159867075Y-87820745D01*
X159873047Y-87816319D01*
X159879918Y-87813474D01*
X159895071Y-87801037D01*
X159990311Y-87705799D01*
X159996604Y-87698130D01*
X159998600Y-87696400D01*
X160000493Y-87693392D01*
X160002747Y-87690646D01*
X160003757Y-87688205D01*
X160009043Y-87679809D01*
X160056662Y-87584572D01*
X160063668Y-87566263D01*
X160063922Y-87562679D01*
X160065298Y-87559359D01*
X160067219Y-87539850D01*
X160067219Y-87349374D01*
X160065298Y-87329865D01*
X160063922Y-87326544D01*
X160063668Y-87322961D01*
X160056662Y-87304652D01*
X160009043Y-87209415D01*
X160003757Y-87201018D01*
X160002747Y-87198578D01*
X160000493Y-87195831D01*
X159998600Y-87192824D01*
X159996604Y-87191093D01*
X159990311Y-87183425D01*
X159895071Y-87088187D01*
X159879918Y-87075750D01*
X159873047Y-87072904D01*
X159867075Y-87068479D01*
X159848614Y-87061884D01*
X159658139Y-87014265D01*
X159654757Y-87013764D01*
X159653394Y-87013200D01*
X159646043Y-87012476D01*
X159638746Y-87011397D01*
X159637287Y-87011614D01*
X159633885Y-87011279D01*
X159300552Y-87011279D01*
X159297149Y-87011614D01*
X159295691Y-87011397D01*
X159288393Y-87012476D01*
X159281043Y-87013200D01*
X159279679Y-87013764D01*
X159276298Y-87014265D01*
X159085822Y-87061884D01*
X159067362Y-87068479D01*
X159061387Y-87072905D01*
X159054519Y-87075751D01*
X159039365Y-87088187D01*
X158944127Y-87183425D01*
X158937832Y-87191095D01*
X158935838Y-87192825D01*
X158933944Y-87195832D01*
X158931691Y-87198579D01*
X158930680Y-87201018D01*
X158925395Y-87209415D01*
X158877776Y-87304653D01*
X158870770Y-87322961D01*
X158870515Y-87326544D01*
X158869140Y-87329865D01*
X158867219Y-87349374D01*
X158756108Y-87349374D01*
X158756108Y-86301755D01*
X158867219Y-86301755D01*
X158867219Y-86492231D01*
X158869140Y-86511740D01*
X158870515Y-86515060D01*
X158870770Y-86518644D01*
X158877776Y-86536952D01*
X158925395Y-86632190D01*
X158930680Y-86640586D01*
X158931691Y-86643026D01*
X158933944Y-86645772D01*
X158935838Y-86648780D01*
X158937832Y-86650509D01*
X158944127Y-86658180D01*
X159039365Y-86753418D01*
X159054519Y-86765854D01*
X159061387Y-86768699D01*
X159067362Y-86773126D01*
X159085822Y-86779721D01*
X159276298Y-86827340D01*
X159279679Y-86827840D01*
X159281043Y-86828405D01*
X159288393Y-86829128D01*
X159295691Y-86830208D01*
X159297149Y-86829990D01*
X159300552Y-86830326D01*
X159633885Y-86830326D01*
X159637287Y-86829990D01*
X159638746Y-86830208D01*
X159646043Y-86829128D01*
X159653394Y-86828405D01*
X159654757Y-86827840D01*
X159658139Y-86827340D01*
X159848614Y-86779721D01*
X159867075Y-86773126D01*
X159873047Y-86768700D01*
X159879918Y-86765855D01*
X159895071Y-86753418D01*
X159990311Y-86658180D01*
X159996604Y-86650511D01*
X159998600Y-86648781D01*
X160000493Y-86645773D01*
X160002747Y-86643027D01*
X160003757Y-86640586D01*
X160009043Y-86632190D01*
X160056662Y-86536953D01*
X160063668Y-86518644D01*
X160063922Y-86515060D01*
X160065298Y-86511740D01*
X160067219Y-86492231D01*
X160067219Y-86301755D01*
X160065298Y-86282246D01*
X160063922Y-86278925D01*
X160063668Y-86275342D01*
X160056662Y-86257033D01*
X160009043Y-86161796D01*
X160003757Y-86153399D01*
X160002747Y-86150959D01*
X160000493Y-86148212D01*
X159998600Y-86145205D01*
X159996604Y-86143474D01*
X159990311Y-86135806D01*
X159895071Y-86040568D01*
X159879918Y-86028131D01*
X159873047Y-86025285D01*
X159867075Y-86020860D01*
X159848614Y-86014265D01*
X159658139Y-85966646D01*
X159654757Y-85966145D01*
X159653394Y-85965581D01*
X159646043Y-85964857D01*
X159638746Y-85963778D01*
X159637287Y-85963995D01*
X159633885Y-85963660D01*
X159300552Y-85963660D01*
X159297149Y-85963995D01*
X159295691Y-85963778D01*
X159288393Y-85964857D01*
X159281043Y-85965581D01*
X159279679Y-85966145D01*
X159276298Y-85966646D01*
X159085822Y-86014265D01*
X159067362Y-86020860D01*
X159061387Y-86025286D01*
X159054519Y-86028132D01*
X159039365Y-86040568D01*
X158944127Y-86135806D01*
X158937832Y-86143476D01*
X158935838Y-86145206D01*
X158933944Y-86148213D01*
X158931691Y-86150960D01*
X158930680Y-86153399D01*
X158925395Y-86161796D01*
X158877776Y-86257034D01*
X158870770Y-86275342D01*
X158870515Y-86278925D01*
X158869140Y-86282246D01*
X158867219Y-86301755D01*
X158756108Y-86301755D01*
X158756108Y-85206517D01*
X158867219Y-85206517D01*
X158867219Y-85777945D01*
X158869140Y-85797454D01*
X158884072Y-85833502D01*
X158911662Y-85861092D01*
X158947710Y-85876024D01*
X158986728Y-85876024D01*
X159022776Y-85861092D01*
X159050366Y-85833502D01*
X159065298Y-85797454D01*
X159067219Y-85777945D01*
X159067219Y-85592231D01*
X159967219Y-85592231D01*
X159986728Y-85590310D01*
X160022776Y-85575378D01*
X160050366Y-85547788D01*
X160065298Y-85511740D01*
X160065298Y-85472722D01*
X160050366Y-85436674D01*
X160022776Y-85409084D01*
X159986728Y-85394152D01*
X159967219Y-85392231D01*
X159067219Y-85392231D01*
X159067219Y-85206517D01*
X159065298Y-85187008D01*
X159050366Y-85150960D01*
X159022776Y-85123370D01*
X158986728Y-85108438D01*
X158947710Y-85108438D01*
X158911662Y-85123370D01*
X158884072Y-85150960D01*
X158869140Y-85187008D01*
X158867219Y-85206517D01*
X158756108Y-85206517D01*
X158756108Y-84997327D01*
X160178330Y-84997327D01*
X160178330Y-88941437D01*
G37*
G36*
X143704259Y-85975281D02*
G01*
X136873181Y-85975281D01*
X136873181Y-85316424D01*
X136995403Y-85316424D01*
X136995403Y-85355442D01*
X137010335Y-85391490D01*
X137037925Y-85419080D01*
X137073973Y-85434012D01*
X137093482Y-85435933D01*
X137412530Y-85435933D01*
X137412530Y-85754980D01*
X137414451Y-85774489D01*
X137429383Y-85810537D01*
X137456973Y-85838127D01*
X137493021Y-85853059D01*
X137532039Y-85853059D01*
X137568087Y-85838127D01*
X137595677Y-85810537D01*
X137610609Y-85774489D01*
X137612530Y-85754980D01*
X137612530Y-85435933D01*
X137931578Y-85435933D01*
X137951087Y-85434012D01*
X137987135Y-85419080D01*
X138014725Y-85391490D01*
X138029657Y-85355442D01*
X138029657Y-85316424D01*
X142547783Y-85316424D01*
X142547783Y-85355442D01*
X142562715Y-85391490D01*
X142590305Y-85419080D01*
X142626353Y-85434012D01*
X142645862Y-85435933D01*
X143483958Y-85435933D01*
X143503467Y-85434012D01*
X143539515Y-85419080D01*
X143567105Y-85391490D01*
X143582037Y-85355442D01*
X143582037Y-85316424D01*
X143567105Y-85280376D01*
X143539515Y-85252786D01*
X143503467Y-85237854D01*
X143483958Y-85235933D01*
X142645862Y-85235933D01*
X142626353Y-85237854D01*
X142590305Y-85252786D01*
X142562715Y-85280376D01*
X142547783Y-85316424D01*
X138029657Y-85316424D01*
X138014725Y-85280376D01*
X137987135Y-85252786D01*
X137951087Y-85237854D01*
X137931578Y-85235933D01*
X137612530Y-85235933D01*
X137612530Y-84916885D01*
X137610609Y-84897376D01*
X137595677Y-84861328D01*
X137568087Y-84833738D01*
X137532039Y-84818806D01*
X137493021Y-84818806D01*
X137456973Y-84833738D01*
X137429383Y-84861328D01*
X137414451Y-84897376D01*
X137412530Y-84916885D01*
X137412530Y-85235933D01*
X137093482Y-85235933D01*
X137073973Y-85237854D01*
X137037925Y-85252786D01*
X137010335Y-85280376D01*
X136995403Y-85316424D01*
X136873181Y-85316424D01*
X136873181Y-84696584D01*
X143704259Y-84696584D01*
X143704259Y-85975281D01*
G37*
X142226816Y-56667219D02*
X142798244Y-56667219D01*
X142512530Y-57667219D02*
X142512530Y-56667219D01*
X145226816Y-57667219D02*
X144893483Y-57191028D01*
X144655388Y-57667219D02*
X144655388Y-56667219D01*
X144655388Y-56667219D02*
X145036340Y-56667219D01*
X145036340Y-56667219D02*
X145131578Y-56714838D01*
X145131578Y-56714838D02*
X145179197Y-56762457D01*
X145179197Y-56762457D02*
X145226816Y-56857695D01*
X145226816Y-56857695D02*
X145226816Y-57000552D01*
X145226816Y-57000552D02*
X145179197Y-57095790D01*
X145179197Y-57095790D02*
X145131578Y-57143409D01*
X145131578Y-57143409D02*
X145036340Y-57191028D01*
X145036340Y-57191028D02*
X144655388Y-57191028D01*
X147703007Y-56714838D02*
X147607769Y-56667219D01*
X147607769Y-56667219D02*
X147464912Y-56667219D01*
X147464912Y-56667219D02*
X147322055Y-56714838D01*
X147322055Y-56714838D02*
X147226817Y-56810076D01*
X147226817Y-56810076D02*
X147179198Y-56905314D01*
X147179198Y-56905314D02*
X147131579Y-57095790D01*
X147131579Y-57095790D02*
X147131579Y-57238647D01*
X147131579Y-57238647D02*
X147179198Y-57429123D01*
X147179198Y-57429123D02*
X147226817Y-57524361D01*
X147226817Y-57524361D02*
X147322055Y-57619600D01*
X147322055Y-57619600D02*
X147464912Y-57667219D01*
X147464912Y-57667219D02*
X147560150Y-57667219D01*
X147560150Y-57667219D02*
X147703007Y-57619600D01*
X147703007Y-57619600D02*
X147750626Y-57571980D01*
X147750626Y-57571980D02*
X147750626Y-57238647D01*
X147750626Y-57238647D02*
X147560150Y-57238647D01*
G36*
X76953835Y-83526481D02*
G01*
X73923590Y-83526481D01*
X73923590Y-82869211D01*
X74034701Y-82869211D01*
X74034701Y-82908229D01*
X74049633Y-82944277D01*
X74077223Y-82971867D01*
X74113271Y-82986799D01*
X74132780Y-82988720D01*
X74413733Y-82988720D01*
X74413733Y-83269673D01*
X74415654Y-83289182D01*
X74430586Y-83325230D01*
X74458176Y-83352820D01*
X74494224Y-83367752D01*
X74533242Y-83367752D01*
X74569290Y-83352820D01*
X74596880Y-83325230D01*
X74611812Y-83289182D01*
X74613733Y-83269673D01*
X74613733Y-82988720D01*
X74894685Y-82988720D01*
X74914194Y-82986799D01*
X74950242Y-82971867D01*
X74977832Y-82944277D01*
X74992764Y-82908229D01*
X74992764Y-82869211D01*
X74977832Y-82833163D01*
X74950242Y-82805573D01*
X74914194Y-82790641D01*
X74894685Y-82788720D01*
X74613733Y-82788720D01*
X74613733Y-82745863D01*
X75642724Y-82745863D01*
X75642724Y-83317291D01*
X75644645Y-83336800D01*
X75659577Y-83372848D01*
X75687167Y-83400438D01*
X75723215Y-83415370D01*
X75762233Y-83415370D01*
X75798281Y-83400438D01*
X75825871Y-83372848D01*
X75840803Y-83336800D01*
X75842724Y-83317291D01*
X75842724Y-83131577D01*
X76742724Y-83131577D01*
X76742794Y-83131570D01*
X76742829Y-83131577D01*
X76742930Y-83131556D01*
X76762233Y-83129656D01*
X76771381Y-83125866D01*
X76781089Y-83123925D01*
X76789229Y-83118473D01*
X76798281Y-83114724D01*
X76805280Y-83107724D01*
X76813509Y-83102214D01*
X76818945Y-83094059D01*
X76825871Y-83087134D01*
X76829658Y-83077990D01*
X76835153Y-83069749D01*
X76837054Y-83060135D01*
X76840803Y-83051086D01*
X76840803Y-83041184D01*
X76842724Y-83031473D01*
X76840803Y-83021867D01*
X76840803Y-83012068D01*
X76837013Y-83002919D01*
X76835072Y-82993212D01*
X76829620Y-82985071D01*
X76825871Y-82976020D01*
X76818871Y-82969020D01*
X76813361Y-82960792D01*
X76798354Y-82948503D01*
X76798281Y-82948430D01*
X76798248Y-82948416D01*
X76798194Y-82948372D01*
X76663578Y-82858628D01*
X76586814Y-82781864D01*
X76546453Y-82701142D01*
X76536010Y-82684551D01*
X76506533Y-82658987D01*
X76469517Y-82646648D01*
X76430597Y-82649414D01*
X76395698Y-82666863D01*
X76370134Y-82696340D01*
X76357795Y-82733356D01*
X76360561Y-82772276D01*
X76367567Y-82790584D01*
X76415186Y-82885822D01*
X76420471Y-82894218D01*
X76421482Y-82896658D01*
X76423735Y-82899404D01*
X76425629Y-82902412D01*
X76427623Y-82904141D01*
X76433918Y-82911812D01*
X76453683Y-82931577D01*
X75842724Y-82931577D01*
X75842724Y-82745863D01*
X75840803Y-82726354D01*
X75825871Y-82690306D01*
X75798281Y-82662716D01*
X75762233Y-82647784D01*
X75723215Y-82647784D01*
X75687167Y-82662716D01*
X75659577Y-82690306D01*
X75644645Y-82726354D01*
X75642724Y-82745863D01*
X74613733Y-82745863D01*
X74613733Y-82507768D01*
X74611812Y-82488259D01*
X74596880Y-82452211D01*
X74569290Y-82424621D01*
X74533242Y-82409689D01*
X74494224Y-82409689D01*
X74458176Y-82424621D01*
X74430586Y-82452211D01*
X74415654Y-82488259D01*
X74413733Y-82507768D01*
X74413733Y-82788720D01*
X74132780Y-82788720D01*
X74113271Y-82790641D01*
X74077223Y-82805573D01*
X74049633Y-82833163D01*
X74034701Y-82869211D01*
X73923590Y-82869211D01*
X73923590Y-82310306D01*
X75642968Y-82310306D01*
X75644645Y-82323499D01*
X75644645Y-82336800D01*
X75647084Y-82342688D01*
X75647888Y-82349013D01*
X75654488Y-82360562D01*
X75659577Y-82372848D01*
X75664084Y-82377355D01*
X75667247Y-82382890D01*
X75677761Y-82391032D01*
X75687167Y-82400438D01*
X75693057Y-82402877D01*
X75698096Y-82406780D01*
X75710924Y-82410278D01*
X75723215Y-82415370D01*
X75733192Y-82416352D01*
X75735739Y-82417047D01*
X75737706Y-82416796D01*
X75742724Y-82417291D01*
X76742724Y-82417291D01*
X76762233Y-82415370D01*
X76798281Y-82400438D01*
X76825871Y-82372848D01*
X76840803Y-82336800D01*
X76840803Y-82297782D01*
X76825871Y-82261734D01*
X76798281Y-82234144D01*
X76762233Y-82219212D01*
X76742724Y-82217291D01*
X76119280Y-82217291D01*
X76792338Y-81832687D01*
X76796448Y-81829768D01*
X76798281Y-81829010D01*
X76800147Y-81827143D01*
X76808323Y-81821340D01*
X76816467Y-81810823D01*
X76825871Y-81801420D01*
X76828309Y-81795532D01*
X76832214Y-81790491D01*
X76835713Y-81777658D01*
X76840803Y-81765372D01*
X76840803Y-81758996D01*
X76842480Y-81752847D01*
X76840803Y-81739653D01*
X76840803Y-81726354D01*
X76838363Y-81720465D01*
X76837560Y-81714141D01*
X76830959Y-81702591D01*
X76825871Y-81690306D01*
X76821363Y-81685798D01*
X76818201Y-81680264D01*
X76807684Y-81672119D01*
X76798281Y-81662716D01*
X76792393Y-81660277D01*
X76787352Y-81656373D01*
X76774519Y-81652873D01*
X76762233Y-81647784D01*
X76752255Y-81646801D01*
X76749709Y-81646107D01*
X76747741Y-81646357D01*
X76742724Y-81645863D01*
X75742724Y-81645863D01*
X75723215Y-81647784D01*
X75687167Y-81662716D01*
X75659577Y-81690306D01*
X75644645Y-81726354D01*
X75644645Y-81765372D01*
X75659577Y-81801420D01*
X75687167Y-81829010D01*
X75723215Y-81843942D01*
X75742724Y-81845863D01*
X76366168Y-81845863D01*
X75693110Y-82230467D01*
X75688999Y-82233385D01*
X75687167Y-82234144D01*
X75685300Y-82236010D01*
X75677125Y-82241814D01*
X75668982Y-82252328D01*
X75659577Y-82261734D01*
X75657137Y-82267624D01*
X75653235Y-82272663D01*
X75649736Y-82285491D01*
X75644645Y-82297782D01*
X75644645Y-82304157D01*
X75642968Y-82310306D01*
X73923590Y-82310306D01*
X73923590Y-81269673D01*
X74413733Y-81269673D01*
X74413733Y-82031578D01*
X74415654Y-82051087D01*
X74430586Y-82087135D01*
X74458176Y-82114725D01*
X74494224Y-82129657D01*
X74533242Y-82129657D01*
X74569290Y-82114725D01*
X74596880Y-82087135D01*
X74611812Y-82051087D01*
X74613733Y-82031578D01*
X74613733Y-81269673D01*
X74611812Y-81250164D01*
X75644645Y-81250164D01*
X75644645Y-81289182D01*
X75659577Y-81325230D01*
X75687167Y-81352820D01*
X75723215Y-81367752D01*
X75742724Y-81369673D01*
X76742724Y-81369673D01*
X76762233Y-81367752D01*
X76798281Y-81352820D01*
X76825871Y-81325230D01*
X76840803Y-81289182D01*
X76840803Y-81250164D01*
X76825871Y-81214116D01*
X76798281Y-81186526D01*
X76762233Y-81171594D01*
X76742724Y-81169673D01*
X75742724Y-81169673D01*
X75723215Y-81171594D01*
X75687167Y-81186526D01*
X75659577Y-81214116D01*
X75644645Y-81250164D01*
X74611812Y-81250164D01*
X74596880Y-81214116D01*
X74569290Y-81186526D01*
X74533242Y-81171594D01*
X74494224Y-81171594D01*
X74458176Y-81186526D01*
X74430586Y-81214116D01*
X74415654Y-81250164D01*
X74413733Y-81269673D01*
X73923590Y-81269673D01*
X73923590Y-81058562D01*
X76953835Y-81058562D01*
X76953835Y-83526481D01*
G37*
D10*
X130103104Y-50356265D02*
X130903104Y-50356265D01*
X130903104Y-50356265D02*
X130903104Y-50661027D01*
X130903104Y-50661027D02*
X130865009Y-50737217D01*
X130865009Y-50737217D02*
X130826914Y-50775312D01*
X130826914Y-50775312D02*
X130750723Y-50813408D01*
X130750723Y-50813408D02*
X130636438Y-50813408D01*
X130636438Y-50813408D02*
X130560247Y-50775312D01*
X130560247Y-50775312D02*
X130522152Y-50737217D01*
X130522152Y-50737217D02*
X130484057Y-50661027D01*
X130484057Y-50661027D02*
X130484057Y-50356265D01*
X130103104Y-51537217D02*
X130103104Y-51156265D01*
X130103104Y-51156265D02*
X130903104Y-51156265D01*
X130522152Y-51803884D02*
X130522152Y-52070550D01*
X130103104Y-52184836D02*
X130103104Y-51803884D01*
X130103104Y-51803884D02*
X130903104Y-51803884D01*
X130903104Y-51803884D02*
X130903104Y-52184836D01*
X130103104Y-52527694D02*
X130903104Y-52527694D01*
X130903104Y-52527694D02*
X130903104Y-52718170D01*
X130903104Y-52718170D02*
X130865009Y-52832456D01*
X130865009Y-52832456D02*
X130788819Y-52908646D01*
X130788819Y-52908646D02*
X130712628Y-52946741D01*
X130712628Y-52946741D02*
X130560247Y-52984837D01*
X130560247Y-52984837D02*
X130445961Y-52984837D01*
X130445961Y-52984837D02*
X130293580Y-52946741D01*
X130293580Y-52946741D02*
X130217390Y-52908646D01*
X130217390Y-52908646D02*
X130141200Y-52832456D01*
X130141200Y-52832456D02*
X130103104Y-52718170D01*
X130103104Y-52718170D02*
X130103104Y-52527694D01*
X111676265Y-49516895D02*
X111676265Y-50164514D01*
X111676265Y-50164514D02*
X111714360Y-50240704D01*
X111714360Y-50240704D02*
X111752455Y-50278800D01*
X111752455Y-50278800D02*
X111828646Y-50316895D01*
X111828646Y-50316895D02*
X111981027Y-50316895D01*
X111981027Y-50316895D02*
X112057217Y-50278800D01*
X112057217Y-50278800D02*
X112095312Y-50240704D01*
X112095312Y-50240704D02*
X112133408Y-50164514D01*
X112133408Y-50164514D02*
X112133408Y-49516895D01*
X112933407Y-50316895D02*
X112476264Y-50316895D01*
X112704836Y-50316895D02*
X112704836Y-49516895D01*
X112704836Y-49516895D02*
X112628645Y-49631180D01*
X112628645Y-49631180D02*
X112552455Y-49707371D01*
X112552455Y-49707371D02*
X112476264Y-49745466D01*
X91208646Y-49596895D02*
X91361027Y-49596895D01*
X91361027Y-49596895D02*
X91437217Y-49634990D01*
X91437217Y-49634990D02*
X91513408Y-49711180D01*
X91513408Y-49711180D02*
X91551503Y-49863561D01*
X91551503Y-49863561D02*
X91551503Y-50130228D01*
X91551503Y-50130228D02*
X91513408Y-50282609D01*
X91513408Y-50282609D02*
X91437217Y-50358800D01*
X91437217Y-50358800D02*
X91361027Y-50396895D01*
X91361027Y-50396895D02*
X91208646Y-50396895D01*
X91208646Y-50396895D02*
X91132455Y-50358800D01*
X91132455Y-50358800D02*
X91056265Y-50282609D01*
X91056265Y-50282609D02*
X91018169Y-50130228D01*
X91018169Y-50130228D02*
X91018169Y-49863561D01*
X91018169Y-49863561D02*
X91056265Y-49711180D01*
X91056265Y-49711180D02*
X91132455Y-49634990D01*
X91132455Y-49634990D02*
X91208646Y-49596895D01*
X91894360Y-49596895D02*
X91894360Y-50244514D01*
X91894360Y-50244514D02*
X91932455Y-50320704D01*
X91932455Y-50320704D02*
X91970550Y-50358800D01*
X91970550Y-50358800D02*
X92046741Y-50396895D01*
X92046741Y-50396895D02*
X92199122Y-50396895D01*
X92199122Y-50396895D02*
X92275312Y-50358800D01*
X92275312Y-50358800D02*
X92313407Y-50320704D01*
X92313407Y-50320704D02*
X92351503Y-50244514D01*
X92351503Y-50244514D02*
X92351503Y-49596895D01*
X92618169Y-49596895D02*
X93075312Y-49596895D01*
X92846740Y-50396895D02*
X92846740Y-49596895D01*
X93494360Y-49596895D02*
X93570550Y-49596895D01*
X93570550Y-49596895D02*
X93646741Y-49634990D01*
X93646741Y-49634990D02*
X93684836Y-49673085D01*
X93684836Y-49673085D02*
X93722931Y-49749276D01*
X93722931Y-49749276D02*
X93761026Y-49901657D01*
X93761026Y-49901657D02*
X93761026Y-50092133D01*
X93761026Y-50092133D02*
X93722931Y-50244514D01*
X93722931Y-50244514D02*
X93684836Y-50320704D01*
X93684836Y-50320704D02*
X93646741Y-50358800D01*
X93646741Y-50358800D02*
X93570550Y-50396895D01*
X93570550Y-50396895D02*
X93494360Y-50396895D01*
X93494360Y-50396895D02*
X93418169Y-50358800D01*
X93418169Y-50358800D02*
X93380074Y-50320704D01*
X93380074Y-50320704D02*
X93341979Y-50244514D01*
X93341979Y-50244514D02*
X93303883Y-50092133D01*
X93303883Y-50092133D02*
X93303883Y-49901657D01*
X93303883Y-49901657D02*
X93341979Y-49749276D01*
X93341979Y-49749276D02*
X93380074Y-49673085D01*
X93380074Y-49673085D02*
X93418169Y-49634990D01*
X93418169Y-49634990D02*
X93494360Y-49596895D01*
D11*
G36*
X119360683Y-67976000D02*
G01*
X118900579Y-67976000D01*
X118900579Y-67175665D01*
X119360683Y-67175665D01*
X119360683Y-67314492D01*
X119069986Y-67314492D01*
X119069986Y-67491422D01*
X119340460Y-67491422D01*
X119340460Y-67630249D01*
X119069986Y-67630249D01*
X119069986Y-67836097D01*
X119360683Y-67836097D01*
X119360683Y-67976000D01*
G37*
G36*
X120236196Y-67976000D02*
G01*
X120020872Y-67976000D01*
X119673314Y-67370570D01*
X119668381Y-67370570D01*
X119676654Y-67519502D01*
X119678736Y-67599377D01*
X119678736Y-67976000D01*
X119527404Y-67976000D01*
X119527404Y-67175665D01*
X119741067Y-67175665D01*
X120088087Y-67775085D01*
X120091898Y-67775085D01*
X120083691Y-67554485D01*
X120083691Y-67175665D01*
X120236196Y-67175665D01*
X120236196Y-67976000D01*
G37*
G36*
X120437941Y-67976000D02*
G01*
X120437941Y-67175665D01*
X120607348Y-67175665D01*
X120607348Y-67976000D01*
X120437941Y-67976000D01*
G37*
G36*
X121279993Y-67755546D02*
G01*
X121274839Y-67808224D01*
X121260100Y-67853280D01*
X121236095Y-67892261D01*
X121202128Y-67926174D01*
X121162024Y-67952100D01*
X121113672Y-67971547D01*
X121055461Y-67984029D01*
X120985436Y-67988505D01*
X120901315Y-67982859D01*
X120826367Y-67966609D01*
X120759218Y-67940389D01*
X120759218Y-67782999D01*
X120837603Y-67815134D01*
X120896092Y-67833850D01*
X120951196Y-67845123D01*
X120998576Y-67848602D01*
X121035262Y-67845848D01*
X121063116Y-67838441D01*
X121084061Y-67827256D01*
X121100399Y-67811019D01*
X121110321Y-67790331D01*
X121113859Y-67763752D01*
X121110538Y-67741400D01*
X121100718Y-67721889D01*
X121085305Y-67704575D01*
X121062226Y-67686572D01*
X121029910Y-67667864D01*
X120958667Y-67632399D01*
X120890934Y-67596370D01*
X120848806Y-67566160D01*
X120815825Y-67531719D01*
X120790334Y-67492252D01*
X120774195Y-67447600D01*
X120768499Y-67393725D01*
X120773316Y-67341853D01*
X120787037Y-67297702D01*
X120809229Y-67259762D01*
X120840355Y-67227004D01*
X120877586Y-67201589D01*
X120922106Y-67182669D01*
X120975335Y-67170598D01*
X121039023Y-67166286D01*
X121100332Y-67170031D01*
X121157871Y-67181038D01*
X121214650Y-67198415D01*
X121276182Y-67222559D01*
X121221521Y-67354255D01*
X121159972Y-67330914D01*
X121115764Y-67317667D01*
X121074018Y-67309825D01*
X121033551Y-67307263D01*
X121002249Y-67310093D01*
X120978203Y-67317804D01*
X120959790Y-67329733D01*
X120945550Y-67346145D01*
X120937047Y-67365355D01*
X120934096Y-67388254D01*
X120936771Y-67409568D01*
X120944452Y-67427381D01*
X120957202Y-67443109D01*
X120977522Y-67459719D01*
X121008211Y-67477568D01*
X121084891Y-67515797D01*
X121158095Y-67555488D01*
X121207399Y-67591193D01*
X121238471Y-67623362D01*
X121261176Y-67661210D01*
X121275121Y-67704793D01*
X121279993Y-67755546D01*
G37*
G36*
X122387438Y-67976000D02*
G01*
X122204891Y-67976000D01*
X122146957Y-67786711D01*
X121855722Y-67786711D01*
X121797787Y-67976000D01*
X121615240Y-67976000D01*
X121731553Y-67644611D01*
X121898318Y-67644611D01*
X122106559Y-67644611D01*
X122016092Y-67350445D01*
X122001632Y-67296565D01*
X121898318Y-67644611D01*
X121731553Y-67644611D01*
X121897243Y-67172538D01*
X122104361Y-67172538D01*
X122387438Y-67976000D01*
G37*
G36*
X122959602Y-67755546D02*
G01*
X122954449Y-67808224D01*
X122939709Y-67853280D01*
X122915704Y-67892261D01*
X122881737Y-67926174D01*
X122841633Y-67952100D01*
X122793281Y-67971547D01*
X122735070Y-67984029D01*
X122665045Y-67988505D01*
X122580924Y-67982859D01*
X122505977Y-67966609D01*
X122438827Y-67940389D01*
X122438827Y-67782999D01*
X122517212Y-67815134D01*
X122575701Y-67833850D01*
X122630805Y-67845123D01*
X122678185Y-67848602D01*
X122714872Y-67845848D01*
X122742725Y-67838441D01*
X122763670Y-67827256D01*
X122780008Y-67811019D01*
X122789931Y-67790331D01*
X122793468Y-67763752D01*
X122790147Y-67741400D01*
X122780327Y-67721889D01*
X122764914Y-67704575D01*
X122741835Y-67686572D01*
X122709519Y-67667864D01*
X122638276Y-67632399D01*
X122570543Y-67596370D01*
X122528415Y-67566160D01*
X122495434Y-67531719D01*
X122469944Y-67492252D01*
X122453805Y-67447600D01*
X122448108Y-67393725D01*
X122452925Y-67341853D01*
X122466646Y-67297702D01*
X122488838Y-67259762D01*
X122519965Y-67227004D01*
X122557195Y-67201589D01*
X122601716Y-67182669D01*
X122654944Y-67170598D01*
X122718632Y-67166286D01*
X122779941Y-67170031D01*
X122837480Y-67181038D01*
X122894259Y-67198415D01*
X122955792Y-67222559D01*
X122901130Y-67354255D01*
X122839581Y-67330914D01*
X122795373Y-67317667D01*
X122753627Y-67309825D01*
X122713161Y-67307263D01*
X122681858Y-67310093D01*
X122657812Y-67317804D01*
X122639399Y-67329733D01*
X122625160Y-67346145D01*
X122616656Y-67365355D01*
X122613705Y-67388254D01*
X122616380Y-67409568D01*
X122624061Y-67427381D01*
X122636811Y-67443109D01*
X122657131Y-67459719D01*
X122687820Y-67477568D01*
X122764501Y-67515797D01*
X122837704Y-67555488D01*
X122887008Y-67591193D01*
X122918080Y-67623362D01*
X122940785Y-67661210D01*
X122954731Y-67704793D01*
X122959602Y-67755546D01*
G37*
G36*
X123104682Y-67976000D02*
G01*
X123104682Y-67175665D01*
X123274089Y-67175665D01*
X123274089Y-67836097D01*
X123598150Y-67836097D01*
X123598150Y-67976000D01*
X123104682Y-67976000D01*
G37*
G36*
X124408597Y-67976000D02*
G01*
X124226050Y-67976000D01*
X124168115Y-67786711D01*
X123876880Y-67786711D01*
X123818946Y-67976000D01*
X123636399Y-67976000D01*
X123752711Y-67644611D01*
X123919476Y-67644611D01*
X124127718Y-67644611D01*
X124037250Y-67350445D01*
X124022791Y-67296565D01*
X123919476Y-67644611D01*
X123752711Y-67644611D01*
X123918401Y-67172538D01*
X124125519Y-67172538D01*
X124408597Y-67976000D01*
G37*
G36*
X125217969Y-67976000D02*
G01*
X125002644Y-67976000D01*
X124655087Y-67370570D01*
X124650153Y-67370570D01*
X124658426Y-67519502D01*
X124660509Y-67599377D01*
X124660509Y-67976000D01*
X124509176Y-67976000D01*
X124509176Y-67175665D01*
X124722840Y-67175665D01*
X125069860Y-67775085D01*
X125073670Y-67775085D01*
X125065464Y-67554485D01*
X125065464Y-67175665D01*
X125217969Y-67175665D01*
X125217969Y-67976000D01*
G37*
G36*
X119360683Y-69320000D02*
G01*
X118900579Y-69320000D01*
X118900579Y-68519665D01*
X119360683Y-68519665D01*
X119360683Y-68658492D01*
X119069986Y-68658492D01*
X119069986Y-68835422D01*
X119340460Y-68835422D01*
X119340460Y-68974249D01*
X119069986Y-68974249D01*
X119069986Y-69180097D01*
X119360683Y-69180097D01*
X119360683Y-69320000D01*
G37*
G36*
X120199023Y-69320000D02*
G01*
X120016475Y-69320000D01*
X119958541Y-69130711D01*
X119667306Y-69130711D01*
X119609371Y-69320000D01*
X119426824Y-69320000D01*
X119543137Y-68988611D01*
X119709902Y-68988611D01*
X119918143Y-68988611D01*
X119827676Y-68694445D01*
X119813217Y-68640565D01*
X119709902Y-68988611D01*
X119543137Y-68988611D01*
X119708827Y-68516538D01*
X119915945Y-68516538D01*
X120199023Y-69320000D01*
G37*
G36*
X120572692Y-68511699D02*
G01*
X120619674Y-68524652D01*
X120660497Y-68545524D01*
X120696158Y-68574509D01*
X120727222Y-68612477D01*
X120755845Y-68665617D01*
X120778036Y-68732657D01*
X120792661Y-68816538D01*
X120798004Y-68920662D01*
X120792682Y-69029218D01*
X120778283Y-69114555D01*
X120756754Y-69180828D01*
X120729420Y-69231632D01*
X120699481Y-69267504D01*
X120664304Y-69295196D01*
X120623191Y-69315372D01*
X120574994Y-69328031D01*
X120518199Y-69332505D01*
X120463607Y-69327996D01*
X120416638Y-69315144D01*
X120375928Y-69294467D01*
X120340463Y-69265800D01*
X120309665Y-69228311D01*
X120281347Y-69175738D01*
X120259336Y-69109042D01*
X120244792Y-69025188D01*
X120239469Y-68920662D01*
X120407215Y-68920662D01*
X120410844Y-69020394D01*
X120420036Y-69088338D01*
X120432616Y-69132421D01*
X120448415Y-69161676D01*
X120467567Y-69181036D01*
X120490399Y-69192452D01*
X120518150Y-69196413D01*
X120545322Y-69192458D01*
X120567962Y-69180984D01*
X120587240Y-69161383D01*
X120603440Y-69131591D01*
X120616484Y-69086986D01*
X120625951Y-69019180D01*
X120629672Y-68920662D01*
X120625894Y-68820989D01*
X120616308Y-68752831D01*
X120603147Y-68708367D01*
X120586850Y-68678656D01*
X120567581Y-68659128D01*
X120545061Y-68647715D01*
X120518150Y-68643789D01*
X120490717Y-68647754D01*
X120468018Y-68659223D01*
X120448849Y-68678751D01*
X120432909Y-68708367D01*
X120420167Y-68752798D01*
X120410877Y-68820960D01*
X120407215Y-68920662D01*
X120239469Y-68920662D01*
X120244795Y-68810820D01*
X120259176Y-68724840D01*
X120280618Y-68658407D01*
X120307759Y-68607787D01*
X120337599Y-68571995D01*
X120372653Y-68544370D01*
X120413614Y-68524246D01*
X120461627Y-68511621D01*
X120518199Y-68507159D01*
X120572692Y-68511699D01*
G37*
G36*
X121299923Y-69320000D02*
G01*
X121131053Y-69320000D01*
X121131053Y-68856671D01*
X121132665Y-68780516D01*
X121135401Y-68697278D01*
X121076929Y-68752575D01*
X120985143Y-68826531D01*
X120903712Y-68724877D01*
X121161095Y-68519665D01*
X121299923Y-68519665D01*
X121299923Y-69320000D01*
G37*
G36*
X121509434Y-69087676D02*
G01*
X121509434Y-68951095D01*
X121802916Y-68951095D01*
X121802916Y-69087676D01*
X121509434Y-69087676D01*
G37*
G36*
X122253494Y-68524227D02*
G01*
X122319485Y-68536610D01*
X122371007Y-68555246D01*
X122410788Y-68579162D01*
X122444154Y-68611717D01*
X122468290Y-68651552D01*
X122483503Y-68700187D01*
X122488946Y-68759853D01*
X122484531Y-68805803D01*
X122471605Y-68847447D01*
X122450111Y-68885736D01*
X122421356Y-68919167D01*
X122385119Y-68947922D01*
X122340300Y-68972100D01*
X122575310Y-69320000D01*
X122387292Y-69320000D01*
X122196587Y-69013768D01*
X122106413Y-69013768D01*
X122106413Y-69320000D01*
X121937006Y-69320000D01*
X121937006Y-68876064D01*
X122106413Y-68876064D01*
X122161074Y-68876064D01*
X122214297Y-68872441D01*
X122252627Y-68862950D01*
X122279630Y-68849099D01*
X122300382Y-68828385D01*
X122313222Y-68800856D01*
X122317878Y-68764249D01*
X122313090Y-68728188D01*
X122299985Y-68701847D01*
X122278799Y-68682721D01*
X122251479Y-68670360D01*
X122212353Y-68661784D01*
X122157752Y-68658492D01*
X122106413Y-68658492D01*
X122106413Y-68876064D01*
X121937006Y-68876064D01*
X121937006Y-68519665D01*
X122169818Y-68519665D01*
X122253494Y-68524227D01*
G37*
G36*
X123136482Y-69320000D02*
G01*
X122676378Y-69320000D01*
X122676378Y-68519665D01*
X123136482Y-68519665D01*
X123136482Y-68658492D01*
X122845785Y-68658492D01*
X122845785Y-68835422D01*
X123116259Y-68835422D01*
X123116259Y-68974249D01*
X122845785Y-68974249D01*
X122845785Y-69180097D01*
X123136482Y-69180097D01*
X123136482Y-69320000D01*
G37*
G36*
X123758960Y-68519665D02*
G01*
X123930027Y-68519665D01*
X123658381Y-69320000D01*
X123473684Y-69320000D01*
X123202623Y-68519665D01*
X123373691Y-68519665D01*
X123523949Y-68996085D01*
X123549937Y-69094417D01*
X123566594Y-69172428D01*
X123577593Y-69113007D01*
X123607578Y-68996085D01*
X123758960Y-68519665D01*
G37*
G36*
X123963586Y-69087676D02*
G01*
X123963586Y-68951095D01*
X124257069Y-68951095D01*
X124257069Y-69087676D01*
X123963586Y-69087676D01*
G37*
G36*
X125062777Y-69320000D02*
G01*
X124880230Y-69320000D01*
X124822295Y-69130711D01*
X124531060Y-69130711D01*
X124473126Y-69320000D01*
X124290579Y-69320000D01*
X124406891Y-68988611D01*
X124573656Y-68988611D01*
X124781898Y-68988611D01*
X124691430Y-68694445D01*
X124676971Y-68640565D01*
X124573656Y-68988611D01*
X124406891Y-68988611D01*
X124572581Y-68516538D01*
X124779699Y-68516538D01*
X125062777Y-69320000D01*
G37*
G36*
X119403328Y-70664000D02*
G01*
X118844794Y-70664000D01*
X118844794Y-70546470D01*
X119045366Y-70343993D01*
X119126106Y-70259100D01*
X119161772Y-70217670D01*
X119186124Y-70182371D01*
X119201144Y-70152457D01*
X119210160Y-70121859D01*
X119213161Y-70090224D01*
X119209844Y-70059337D01*
X119200812Y-70036136D01*
X119186636Y-70018759D01*
X119167730Y-70006057D01*
X119144538Y-69998105D01*
X119115903Y-69995263D01*
X119070387Y-70000539D01*
X119025729Y-70016609D01*
X118982471Y-70041470D01*
X118934431Y-70077230D01*
X118842644Y-69968494D01*
X118900119Y-69923067D01*
X118940439Y-69897468D01*
X118980674Y-69879236D01*
X119025143Y-69865521D01*
X119072575Y-69857230D01*
X119127920Y-69854286D01*
X119177206Y-69857499D01*
X119220998Y-69866732D01*
X119260104Y-69881592D01*
X119296053Y-69902605D01*
X119325508Y-69928012D01*
X119349204Y-69958040D01*
X119366671Y-69992012D01*
X119377269Y-70029245D01*
X119380907Y-70070538D01*
X119375991Y-70124299D01*
X119361514Y-70173951D01*
X119337646Y-70221447D01*
X119301381Y-70273016D01*
X119251727Y-70327909D01*
X119157962Y-70417656D01*
X119055233Y-70514279D01*
X119055233Y-70521899D01*
X119403328Y-70521899D01*
X119403328Y-70664000D01*
G37*
G36*
X119812218Y-69855699D02*
G01*
X119859200Y-69868652D01*
X119900022Y-69889524D01*
X119935683Y-69918509D01*
X119966748Y-69956477D01*
X119995371Y-70009617D01*
X120017561Y-70076657D01*
X120032187Y-70160538D01*
X120037529Y-70264662D01*
X120032207Y-70373218D01*
X120017808Y-70458555D01*
X119996279Y-70524828D01*
X119968946Y-70575632D01*
X119939006Y-70611504D01*
X119903829Y-70639196D01*
X119862716Y-70659372D01*
X119814520Y-70672031D01*
X119757725Y-70676505D01*
X119703132Y-70671996D01*
X119656164Y-70659144D01*
X119615453Y-70638467D01*
X119579989Y-70609800D01*
X119549190Y-70572311D01*
X119520873Y-70519738D01*
X119498861Y-70453042D01*
X119484318Y-70369188D01*
X119478995Y-70264662D01*
X119646741Y-70264662D01*
X119650369Y-70364394D01*
X119659561Y-70432338D01*
X119672142Y-70476421D01*
X119687940Y-70505676D01*
X119707092Y-70525036D01*
X119729924Y-70536452D01*
X119757676Y-70540413D01*
X119784847Y-70536458D01*
X119807488Y-70524984D01*
X119826765Y-70505383D01*
X119842965Y-70475591D01*
X119856010Y-70430986D01*
X119865477Y-70363180D01*
X119869197Y-70264662D01*
X119865420Y-70164989D01*
X119855834Y-70096831D01*
X119842672Y-70052367D01*
X119826375Y-70022656D01*
X119807106Y-70003128D01*
X119784587Y-69991715D01*
X119757676Y-69987789D01*
X119730242Y-69991754D01*
X119707544Y-70003223D01*
X119688375Y-70022751D01*
X119672435Y-70052367D01*
X119659692Y-70096798D01*
X119650402Y-70164960D01*
X119646741Y-70264662D01*
X119478995Y-70264662D01*
X119484321Y-70154820D01*
X119498701Y-70068840D01*
X119520144Y-70002407D01*
X119547285Y-69951787D01*
X119577124Y-69915995D01*
X119612178Y-69888370D01*
X119653139Y-69868246D01*
X119701152Y-69855621D01*
X119757725Y-69851159D01*
X119812218Y-69855699D01*
G37*
G36*
X120680425Y-70664000D02*
G01*
X120121891Y-70664000D01*
X120121891Y-70546470D01*
X120322463Y-70343993D01*
X120403203Y-70259100D01*
X120438869Y-70217670D01*
X120463221Y-70182371D01*
X120478241Y-70152457D01*
X120487257Y-70121859D01*
X120490258Y-70090224D01*
X120486941Y-70059337D01*
X120477909Y-70036136D01*
X120463733Y-70018759D01*
X120444827Y-70006057D01*
X120421635Y-69998105D01*
X120393000Y-69995263D01*
X120347484Y-70000539D01*
X120302826Y-70016609D01*
X120259568Y-70041470D01*
X120211528Y-70077230D01*
X120119741Y-69968494D01*
X120177216Y-69923067D01*
X120217536Y-69897468D01*
X120257771Y-69879236D01*
X120302240Y-69865521D01*
X120349672Y-69857230D01*
X120405017Y-69854286D01*
X120454303Y-69857499D01*
X120498095Y-69866732D01*
X120537201Y-69881592D01*
X120573150Y-69902605D01*
X120602605Y-69928012D01*
X120626301Y-69958040D01*
X120643768Y-69992012D01*
X120654366Y-70029245D01*
X120658004Y-70070538D01*
X120653088Y-70124299D01*
X120638611Y-70173951D01*
X120614743Y-70221447D01*
X120578478Y-70273016D01*
X120528824Y-70327909D01*
X120435059Y-70417656D01*
X120332330Y-70514279D01*
X120332330Y-70521899D01*
X120680425Y-70521899D01*
X120680425Y-70664000D01*
G37*
G36*
X121051186Y-70154411D02*
G01*
X121108680Y-70158885D01*
X121157656Y-70171560D01*
X121199598Y-70191777D01*
X121235638Y-70219526D01*
X121265007Y-70254145D01*
X121286257Y-70294584D01*
X121299535Y-70341988D01*
X121304221Y-70397921D01*
X121298521Y-70464120D01*
X121282475Y-70519273D01*
X121256921Y-70565484D01*
X121221667Y-70604258D01*
X121178836Y-70634297D01*
X121126582Y-70656813D01*
X121062975Y-70671294D01*
X120985631Y-70676505D01*
X120897368Y-70671049D01*
X120826653Y-70656101D01*
X120770307Y-70633274D01*
X120770307Y-70487265D01*
X120815800Y-70507699D01*
X120870837Y-70524830D01*
X120927701Y-70535839D01*
X120979623Y-70539338D01*
X121031860Y-70534928D01*
X121070241Y-70523176D01*
X121098057Y-70505475D01*
X121117598Y-70481987D01*
X121129840Y-70451611D01*
X121134277Y-70412185D01*
X121129877Y-70375348D01*
X121117632Y-70346661D01*
X121097822Y-70324159D01*
X121069189Y-70306955D01*
X121029157Y-70295403D01*
X120974152Y-70291041D01*
X120910209Y-70296805D01*
X120853349Y-70309115D01*
X120786133Y-70273064D01*
X120816224Y-69863665D01*
X121249560Y-69863665D01*
X121249560Y-70006840D01*
X120964284Y-70006840D01*
X120949532Y-70165891D01*
X120968681Y-70162080D01*
X121003989Y-70156517D01*
X121051186Y-70154411D01*
G37*
D10*
X81346265Y-50451895D02*
X81346265Y-49651895D01*
X81727217Y-50451895D02*
X81727217Y-49651895D01*
X81727217Y-49651895D02*
X82184360Y-50451895D01*
X82184360Y-50451895D02*
X82184360Y-49651895D01*
X82717693Y-49651895D02*
X82793883Y-49651895D01*
X82793883Y-49651895D02*
X82870074Y-49689990D01*
X82870074Y-49689990D02*
X82908169Y-49728085D01*
X82908169Y-49728085D02*
X82946264Y-49804276D01*
X82946264Y-49804276D02*
X82984359Y-49956657D01*
X82984359Y-49956657D02*
X82984359Y-50147133D01*
X82984359Y-50147133D02*
X82946264Y-50299514D01*
X82946264Y-50299514D02*
X82908169Y-50375704D01*
X82908169Y-50375704D02*
X82870074Y-50413800D01*
X82870074Y-50413800D02*
X82793883Y-50451895D01*
X82793883Y-50451895D02*
X82717693Y-50451895D01*
X82717693Y-50451895D02*
X82641502Y-50413800D01*
X82641502Y-50413800D02*
X82603407Y-50375704D01*
X82603407Y-50375704D02*
X82565312Y-50299514D01*
X82565312Y-50299514D02*
X82527216Y-50147133D01*
X82527216Y-50147133D02*
X82527216Y-49956657D01*
X82527216Y-49956657D02*
X82565312Y-49804276D01*
X82565312Y-49804276D02*
X82603407Y-49728085D01*
X82603407Y-49728085D02*
X82641502Y-49689990D01*
X82641502Y-49689990D02*
X82717693Y-49651895D01*
D11*
G36*
X159136554Y-78188703D02*
G01*
X159161223Y-78213371D01*
X159191028Y-78272981D01*
X159191028Y-78530326D01*
X158867219Y-78530326D01*
X158867219Y-78272981D01*
X158897024Y-78213371D01*
X158921692Y-78188702D01*
X158981302Y-78158898D01*
X159076945Y-78158898D01*
X159136554Y-78188703D01*
G37*
G36*
X159978330Y-78841437D02*
G01*
X158556108Y-78841437D01*
X158556108Y-78249374D01*
X158667219Y-78249374D01*
X158667219Y-78630326D01*
X158669140Y-78649835D01*
X158684072Y-78685883D01*
X158711662Y-78713473D01*
X158747710Y-78728405D01*
X158767219Y-78730326D01*
X159767219Y-78730326D01*
X159786728Y-78728405D01*
X159822776Y-78713473D01*
X159850366Y-78685883D01*
X159865298Y-78649835D01*
X159865298Y-78610817D01*
X159850366Y-78574769D01*
X159822776Y-78547179D01*
X159786728Y-78532247D01*
X159767219Y-78530326D01*
X159391028Y-78530326D01*
X159391028Y-78444296D01*
X159824565Y-78140821D01*
X159839446Y-78128060D01*
X159860415Y-78095155D01*
X159867196Y-78056730D01*
X159858756Y-78018636D01*
X159836381Y-77986671D01*
X159803476Y-77965702D01*
X159765052Y-77958921D01*
X159726957Y-77967361D01*
X159709873Y-77976975D01*
X159381347Y-78206942D01*
X159380471Y-78204652D01*
X159332852Y-78109415D01*
X159327566Y-78101018D01*
X159326556Y-78098578D01*
X159324302Y-78095832D01*
X159322409Y-78092824D01*
X159320411Y-78091091D01*
X159314119Y-78083425D01*
X159266501Y-78035806D01*
X159258830Y-78029511D01*
X159257101Y-78027517D01*
X159254093Y-78025623D01*
X159251347Y-78023370D01*
X159248907Y-78022359D01*
X159240511Y-78017074D01*
X159145273Y-77969455D01*
X159126965Y-77962449D01*
X159123381Y-77962194D01*
X159120061Y-77960819D01*
X159100552Y-77958898D01*
X158957695Y-77958898D01*
X158938186Y-77960819D01*
X158934865Y-77962194D01*
X158931282Y-77962449D01*
X158912973Y-77969455D01*
X158817736Y-78017074D01*
X158809339Y-78022359D01*
X158806899Y-78023370D01*
X158804153Y-78025623D01*
X158801145Y-78027517D01*
X158799412Y-78029514D01*
X158791746Y-78035807D01*
X158744127Y-78083425D01*
X158737832Y-78091095D01*
X158735838Y-78092825D01*
X158733944Y-78095832D01*
X158731691Y-78098579D01*
X158730680Y-78101018D01*
X158725395Y-78109415D01*
X158677776Y-78204653D01*
X158670770Y-78222961D01*
X158670515Y-78226544D01*
X158669140Y-78229865D01*
X158667219Y-78249374D01*
X158556108Y-78249374D01*
X158556108Y-77039389D01*
X158669140Y-77039389D01*
X158669140Y-77078407D01*
X158684072Y-77114455D01*
X158711662Y-77142045D01*
X158747710Y-77156977D01*
X158767219Y-77158898D01*
X159553135Y-77158898D01*
X159612746Y-77188704D01*
X159637414Y-77213371D01*
X159667219Y-77272981D01*
X159667219Y-77416243D01*
X159637414Y-77475852D01*
X159612746Y-77500519D01*
X159553135Y-77530326D01*
X158767219Y-77530326D01*
X158747710Y-77532247D01*
X158711662Y-77547179D01*
X158684072Y-77574769D01*
X158669140Y-77610817D01*
X158669140Y-77649835D01*
X158684072Y-77685883D01*
X158711662Y-77713473D01*
X158747710Y-77728405D01*
X158767219Y-77730326D01*
X159576742Y-77730326D01*
X159596251Y-77728405D01*
X159599571Y-77727029D01*
X159603155Y-77726775D01*
X159621463Y-77719769D01*
X159716701Y-77672150D01*
X159725093Y-77666866D01*
X159727537Y-77665855D01*
X159730286Y-77663598D01*
X159733291Y-77661707D01*
X159735020Y-77659712D01*
X159742690Y-77653418D01*
X159790310Y-77605800D01*
X159796603Y-77598131D01*
X159798600Y-77596400D01*
X159800493Y-77593391D01*
X159802747Y-77590646D01*
X159803757Y-77588205D01*
X159809043Y-77579809D01*
X159856662Y-77484572D01*
X159863668Y-77466263D01*
X159863922Y-77462679D01*
X159865298Y-77459359D01*
X159867219Y-77439850D01*
X159867219Y-77249374D01*
X159865298Y-77229865D01*
X159863922Y-77226544D01*
X159863668Y-77222961D01*
X159856662Y-77204652D01*
X159809043Y-77109415D01*
X159803757Y-77101018D01*
X159802747Y-77098578D01*
X159800493Y-77095832D01*
X159798600Y-77092824D01*
X159796603Y-77091092D01*
X159790310Y-77083424D01*
X159742690Y-77035806D01*
X159735020Y-77029511D01*
X159733291Y-77027517D01*
X159730286Y-77025625D01*
X159727537Y-77023369D01*
X159725093Y-77022357D01*
X159716701Y-77017074D01*
X159621463Y-76969455D01*
X159603155Y-76962449D01*
X159599571Y-76962194D01*
X159596251Y-76960819D01*
X159576742Y-76958898D01*
X158767219Y-76958898D01*
X158747710Y-76960819D01*
X158711662Y-76975751D01*
X158684072Y-77003341D01*
X158669140Y-77039389D01*
X158556108Y-77039389D01*
X158556108Y-76575722D01*
X158667463Y-76575722D01*
X158669140Y-76588915D01*
X158669140Y-76602216D01*
X158671579Y-76608104D01*
X158672383Y-76614429D01*
X158678983Y-76625978D01*
X158684072Y-76638264D01*
X158688579Y-76642771D01*
X158691742Y-76648306D01*
X158702256Y-76656448D01*
X158711662Y-76665854D01*
X158717552Y-76668293D01*
X158722591Y-76672196D01*
X158735419Y-76675694D01*
X158747710Y-76680786D01*
X158757687Y-76681768D01*
X158760234Y-76682463D01*
X158762201Y-76682212D01*
X158767219Y-76682707D01*
X159767219Y-76682707D01*
X159786728Y-76680786D01*
X159822776Y-76665854D01*
X159850366Y-76638264D01*
X159865298Y-76602216D01*
X159865298Y-76563198D01*
X159850366Y-76527150D01*
X159822776Y-76499560D01*
X159786728Y-76484628D01*
X159767219Y-76482707D01*
X159143775Y-76482707D01*
X159816833Y-76098103D01*
X159820943Y-76095184D01*
X159822776Y-76094426D01*
X159824642Y-76092559D01*
X159832818Y-76086756D01*
X159840962Y-76076239D01*
X159850366Y-76066836D01*
X159852804Y-76060948D01*
X159856709Y-76055907D01*
X159860208Y-76043074D01*
X159865298Y-76030788D01*
X159865298Y-76024412D01*
X159866975Y-76018263D01*
X159865298Y-76005069D01*
X159865298Y-75991770D01*
X159862858Y-75985881D01*
X159862055Y-75979557D01*
X159855454Y-75968007D01*
X159850366Y-75955722D01*
X159845858Y-75951214D01*
X159842696Y-75945680D01*
X159832179Y-75937535D01*
X159822776Y-75928132D01*
X159816888Y-75925693D01*
X159811847Y-75921789D01*
X159799014Y-75918289D01*
X159786728Y-75913200D01*
X159776750Y-75912217D01*
X159774204Y-75911523D01*
X159772236Y-75911773D01*
X159767219Y-75911279D01*
X158767219Y-75911279D01*
X158747710Y-75913200D01*
X158711662Y-75928132D01*
X158684072Y-75955722D01*
X158669140Y-75991770D01*
X158669140Y-76030788D01*
X158684072Y-76066836D01*
X158711662Y-76094426D01*
X158747710Y-76109358D01*
X158767219Y-76111279D01*
X159390663Y-76111279D01*
X158717605Y-76495883D01*
X158713494Y-76498801D01*
X158711662Y-76499560D01*
X158709795Y-76501426D01*
X158701620Y-76507230D01*
X158693477Y-76517744D01*
X158684072Y-76527150D01*
X158681632Y-76533040D01*
X158677730Y-76538079D01*
X158674231Y-76550907D01*
X158669140Y-76563198D01*
X158669140Y-76569573D01*
X158667463Y-76575722D01*
X158556108Y-76575722D01*
X158556108Y-75800168D01*
X159978330Y-75800168D01*
X159978330Y-78841437D01*
G37*
D10*
X148922931Y-82377847D02*
X149037217Y-82415942D01*
X149037217Y-82415942D02*
X149075312Y-82454038D01*
X149075312Y-82454038D02*
X149113408Y-82530228D01*
X149113408Y-82530228D02*
X149113408Y-82644514D01*
X149113408Y-82644514D02*
X149075312Y-82720704D01*
X149075312Y-82720704D02*
X149037217Y-82758800D01*
X149037217Y-82758800D02*
X148961027Y-82796895D01*
X148961027Y-82796895D02*
X148656265Y-82796895D01*
X148656265Y-82796895D02*
X148656265Y-81996895D01*
X148656265Y-81996895D02*
X148922931Y-81996895D01*
X148922931Y-81996895D02*
X148999122Y-82034990D01*
X148999122Y-82034990D02*
X149037217Y-82073085D01*
X149037217Y-82073085D02*
X149075312Y-82149276D01*
X149075312Y-82149276D02*
X149075312Y-82225466D01*
X149075312Y-82225466D02*
X149037217Y-82301657D01*
X149037217Y-82301657D02*
X148999122Y-82339752D01*
X148999122Y-82339752D02*
X148922931Y-82377847D01*
X148922931Y-82377847D02*
X148656265Y-82377847D01*
X149341979Y-81996895D02*
X149799122Y-81996895D01*
X149570550Y-82796895D02*
X149570550Y-81996895D01*
X150484836Y-82796895D02*
X150027693Y-82796895D01*
X150256265Y-82796895D02*
X150256265Y-81996895D01*
X150256265Y-81996895D02*
X150180074Y-82111180D01*
X150180074Y-82111180D02*
X150103884Y-82187371D01*
X150103884Y-82187371D02*
X150027693Y-82225466D01*
D11*
G36*
X96207399Y-61464024D02*
G01*
X96278306Y-61499478D01*
X96302975Y-61524146D01*
X96332780Y-61583756D01*
X96332780Y-61631780D01*
X96302975Y-61691389D01*
X96278306Y-61716057D01*
X96207399Y-61751511D01*
X96039518Y-61793482D01*
X95826042Y-61793482D01*
X95658161Y-61751511D01*
X95587254Y-61716058D01*
X95562583Y-61691387D01*
X95532780Y-61631780D01*
X95532780Y-61583755D01*
X95562583Y-61524148D01*
X95587254Y-61499477D01*
X95658161Y-61464024D01*
X95826042Y-61422054D01*
X96039518Y-61422054D01*
X96207399Y-61464024D01*
G37*
G36*
X96332780Y-60727018D02*
G01*
X96302975Y-60786627D01*
X96278306Y-60811295D01*
X96218697Y-60841101D01*
X96123054Y-60841101D01*
X96063444Y-60811296D01*
X96038776Y-60786627D01*
X96008971Y-60727017D01*
X96008971Y-60469673D01*
X96332780Y-60469673D01*
X96332780Y-60727018D01*
G37*
G36*
X96643891Y-62104593D02*
G01*
X95221669Y-62104593D01*
X95221669Y-61560149D01*
X95332780Y-61560149D01*
X95332780Y-61655387D01*
X95334701Y-61674896D01*
X95336076Y-61678215D01*
X95336331Y-61681801D01*
X95343338Y-61700109D01*
X95390958Y-61795347D01*
X95396242Y-61803742D01*
X95397253Y-61806182D01*
X95399506Y-61808927D01*
X95401401Y-61811938D01*
X95403397Y-61813669D01*
X95409689Y-61821336D01*
X95457308Y-61868954D01*
X95464974Y-61875246D01*
X95466707Y-61877244D01*
X95469715Y-61879137D01*
X95472461Y-61881391D01*
X95474901Y-61882401D01*
X95483298Y-61887687D01*
X95578535Y-61935306D01*
X95579963Y-61935852D01*
X95580543Y-61936282D01*
X95588719Y-61939203D01*
X95596844Y-61942312D01*
X95597564Y-61942363D01*
X95599003Y-61942877D01*
X95789479Y-61990496D01*
X95792860Y-61990996D01*
X95794224Y-61991561D01*
X95801574Y-61992284D01*
X95808872Y-61993364D01*
X95810330Y-61993146D01*
X95813733Y-61993482D01*
X96051828Y-61993482D01*
X96055230Y-61993146D01*
X96056689Y-61993364D01*
X96063986Y-61992284D01*
X96071337Y-61991561D01*
X96072700Y-61990996D01*
X96076082Y-61990496D01*
X96266557Y-61942877D01*
X96267994Y-61942363D01*
X96268717Y-61942312D01*
X96276841Y-61939203D01*
X96285018Y-61936282D01*
X96285598Y-61935851D01*
X96287025Y-61935306D01*
X96382263Y-61887687D01*
X96390659Y-61882401D01*
X96393099Y-61881391D01*
X96395845Y-61879137D01*
X96398853Y-61877244D01*
X96400582Y-61875249D01*
X96408253Y-61868955D01*
X96455871Y-61821336D01*
X96462163Y-61813669D01*
X96464161Y-61811937D01*
X96466054Y-61808928D01*
X96468308Y-61806183D01*
X96469318Y-61803742D01*
X96474604Y-61795346D01*
X96522223Y-61700109D01*
X96529229Y-61681800D01*
X96529483Y-61678216D01*
X96530859Y-61674896D01*
X96532780Y-61655387D01*
X96532780Y-61560149D01*
X96530859Y-61540640D01*
X96529483Y-61537319D01*
X96529229Y-61533736D01*
X96522223Y-61515427D01*
X96474604Y-61420190D01*
X96469318Y-61411793D01*
X96468308Y-61409353D01*
X96466054Y-61406607D01*
X96464161Y-61403599D01*
X96462163Y-61401866D01*
X96455871Y-61394200D01*
X96408253Y-61346581D01*
X96400582Y-61340286D01*
X96398853Y-61338292D01*
X96395845Y-61336398D01*
X96393099Y-61334145D01*
X96390659Y-61333134D01*
X96382263Y-61327849D01*
X96287025Y-61280230D01*
X96285598Y-61279684D01*
X96285018Y-61279254D01*
X96276841Y-61276332D01*
X96268717Y-61273224D01*
X96267994Y-61273172D01*
X96266557Y-61272659D01*
X96076082Y-61225040D01*
X96072700Y-61224539D01*
X96071337Y-61223975D01*
X96063986Y-61223251D01*
X96056689Y-61222172D01*
X96055230Y-61222389D01*
X96051828Y-61222054D01*
X95813733Y-61222054D01*
X95810330Y-61222389D01*
X95808872Y-61222172D01*
X95801574Y-61223251D01*
X95794224Y-61223975D01*
X95792860Y-61224539D01*
X95789479Y-61225040D01*
X95599003Y-61272659D01*
X95597564Y-61273172D01*
X95596844Y-61273224D01*
X95588719Y-61276332D01*
X95580543Y-61279254D01*
X95579963Y-61279683D01*
X95578535Y-61280230D01*
X95483298Y-61327849D01*
X95474901Y-61333134D01*
X95472461Y-61334145D01*
X95469715Y-61336398D01*
X95466707Y-61338292D01*
X95464974Y-61340289D01*
X95457308Y-61346582D01*
X95409689Y-61394200D01*
X95403397Y-61401866D01*
X95401401Y-61403598D01*
X95399506Y-61406608D01*
X95397253Y-61409354D01*
X95396242Y-61411793D01*
X95390958Y-61420189D01*
X95343338Y-61515427D01*
X95336331Y-61533735D01*
X95336076Y-61537320D01*
X95334701Y-61540640D01*
X95332780Y-61560149D01*
X95221669Y-61560149D01*
X95221669Y-60943269D01*
X95332803Y-60943269D01*
X95341243Y-60981363D01*
X95363618Y-61013328D01*
X95396523Y-61034297D01*
X95434948Y-61041078D01*
X95473042Y-61032638D01*
X95490126Y-61023024D01*
X95818651Y-60793056D01*
X95819528Y-60795346D01*
X95867147Y-60890584D01*
X95872432Y-60898980D01*
X95873443Y-60901420D01*
X95875696Y-60904166D01*
X95877590Y-60907174D01*
X95879584Y-60908903D01*
X95885879Y-60916574D01*
X95933498Y-60964192D01*
X95941164Y-60970484D01*
X95942897Y-60972482D01*
X95945905Y-60974375D01*
X95948651Y-60976629D01*
X95951091Y-60977639D01*
X95959488Y-60982925D01*
X96054725Y-61030544D01*
X96073034Y-61037550D01*
X96076617Y-61037804D01*
X96079938Y-61039180D01*
X96099447Y-61041101D01*
X96242304Y-61041101D01*
X96261813Y-61039180D01*
X96265133Y-61037804D01*
X96268717Y-61037550D01*
X96287025Y-61030544D01*
X96382263Y-60982925D01*
X96390659Y-60977639D01*
X96393099Y-60976629D01*
X96395845Y-60974375D01*
X96398853Y-60972482D01*
X96400582Y-60970487D01*
X96408253Y-60964193D01*
X96455871Y-60916574D01*
X96462163Y-60908907D01*
X96464161Y-60907175D01*
X96466054Y-60904166D01*
X96468308Y-60901421D01*
X96469318Y-60898980D01*
X96474604Y-60890584D01*
X96522223Y-60795347D01*
X96529229Y-60777038D01*
X96529483Y-60773454D01*
X96530859Y-60770134D01*
X96532780Y-60750625D01*
X96532780Y-60369673D01*
X96530859Y-60350164D01*
X96515927Y-60314116D01*
X96488337Y-60286526D01*
X96452289Y-60271594D01*
X96432780Y-60269673D01*
X95432780Y-60269673D01*
X95413271Y-60271594D01*
X95377223Y-60286526D01*
X95349633Y-60314116D01*
X95334701Y-60350164D01*
X95334701Y-60389182D01*
X95349633Y-60425230D01*
X95377223Y-60452820D01*
X95413271Y-60467752D01*
X95432780Y-60469673D01*
X95808971Y-60469673D01*
X95808971Y-60555702D01*
X95375434Y-60859178D01*
X95360553Y-60871939D01*
X95339584Y-60904844D01*
X95332803Y-60943269D01*
X95221669Y-60943269D01*
X95221669Y-60158562D01*
X96643891Y-60158562D01*
X96643891Y-62104593D01*
G37*
G36*
X76517343Y-72587833D02*
G01*
X76588250Y-72623287D01*
X76612919Y-72647955D01*
X76642724Y-72707565D01*
X76642724Y-72755589D01*
X76612919Y-72815198D01*
X76588250Y-72839866D01*
X76517343Y-72875320D01*
X76349462Y-72917291D01*
X76135986Y-72917291D01*
X75968105Y-72875320D01*
X75897198Y-72839867D01*
X75872527Y-72815196D01*
X75842724Y-72755589D01*
X75842724Y-72707564D01*
X75872527Y-72647957D01*
X75897198Y-72623286D01*
X75968105Y-72587833D01*
X76135986Y-72545863D01*
X76349462Y-72545863D01*
X76517343Y-72587833D01*
G37*
G36*
X76953835Y-73228402D02*
G01*
X73923590Y-73228402D01*
X73923590Y-72569211D01*
X74034701Y-72569211D01*
X74034701Y-72608229D01*
X74049633Y-72644277D01*
X74077223Y-72671867D01*
X74113271Y-72686799D01*
X74132780Y-72688720D01*
X74413733Y-72688720D01*
X74413733Y-72969673D01*
X74415654Y-72989182D01*
X74430586Y-73025230D01*
X74458176Y-73052820D01*
X74494224Y-73067752D01*
X74533242Y-73067752D01*
X74569290Y-73052820D01*
X74596880Y-73025230D01*
X74611812Y-72989182D01*
X74613733Y-72969673D01*
X74613733Y-72688720D01*
X74894685Y-72688720D01*
X74914194Y-72686799D01*
X74921053Y-72683958D01*
X75642724Y-72683958D01*
X75642724Y-72779196D01*
X75644645Y-72798705D01*
X75646020Y-72802024D01*
X75646275Y-72805610D01*
X75653282Y-72823918D01*
X75700902Y-72919156D01*
X75706186Y-72927551D01*
X75707197Y-72929991D01*
X75709450Y-72932736D01*
X75711345Y-72935747D01*
X75713341Y-72937478D01*
X75719633Y-72945145D01*
X75767252Y-72992763D01*
X75774918Y-72999055D01*
X75776651Y-73001053D01*
X75779659Y-73002946D01*
X75782405Y-73005200D01*
X75784845Y-73006210D01*
X75793242Y-73011496D01*
X75888479Y-73059115D01*
X75889907Y-73059661D01*
X75890487Y-73060091D01*
X75898663Y-73063012D01*
X75906788Y-73066121D01*
X75907508Y-73066172D01*
X75908947Y-73066686D01*
X76099423Y-73114305D01*
X76102804Y-73114805D01*
X76104168Y-73115370D01*
X76111518Y-73116093D01*
X76118816Y-73117173D01*
X76120274Y-73116955D01*
X76123677Y-73117291D01*
X76361772Y-73117291D01*
X76365174Y-73116955D01*
X76366633Y-73117173D01*
X76373930Y-73116093D01*
X76381281Y-73115370D01*
X76382644Y-73114805D01*
X76386026Y-73114305D01*
X76576501Y-73066686D01*
X76577938Y-73066172D01*
X76578661Y-73066121D01*
X76586785Y-73063012D01*
X76594962Y-73060091D01*
X76595542Y-73059660D01*
X76596969Y-73059115D01*
X76692207Y-73011496D01*
X76700603Y-73006210D01*
X76703043Y-73005200D01*
X76705789Y-73002946D01*
X76708797Y-73001053D01*
X76710526Y-72999058D01*
X76718197Y-72992764D01*
X76765815Y-72945145D01*
X76772107Y-72937478D01*
X76774105Y-72935746D01*
X76775998Y-72932737D01*
X76778252Y-72929992D01*
X76779262Y-72927551D01*
X76784548Y-72919155D01*
X76832167Y-72823918D01*
X76839173Y-72805609D01*
X76839427Y-72802025D01*
X76840803Y-72798705D01*
X76842724Y-72779196D01*
X76842724Y-72683958D01*
X76840803Y-72664449D01*
X76839427Y-72661128D01*
X76839173Y-72657545D01*
X76832167Y-72639236D01*
X76784548Y-72543999D01*
X76779262Y-72535602D01*
X76778252Y-72533162D01*
X76775998Y-72530416D01*
X76774105Y-72527408D01*
X76772107Y-72525675D01*
X76765815Y-72518009D01*
X76718197Y-72470390D01*
X76710526Y-72464095D01*
X76708797Y-72462101D01*
X76705789Y-72460207D01*
X76703043Y-72457954D01*
X76700603Y-72456943D01*
X76692207Y-72451658D01*
X76596969Y-72404039D01*
X76595542Y-72403493D01*
X76594962Y-72403063D01*
X76586785Y-72400141D01*
X76578661Y-72397033D01*
X76577938Y-72396981D01*
X76576501Y-72396468D01*
X76386026Y-72348849D01*
X76382644Y-72348348D01*
X76381281Y-72347784D01*
X76373930Y-72347060D01*
X76366633Y-72345981D01*
X76365174Y-72346198D01*
X76361772Y-72345863D01*
X76123677Y-72345863D01*
X76120274Y-72346198D01*
X76118816Y-72345981D01*
X76111518Y-72347060D01*
X76104168Y-72347784D01*
X76102804Y-72348348D01*
X76099423Y-72348849D01*
X75908947Y-72396468D01*
X75907508Y-72396981D01*
X75906788Y-72397033D01*
X75898663Y-72400141D01*
X75890487Y-72403063D01*
X75889907Y-72403492D01*
X75888479Y-72404039D01*
X75793242Y-72451658D01*
X75784845Y-72456943D01*
X75782405Y-72457954D01*
X75779659Y-72460207D01*
X75776651Y-72462101D01*
X75774918Y-72464098D01*
X75767252Y-72470391D01*
X75719633Y-72518009D01*
X75713341Y-72525675D01*
X75711345Y-72527407D01*
X75709450Y-72530417D01*
X75707197Y-72533163D01*
X75706186Y-72535602D01*
X75700902Y-72543998D01*
X75653282Y-72639236D01*
X75646275Y-72657544D01*
X75646020Y-72661129D01*
X75644645Y-72664449D01*
X75642724Y-72683958D01*
X74921053Y-72683958D01*
X74950242Y-72671867D01*
X74977832Y-72644277D01*
X74992764Y-72608229D01*
X74992764Y-72569211D01*
X74977832Y-72533163D01*
X74950242Y-72505573D01*
X74914194Y-72490641D01*
X74894685Y-72488720D01*
X74613733Y-72488720D01*
X74613733Y-72207768D01*
X74611812Y-72188259D01*
X74596880Y-72152211D01*
X74569290Y-72124621D01*
X74533242Y-72109689D01*
X74494224Y-72109689D01*
X74458176Y-72124621D01*
X74430586Y-72152211D01*
X74415654Y-72188259D01*
X74413733Y-72207768D01*
X74413733Y-72488720D01*
X74132780Y-72488720D01*
X74113271Y-72490641D01*
X74077223Y-72505573D01*
X74049633Y-72533163D01*
X74034701Y-72569211D01*
X73923590Y-72569211D01*
X73923590Y-72010306D01*
X75642968Y-72010306D01*
X75644645Y-72023499D01*
X75644645Y-72036800D01*
X75647084Y-72042688D01*
X75647888Y-72049013D01*
X75654488Y-72060562D01*
X75659577Y-72072848D01*
X75664084Y-72077355D01*
X75667247Y-72082890D01*
X75677761Y-72091032D01*
X75687167Y-72100438D01*
X75693057Y-72102877D01*
X75698096Y-72106780D01*
X75710924Y-72110278D01*
X75723215Y-72115370D01*
X75733192Y-72116352D01*
X75735739Y-72117047D01*
X75737706Y-72116796D01*
X75742724Y-72117291D01*
X76742724Y-72117291D01*
X76762233Y-72115370D01*
X76798281Y-72100438D01*
X76825871Y-72072848D01*
X76840803Y-72036800D01*
X76840803Y-71997782D01*
X76825871Y-71961734D01*
X76798281Y-71934144D01*
X76762233Y-71919212D01*
X76742724Y-71917291D01*
X76119280Y-71917291D01*
X76792338Y-71532687D01*
X76796448Y-71529768D01*
X76798281Y-71529010D01*
X76800147Y-71527143D01*
X76808323Y-71521340D01*
X76816467Y-71510823D01*
X76825871Y-71501420D01*
X76828309Y-71495532D01*
X76832214Y-71490491D01*
X76835713Y-71477658D01*
X76840803Y-71465372D01*
X76840803Y-71458996D01*
X76842480Y-71452847D01*
X76840803Y-71439653D01*
X76840803Y-71426354D01*
X76838363Y-71420465D01*
X76837560Y-71414141D01*
X76830959Y-71402591D01*
X76825871Y-71390306D01*
X76821363Y-71385798D01*
X76818201Y-71380264D01*
X76807684Y-71372119D01*
X76798281Y-71362716D01*
X76792393Y-71360277D01*
X76787352Y-71356373D01*
X76774519Y-71352873D01*
X76762233Y-71347784D01*
X76752255Y-71346801D01*
X76749709Y-71346107D01*
X76747741Y-71346357D01*
X76742724Y-71345863D01*
X75742724Y-71345863D01*
X75723215Y-71347784D01*
X75687167Y-71362716D01*
X75659577Y-71390306D01*
X75644645Y-71426354D01*
X75644645Y-71465372D01*
X75659577Y-71501420D01*
X75687167Y-71529010D01*
X75723215Y-71543942D01*
X75742724Y-71545863D01*
X76366168Y-71545863D01*
X75693110Y-71930467D01*
X75688999Y-71933385D01*
X75687167Y-71934144D01*
X75685300Y-71936010D01*
X75677125Y-71941814D01*
X75668982Y-71952328D01*
X75659577Y-71961734D01*
X75657137Y-71967624D01*
X75653235Y-71972663D01*
X75649736Y-71985491D01*
X75644645Y-71997782D01*
X75644645Y-72004157D01*
X75642968Y-72010306D01*
X73923590Y-72010306D01*
X73923590Y-70969673D01*
X74413733Y-70969673D01*
X74413733Y-71731578D01*
X74415654Y-71751087D01*
X74430586Y-71787135D01*
X74458176Y-71814725D01*
X74494224Y-71829657D01*
X74533242Y-71829657D01*
X74569290Y-71814725D01*
X74596880Y-71787135D01*
X74611812Y-71751087D01*
X74613733Y-71731578D01*
X74613733Y-70969673D01*
X74611812Y-70950164D01*
X75644645Y-70950164D01*
X75644645Y-70989182D01*
X75659577Y-71025230D01*
X75687167Y-71052820D01*
X75723215Y-71067752D01*
X75742724Y-71069673D01*
X76742724Y-71069673D01*
X76762233Y-71067752D01*
X76798281Y-71052820D01*
X76825871Y-71025230D01*
X76840803Y-70989182D01*
X76840803Y-70950164D01*
X76825871Y-70914116D01*
X76798281Y-70886526D01*
X76762233Y-70871594D01*
X76742724Y-70869673D01*
X75742724Y-70869673D01*
X75723215Y-70871594D01*
X75687167Y-70886526D01*
X75659577Y-70914116D01*
X75644645Y-70950164D01*
X74611812Y-70950164D01*
X74596880Y-70914116D01*
X74569290Y-70886526D01*
X74533242Y-70871594D01*
X74494224Y-70871594D01*
X74458176Y-70886526D01*
X74430586Y-70914116D01*
X74415654Y-70950164D01*
X74413733Y-70969673D01*
X73923590Y-70969673D01*
X73923590Y-70758562D01*
X76953835Y-70758562D01*
X76953835Y-73228402D01*
G37*
D13*
%TO.C,C1*%
X135109420Y-65240000D02*
X135390580Y-65240000D01*
X135109420Y-66260000D02*
X135390580Y-66260000D01*
%TO.C,C6*%
X129488748Y-83765000D02*
X130011252Y-83765000D01*
X129488748Y-85235000D02*
X130011252Y-85235000D01*
%TO.C,R27*%
X105315000Y-55612258D02*
X105315000Y-55137742D01*
X106360000Y-55612258D02*
X106360000Y-55137742D01*
%TO.C,R37*%
X94227500Y-52012742D02*
X94227500Y-52487258D01*
X95272500Y-52012742D02*
X95272500Y-52487258D01*
%TO.C,R16*%
X131237258Y-68727500D02*
X130762742Y-68727500D01*
X131237258Y-69772500D02*
X130762742Y-69772500D01*
%TO.C,D2*%
X114760000Y-87850000D02*
X109250000Y-87850000D01*
X114760000Y-91150000D02*
X109250000Y-91150000D01*
X114760000Y-91150000D02*
X114760000Y-87850000D01*
%TO.C,U4*%
X118975000Y-88440000D02*
X117025000Y-88440000D01*
X118975000Y-88440000D02*
X120925000Y-88440000D01*
X118975000Y-93560000D02*
X117025000Y-93560000D01*
X118975000Y-93560000D02*
X120925000Y-93560000D01*
X116275000Y-88535000D02*
X116035000Y-88205000D01*
X116515000Y-88205000D01*
X116275000Y-88535000D01*
G36*
X116275000Y-88535000D02*
G01*
X116035000Y-88205000D01*
X116515000Y-88205000D01*
X116275000Y-88535000D01*
G37*
%TO.C,U13*%
X79855000Y-79645000D02*
X79855000Y-84845000D01*
X79855000Y-84845000D02*
X85155000Y-84845000D01*
X81505000Y-79645000D02*
X79855000Y-79645000D01*
X85155000Y-79645000D02*
X83505000Y-79645000D01*
X85155000Y-84845000D02*
X85155000Y-79645000D01*
X83505000Y-79645000D02*
G75*
G02*
X81505000Y-79645000I-1000000J0D01*
G01*
%TO.C,R56*%
X138327500Y-70862742D02*
X138327500Y-71337258D01*
X139372500Y-70862742D02*
X139372500Y-71337258D01*
%TO.C,R48*%
X75639564Y-83765000D02*
X75185436Y-83765000D01*
X75639564Y-85235000D02*
X75185436Y-85235000D01*
%TO.C,C62*%
X81710000Y-74817349D02*
X78733000Y-74817349D01*
X81710000Y-74857349D02*
X78741000Y-74857349D01*
X81710000Y-74897349D02*
X78748000Y-74897349D01*
X81710000Y-74937349D02*
X78757000Y-74937349D01*
X81710000Y-74977349D02*
X78765000Y-74977349D01*
X81710000Y-75017349D02*
X78774000Y-75017349D01*
X81710000Y-75057349D02*
X78783000Y-75057349D01*
X81710000Y-75097349D02*
X78793000Y-75097349D01*
X81710000Y-75137349D02*
X78803000Y-75137349D01*
X81710000Y-75177349D02*
X78814000Y-75177349D01*
X81710000Y-75217349D02*
X78825000Y-75217349D01*
X81710000Y-75257349D02*
X78837000Y-75257349D01*
X81710000Y-75297349D02*
X78849000Y-75297349D01*
X81710000Y-75337349D02*
X78861000Y-75337349D01*
X81710000Y-75377349D02*
X78874000Y-75377349D01*
X81710000Y-75417349D02*
X78887000Y-75417349D01*
X81710000Y-75457349D02*
X78901000Y-75457349D01*
X81710000Y-75497349D02*
X78915000Y-75497349D01*
X81710000Y-75537349D02*
X78930000Y-75537349D01*
X81710000Y-75577349D02*
X78945000Y-75577349D01*
X81710000Y-75617349D02*
X78961000Y-75617349D01*
X81710000Y-75657349D02*
X78977000Y-75657349D01*
X81710000Y-75697349D02*
X78993000Y-75697349D01*
X81710000Y-75737349D02*
X79010000Y-75737349D01*
X81710000Y-75777349D02*
X79028000Y-75777349D01*
X81710000Y-75817349D02*
X79046000Y-75817349D01*
X81710000Y-75857349D02*
X79065000Y-75857349D01*
X81710000Y-75897349D02*
X79084000Y-75897349D01*
X81710000Y-75937349D02*
X79104000Y-75937349D01*
X81710000Y-75977349D02*
X79124000Y-75977349D01*
X81710000Y-76017349D02*
X79145000Y-76017349D01*
X81710000Y-76057349D02*
X79166000Y-76057349D01*
X81710000Y-76097349D02*
X79188000Y-76097349D01*
X81710000Y-76137349D02*
X79211000Y-76137349D01*
X81710000Y-76177349D02*
X79234000Y-76177349D01*
X81710000Y-76217349D02*
X79257000Y-76217349D01*
X81710000Y-76257349D02*
X79282000Y-76257349D01*
X81710000Y-76297349D02*
X79307000Y-76297349D01*
X81710000Y-76337349D02*
X79332000Y-76337349D01*
X81710000Y-76377349D02*
X79358000Y-76377349D01*
X81710000Y-76417349D02*
X79385000Y-76417349D01*
X81710000Y-76457349D02*
X79413000Y-76457349D01*
X81710000Y-76497349D02*
X79441000Y-76497349D01*
X81710000Y-76537349D02*
X79470000Y-76537349D01*
X81710000Y-76577349D02*
X79500000Y-76577349D01*
X81710000Y-76617349D02*
X79531000Y-76617349D01*
X81710000Y-76657349D02*
X79562000Y-76657349D01*
X81710000Y-76697349D02*
X79594000Y-76697349D01*
X81710000Y-76737349D02*
X79627000Y-76737349D01*
X81710000Y-76777349D02*
X79661000Y-76777349D01*
X81710000Y-76817349D02*
X79695000Y-76817349D01*
X81710000Y-76857349D02*
X79731000Y-76857349D01*
X83283000Y-78177349D02*
X82217000Y-78177349D01*
X83518000Y-78137349D02*
X81982000Y-78137349D01*
X83697000Y-78097349D02*
X81803000Y-78097349D01*
X83847000Y-78057349D02*
X81653000Y-78057349D01*
X83978000Y-78017349D02*
X81522000Y-78017349D01*
X84096000Y-77977349D02*
X81404000Y-77977349D01*
X84203000Y-77937349D02*
X81297000Y-77937349D01*
X84302000Y-77897349D02*
X81198000Y-77897349D01*
X84394000Y-77857349D02*
X81106000Y-77857349D01*
X84481000Y-77817349D02*
X81019000Y-77817349D01*
X84563000Y-77777349D02*
X80937000Y-77777349D01*
X84640000Y-77737349D02*
X80860000Y-77737349D01*
X84714000Y-77697349D02*
X80786000Y-77697349D01*
X84784000Y-77657349D02*
X80716000Y-77657349D01*
X84851000Y-77617349D02*
X80649000Y-77617349D01*
X84915000Y-77577349D02*
X80585000Y-77577349D01*
X84977000Y-77537349D02*
X80523000Y-77537349D01*
X85037000Y-77497349D02*
X80463000Y-77497349D01*
X85065000Y-69687651D02*
X85065000Y-70487651D01*
X85094000Y-77457349D02*
X80406000Y-77457349D01*
X85150000Y-77417349D02*
X80350000Y-77417349D01*
X85203000Y-77377349D02*
X80297000Y-77377349D01*
X85255000Y-77337349D02*
X80245000Y-77337349D01*
X85305000Y-77297349D02*
X80195000Y-77297349D01*
X85354000Y-77257349D02*
X80146000Y-77257349D01*
X85401000Y-77217349D02*
X80099000Y-77217349D01*
X85446000Y-77177349D02*
X80054000Y-77177349D01*
X85465000Y-70087651D02*
X84665000Y-70087651D01*
X85491000Y-77137349D02*
X80009000Y-77137349D01*
X85534000Y-77097349D02*
X79966000Y-77097349D01*
X85576000Y-77057349D02*
X79924000Y-77057349D01*
X85617000Y-77017349D02*
X79883000Y-77017349D01*
X85656000Y-76977349D02*
X79844000Y-76977349D01*
X85695000Y-76937349D02*
X79805000Y-76937349D01*
X85732000Y-76897349D02*
X79768000Y-76897349D01*
X85769000Y-76857349D02*
X83790000Y-76857349D01*
X85805000Y-76817349D02*
X83790000Y-76817349D01*
X85839000Y-76777349D02*
X83790000Y-76777349D01*
X85873000Y-76737349D02*
X83790000Y-76737349D01*
X85906000Y-76697349D02*
X83790000Y-76697349D01*
X85938000Y-76657349D02*
X83790000Y-76657349D01*
X85969000Y-76617349D02*
X83790000Y-76617349D01*
X86000000Y-76577349D02*
X83790000Y-76577349D01*
X86030000Y-76537349D02*
X83790000Y-76537349D01*
X86059000Y-76497349D02*
X83790000Y-76497349D01*
X86087000Y-76457349D02*
X83790000Y-76457349D01*
X86115000Y-76417349D02*
X83790000Y-76417349D01*
X86142000Y-76377349D02*
X83790000Y-76377349D01*
X86168000Y-76337349D02*
X83790000Y-76337349D01*
X86193000Y-76297349D02*
X83790000Y-76297349D01*
X86218000Y-76257349D02*
X83790000Y-76257349D01*
X86243000Y-76217349D02*
X83790000Y-76217349D01*
X86266000Y-76177349D02*
X83790000Y-76177349D01*
X86289000Y-76137349D02*
X83790000Y-76137349D01*
X86312000Y-76097349D02*
X83790000Y-76097349D01*
X86334000Y-76057349D02*
X83790000Y-76057349D01*
X86355000Y-76017349D02*
X83790000Y-76017349D01*
X86376000Y-75977349D02*
X83790000Y-75977349D01*
X86396000Y-75937349D02*
X83790000Y-75937349D01*
X86416000Y-75897349D02*
X83790000Y-75897349D01*
X86435000Y-75857349D02*
X83790000Y-75857349D01*
X86454000Y-75817349D02*
X83790000Y-75817349D01*
X86472000Y-75777349D02*
X83790000Y-75777349D01*
X86490000Y-75737349D02*
X83790000Y-75737349D01*
X86507000Y-75697349D02*
X83790000Y-75697349D01*
X86523000Y-75657349D02*
X83790000Y-75657349D01*
X86539000Y-75617349D02*
X83790000Y-75617349D01*
X86555000Y-75577349D02*
X83790000Y-75577349D01*
X86570000Y-75537349D02*
X83790000Y-75537349D01*
X86585000Y-75497349D02*
X83790000Y-75497349D01*
X86599000Y-75457349D02*
X83790000Y-75457349D01*
X86613000Y-75417349D02*
X83790000Y-75417349D01*
X86626000Y-75377349D02*
X83790000Y-75377349D01*
X86639000Y-75337349D02*
X83790000Y-75337349D01*
X86651000Y-75297349D02*
X83790000Y-75297349D01*
X86663000Y-75257349D02*
X83790000Y-75257349D01*
X86675000Y-75217349D02*
X83790000Y-75217349D01*
X86686000Y-75177349D02*
X83790000Y-75177349D01*
X86697000Y-75137349D02*
X83790000Y-75137349D01*
X86707000Y-75097349D02*
X83790000Y-75097349D01*
X86717000Y-75057349D02*
X83790000Y-75057349D01*
X86726000Y-75017349D02*
X83790000Y-75017349D01*
X86735000Y-74977349D02*
X83790000Y-74977349D01*
X86743000Y-74937349D02*
X83790000Y-74937349D01*
X86752000Y-74897349D02*
X83790000Y-74897349D01*
X86759000Y-74857349D02*
X83790000Y-74857349D01*
X86767000Y-74817349D02*
X83790000Y-74817349D01*
X86773000Y-74777349D02*
X78727000Y-74777349D01*
X86780000Y-74737349D02*
X78720000Y-74737349D01*
X86786000Y-74697349D02*
X78714000Y-74697349D01*
X86792000Y-74657349D02*
X78708000Y-74657349D01*
X86797000Y-74617349D02*
X78703000Y-74617349D01*
X86802000Y-74577349D02*
X78698000Y-74577349D01*
X86806000Y-74537349D02*
X78694000Y-74537349D01*
X86811000Y-74497349D02*
X78689000Y-74497349D01*
X86814000Y-74457349D02*
X78686000Y-74457349D01*
X86818000Y-74417349D02*
X78682000Y-74417349D01*
X86820000Y-74377349D02*
X78680000Y-74377349D01*
X86823000Y-74337349D02*
X78677000Y-74337349D01*
X86825000Y-74297349D02*
X78675000Y-74297349D01*
X86827000Y-74257349D02*
X78673000Y-74257349D01*
X86828000Y-74217349D02*
X78672000Y-74217349D01*
X86829000Y-74177349D02*
X78671000Y-74177349D01*
X86830000Y-74097349D02*
X78670000Y-74097349D01*
X86830000Y-74137349D02*
X78670000Y-74137349D01*
X86870000Y-74097349D02*
G75*
G02*
X78630000Y-74097349I-4120000J0D01*
G01*
X78630000Y-74097349D02*
G75*
G02*
X86870000Y-74097349I4120000J0D01*
G01*
%TO.C,R2*%
X127227064Y-86090000D02*
X125772936Y-86090000D01*
X127227064Y-87910000D02*
X125772936Y-87910000D01*
%TO.C,C12*%
X122359420Y-86490000D02*
X122640580Y-86490000D01*
X122359420Y-87510000D02*
X122640580Y-87510000D01*
%TO.C,R61*%
X100515000Y-83610436D02*
X100515000Y-84064564D01*
X101985000Y-83610436D02*
X101985000Y-84064564D01*
%TO.C,FB4*%
X104515000Y-84064564D02*
X104515000Y-83610436D01*
X105985000Y-84064564D02*
X105985000Y-83610436D01*
%TO.C,C3*%
X129265000Y-90738748D02*
X129265000Y-91261252D01*
X130735000Y-90738748D02*
X130735000Y-91261252D01*
%TO.C,SW3*%
X146250000Y-74500000D02*
X146250000Y-79000000D01*
X148750000Y-80250000D02*
X150250000Y-80250000D01*
X150250000Y-73250000D02*
X148750000Y-73250000D01*
X152750000Y-79000000D02*
X152750000Y-74500000D01*
%TO.C,C48*%
X123300781Y-58930795D02*
X123019621Y-58930795D01*
X123300781Y-59950795D02*
X123019621Y-59950795D01*
%TO.C,J7*%
X154470000Y-75580000D02*
X154470000Y-70390000D01*
X157230000Y-70390000D02*
X154470000Y-70390000D01*
X157230000Y-75580000D02*
X154470000Y-75580000D01*
X157230000Y-75580000D02*
X157230000Y-70390000D01*
X157230000Y-76850000D02*
X157230000Y-78230000D01*
X157230000Y-78230000D02*
X155850000Y-78230000D01*
%TO.C,C42*%
X75138748Y-75465000D02*
X75661252Y-75465000D01*
X75138748Y-76935000D02*
X75661252Y-76935000D01*
%TO.C,C13*%
X122359420Y-84990000D02*
X122640580Y-84990000D01*
X122359420Y-86010000D02*
X122640580Y-86010000D01*
%TO.C,J4*%
X65890000Y-71710000D02*
X65890000Y-81870000D01*
X65890000Y-81870000D02*
X73510000Y-81870000D01*
X67160000Y-81870000D02*
X67160000Y-71710000D01*
X73510000Y-71710000D02*
X65890000Y-71710000D01*
X73510000Y-81870000D02*
X73510000Y-71710000D01*
%TO.C,R31*%
X84227500Y-52012742D02*
X84227500Y-52487258D01*
X85272500Y-52012742D02*
X85272500Y-52487258D01*
%TO.C,R23*%
X111362258Y-57677500D02*
X110887742Y-57677500D01*
X111362258Y-58722500D02*
X110887742Y-58722500D01*
%TO.C,J8*%
X141280000Y-53430000D02*
X141280000Y-56190000D01*
X146470000Y-53430000D02*
X141280000Y-53430000D01*
X146470000Y-53430000D02*
X146470000Y-56190000D01*
X146470000Y-56190000D02*
X141280000Y-56190000D01*
X147740000Y-53430000D02*
X149120000Y-53430000D01*
X149120000Y-53430000D02*
X149120000Y-54810000D01*
%TO.C,C8*%
X113261252Y-91765000D02*
X112738748Y-91765000D01*
X113261252Y-93235000D02*
X112738748Y-93235000D01*
%TO.C,Q6*%
X103037500Y-50290000D02*
X102387500Y-50290000D01*
X103037500Y-50290000D02*
X103687500Y-50290000D01*
X103037500Y-53410000D02*
X102387500Y-53410000D01*
X103037500Y-53410000D02*
X103687500Y-53410000D01*
X104440000Y-53690000D02*
X103960000Y-53690000D01*
X104200000Y-53360000D01*
X104440000Y-53690000D01*
G36*
X104440000Y-53690000D02*
G01*
X103960000Y-53690000D01*
X104200000Y-53360000D01*
X104440000Y-53690000D01*
G37*
%TO.C,BT1*%
X150220000Y-63520000D02*
X151600000Y-63520000D01*
X150220000Y-64900000D02*
X150220000Y-63520000D01*
X150220000Y-66170000D02*
X150220000Y-68820000D01*
X150220000Y-66170000D02*
X152980000Y-66170000D01*
X150220000Y-68820000D02*
X152980000Y-68820000D01*
X152980000Y-66170000D02*
X152980000Y-68820000D01*
%TO.C,R47*%
X75185436Y-89765000D02*
X75639564Y-89765000D01*
X75185436Y-91235000D02*
X75639564Y-91235000D01*
%TO.C,Q11*%
X97525000Y-64740000D02*
X96875000Y-64740000D01*
X97525000Y-64740000D02*
X98175000Y-64740000D01*
X97525000Y-67860000D02*
X96875000Y-67860000D01*
X97525000Y-67860000D02*
X98175000Y-67860000D01*
X98927500Y-68140000D02*
X98447500Y-68140000D01*
X98687500Y-67810000D01*
X98927500Y-68140000D01*
G36*
X98927500Y-68140000D02*
G01*
X98447500Y-68140000D01*
X98687500Y-67810000D01*
X98927500Y-68140000D01*
G37*
%TO.C,R80*%
X96787742Y-63027500D02*
X97262258Y-63027500D01*
X96787742Y-64072500D02*
X97262258Y-64072500D01*
%TO.C,R41*%
X75185436Y-79365000D02*
X75639564Y-79365000D01*
X75185436Y-80835000D02*
X75639564Y-80835000D01*
%TO.C,J5*%
X65890000Y-82220000D02*
X65890000Y-92380000D01*
X65890000Y-92380000D02*
X73510000Y-92380000D01*
X67160000Y-92380000D02*
X67160000Y-82220000D01*
X73510000Y-82220000D02*
X65890000Y-82220000D01*
X73510000Y-92380000D02*
X73510000Y-82220000D01*
%TO.C,R12*%
X136097258Y-53777500D02*
X135622742Y-53777500D01*
X136097258Y-54822500D02*
X135622742Y-54822500D01*
%TO.C,R25*%
X112237258Y-53977500D02*
X111762742Y-53977500D01*
X112237258Y-55022500D02*
X111762742Y-55022500D01*
%TO.C,R78*%
X99062258Y-68377500D02*
X98587742Y-68377500D01*
X99062258Y-69422500D02*
X98587742Y-69422500D01*
%TO.C,R1*%
X135487258Y-66727500D02*
X135012742Y-66727500D01*
X135487258Y-67772500D02*
X135012742Y-67772500D01*
%TO.C,R63*%
X102515000Y-83610436D02*
X102515000Y-84064564D01*
X103985000Y-83610436D02*
X103985000Y-84064564D01*
%TO.C,R43*%
X87477500Y-76512742D02*
X87477500Y-76987258D01*
X88522500Y-76512742D02*
X88522500Y-76987258D01*
%TO.C,C7*%
X129265000Y-87761252D02*
X129265000Y-87238748D01*
X130735000Y-87761252D02*
X130735000Y-87238748D01*
%TO.C,R33*%
X105252500Y-52112258D02*
X105252500Y-51637742D01*
X106297500Y-52112258D02*
X106297500Y-51637742D01*
%TO.C,J16*%
X96090000Y-50555000D02*
X97250000Y-50555000D01*
X96090000Y-51365000D02*
X96090000Y-50555000D01*
X96090000Y-52175000D02*
X96090000Y-53380000D01*
X96090000Y-52175000D02*
X96583292Y-52175000D01*
X96090000Y-53380000D02*
X96932077Y-53380000D01*
X97567923Y-53380000D02*
X98410000Y-53380000D01*
X97916708Y-52175000D02*
X98410000Y-52175000D01*
X98410000Y-52175000D02*
X98410000Y-53380000D01*
%TO.C,R34*%
X89227500Y-52487258D02*
X89227500Y-52012742D01*
X90272500Y-52487258D02*
X90272500Y-52012742D01*
%TO.C,K1*%
X74150000Y-54400000D02*
X74150000Y-55250000D01*
X74150000Y-56350000D02*
X74150000Y-61900000D01*
X74150000Y-61900000D02*
X94950000Y-61900000D01*
X90000000Y-57025000D02*
X90000000Y-59325000D01*
X90000000Y-59325000D02*
X91900000Y-59325000D01*
X90990000Y-55800000D02*
X90990000Y-57025000D01*
X90990000Y-59325000D02*
X90990000Y-60500000D01*
X90990000Y-60500000D02*
X92260000Y-60500000D01*
X91900000Y-57025000D02*
X90000000Y-57025000D01*
X91900000Y-57025000D02*
X90000000Y-59325000D01*
X91900000Y-59325000D02*
X91900000Y-57025000D01*
X92260000Y-55800000D02*
X90990000Y-55800000D01*
X93550000Y-62100000D02*
X95150000Y-62100000D01*
X94950000Y-54400000D02*
X74150000Y-54400000D01*
X94950000Y-61900000D02*
X94950000Y-54400000D01*
X95150000Y-62100000D02*
X95150000Y-60500000D01*
%TO.C,U7*%
X151900000Y-59140000D02*
X150500000Y-59140000D01*
X151910000Y-61460000D02*
X150500000Y-61460000D01*
X152520000Y-61740000D02*
X152040000Y-61740000D01*
X152280000Y-61410000D01*
X152520000Y-61740000D01*
G36*
X152520000Y-61740000D02*
G01*
X152040000Y-61740000D01*
X152280000Y-61410000D01*
X152520000Y-61740000D01*
G37*
%TO.C,R71*%
X96837742Y-55227500D02*
X97312258Y-55227500D01*
X96837742Y-56272500D02*
X97312258Y-56272500D01*
%TO.C,R46*%
X75185436Y-87765000D02*
X75639564Y-87765000D01*
X75185436Y-89235000D02*
X75639564Y-89235000D01*
%TO.C,R3*%
X127227064Y-88340000D02*
X125772936Y-88340000D01*
X127227064Y-90160000D02*
X125772936Y-90160000D01*
%TO.C,R21*%
X111362258Y-59177500D02*
X110887742Y-59177500D01*
X111362258Y-60222500D02*
X110887742Y-60222500D01*
%TO.C,R64*%
X96515000Y-83610436D02*
X96515000Y-84064564D01*
X97985000Y-83610436D02*
X97985000Y-84064564D01*
%TO.C,R52*%
X155537742Y-81077500D02*
X156012258Y-81077500D01*
X155537742Y-82122500D02*
X156012258Y-82122500D01*
%TO.C,J15*%
X86090000Y-50555000D02*
X87250000Y-50555000D01*
X86090000Y-51365000D02*
X86090000Y-50555000D01*
X86090000Y-52175000D02*
X86090000Y-53380000D01*
X86090000Y-52175000D02*
X86583292Y-52175000D01*
X86090000Y-53380000D02*
X86932077Y-53380000D01*
X87567923Y-53380000D02*
X88410000Y-53380000D01*
X87916708Y-52175000D02*
X88410000Y-52175000D01*
X88410000Y-52175000D02*
X88410000Y-53380000D01*
%TO.C,SW2*%
X159227500Y-83390000D02*
X159227500Y-83910000D01*
X159227500Y-90590000D02*
X159227500Y-91110000D01*
X159737500Y-83390000D02*
X159227500Y-83390000D01*
X159737500Y-83910000D02*
X159227500Y-83910000D01*
X159737500Y-90590000D02*
X159227500Y-90590000D01*
X159737500Y-91110000D02*
X159227500Y-91110000D01*
X162567500Y-83910000D02*
X162337500Y-83910000D01*
X162567500Y-83910000D02*
X162567500Y-84450000D01*
X162567500Y-85550000D02*
X162567500Y-88950000D01*
X162567500Y-90050000D02*
X162567500Y-90590000D01*
X162567500Y-90590000D02*
X162337500Y-90590000D01*
X164437500Y-83390000D02*
X162337500Y-83390000D01*
X164437500Y-91110000D02*
X162337500Y-91110000D01*
%TO.C,Y1*%
X126490000Y-74110000D02*
X132510000Y-74110000D01*
X132510000Y-70390000D02*
X126490000Y-70390000D01*
X132510000Y-74110000D02*
X132510000Y-70390000D01*
%TO.C,R11*%
X125012742Y-51477500D02*
X125487258Y-51477500D01*
X125012742Y-52522500D02*
X125487258Y-52522500D01*
%TO.C,C40*%
X125109420Y-49990000D02*
X125390580Y-49990000D01*
X125109420Y-51010000D02*
X125390580Y-51010000D01*
%TO.C,J1*%
X135210000Y-85990000D02*
X135210000Y-93610000D01*
X135210000Y-93610000D02*
X145370000Y-93610000D01*
X145370000Y-85990000D02*
X135210000Y-85990000D01*
X145370000Y-92340000D02*
X135210000Y-92340000D01*
X145370000Y-93610000D02*
X145370000Y-85990000D01*
%TO.C,FB1*%
X151627064Y-52265000D02*
X151172936Y-52265000D01*
X151627064Y-53735000D02*
X151172936Y-53735000D01*
%TO.C,R13*%
X136097258Y-55247500D02*
X135622742Y-55247500D01*
X136097258Y-56292500D02*
X135622742Y-56292500D01*
%TO.C,R28*%
X79277500Y-52487258D02*
X79277500Y-52012742D01*
X80322500Y-52487258D02*
X80322500Y-52012742D01*
%TO.C,R42*%
X75627064Y-73465000D02*
X75172936Y-73465000D01*
X75627064Y-74935000D02*
X75172936Y-74935000D01*
%TO.C,R53*%
X119762742Y-58927500D02*
X120237258Y-58927500D01*
X119762742Y-59972500D02*
X120237258Y-59972500D01*
%TO.C,R4*%
X127227064Y-90590000D02*
X125772936Y-90590000D01*
X127227064Y-92410000D02*
X125772936Y-92410000D01*
%TO.C,U3*%
X111300000Y-62425000D02*
X109350000Y-62425000D01*
X111300000Y-62425000D02*
X113250000Y-62425000D01*
X111300000Y-71295000D02*
X109350000Y-71295000D01*
X111300000Y-71295000D02*
X113250000Y-71295000D01*
X114240000Y-71560000D02*
X113760000Y-71560000D01*
X114000000Y-71230000D01*
X114240000Y-71560000D01*
G36*
X114240000Y-71560000D02*
G01*
X113760000Y-71560000D01*
X114000000Y-71230000D01*
X114240000Y-71560000D01*
G37*
%TO.C,R70*%
X99552500Y-58737258D02*
X99552500Y-58262742D01*
X100597500Y-58737258D02*
X100597500Y-58262742D01*
%TO.C,U5*%
X136990000Y-60360000D02*
X136990000Y-58950000D01*
X139310000Y-60350000D02*
X139310000Y-58950000D01*
X137040000Y-60730000D02*
X136710000Y-60970000D01*
X136710000Y-60490000D01*
X137040000Y-60730000D01*
G36*
X137040000Y-60730000D02*
G01*
X136710000Y-60970000D01*
X136710000Y-60490000D01*
X137040000Y-60730000D01*
G37*
%TO.C,R22*%
X102377500Y-58562742D02*
X102377500Y-59037258D01*
X103422500Y-58562742D02*
X103422500Y-59037258D01*
%TO.C,J6*%
X90130000Y-85940000D02*
X105370000Y-85940000D01*
X90130000Y-92290000D02*
X105370000Y-92290000D01*
X90130000Y-93560000D02*
X90130000Y-85940000D01*
X90130000Y-93560000D02*
X105370000Y-93560000D01*
X105370000Y-93560000D02*
X105370000Y-85940000D01*
%TO.C,U2*%
X143750000Y-65440000D02*
X141800000Y-65440000D01*
X143750000Y-65440000D02*
X145700000Y-65440000D01*
X143750000Y-70560000D02*
X141800000Y-70560000D01*
X143750000Y-70560000D02*
X145700000Y-70560000D01*
X141050000Y-65535000D02*
X140810000Y-65205000D01*
X141290000Y-65205000D01*
X141050000Y-65535000D01*
G36*
X141050000Y-65535000D02*
G01*
X140810000Y-65205000D01*
X141290000Y-65205000D01*
X141050000Y-65535000D01*
G37*
%TO.C,C15*%
X136559420Y-56790000D02*
X136840580Y-56790000D01*
X136559420Y-57810000D02*
X136840580Y-57810000D01*
%TO.C,L1*%
X107990000Y-75240000D02*
X107990000Y-78490000D01*
X107990000Y-75240000D02*
X109140000Y-75240000D01*
X107990000Y-87760000D02*
X107990000Y-84510000D01*
X107990000Y-87760000D02*
X120510000Y-87760000D01*
X109860000Y-75240000D02*
X120510000Y-75240000D01*
X120510000Y-75240000D02*
X120510000Y-78490000D01*
X120510000Y-87760000D02*
X120510000Y-84510000D01*
X109500000Y-75240000D02*
X109260000Y-74910000D01*
X109740000Y-74910000D01*
X109500000Y-75240000D01*
G36*
X109500000Y-75240000D02*
G01*
X109260000Y-74910000D01*
X109740000Y-74910000D01*
X109500000Y-75240000D01*
G37*
%TO.C,J14*%
X81090000Y-50555000D02*
X82250000Y-50555000D01*
X81090000Y-51365000D02*
X81090000Y-50555000D01*
X81090000Y-52175000D02*
X81090000Y-53380000D01*
X81090000Y-52175000D02*
X81583292Y-52175000D01*
X81090000Y-53380000D02*
X81932077Y-53380000D01*
X82567923Y-53380000D02*
X83410000Y-53380000D01*
X82916708Y-52175000D02*
X83410000Y-52175000D01*
X83410000Y-52175000D02*
X83410000Y-53380000D01*
%TO.C,C50*%
X120140580Y-57440000D02*
X119859420Y-57440000D01*
X120140580Y-58460000D02*
X119859420Y-58460000D01*
%TO.C,C43*%
X105190000Y-65934420D02*
X105190000Y-66215580D01*
X106210000Y-65934420D02*
X106210000Y-66215580D01*
%TO.C,J19*%
X127240000Y-50255000D02*
X128400000Y-50255000D01*
X127240000Y-51065000D02*
X127240000Y-50255000D01*
X127240000Y-51875000D02*
X127240000Y-53080000D01*
X127240000Y-51875000D02*
X127733292Y-51875000D01*
X127240000Y-53080000D02*
X128082077Y-53080000D01*
X128717923Y-53080000D02*
X129560000Y-53080000D01*
X129066708Y-51875000D02*
X129560000Y-51875000D01*
X129560000Y-51875000D02*
X129560000Y-53080000D01*
%TO.C,K2*%
X74150000Y-62182500D02*
X74150000Y-63032500D01*
X74150000Y-64132500D02*
X74150000Y-69682500D01*
X74150000Y-69682500D02*
X94950000Y-69682500D01*
X90000000Y-64807500D02*
X90000000Y-67107500D01*
X90000000Y-67107500D02*
X91900000Y-67107500D01*
X90990000Y-63582500D02*
X90990000Y-64807500D01*
X90990000Y-67107500D02*
X90990000Y-68282500D01*
X90990000Y-68282500D02*
X92260000Y-68282500D01*
X91900000Y-64807500D02*
X90000000Y-64807500D01*
X91900000Y-64807500D02*
X90000000Y-67107500D01*
X91900000Y-67107500D02*
X91900000Y-64807500D01*
X92260000Y-63582500D02*
X90990000Y-63582500D01*
X93550000Y-69882500D02*
X95150000Y-69882500D01*
X94950000Y-62182500D02*
X74150000Y-62182500D01*
X94950000Y-69682500D02*
X94950000Y-62182500D01*
X95150000Y-69882500D02*
X95150000Y-68282500D01*
%TO.C,R17*%
X108987258Y-53977500D02*
X108512742Y-53977500D01*
X108987258Y-55022500D02*
X108512742Y-55022500D01*
%TO.C,U14*%
X79855000Y-86145000D02*
X79855000Y-91345000D01*
X79855000Y-91345000D02*
X85155000Y-91345000D01*
X81505000Y-86145000D02*
X79855000Y-86145000D01*
X85155000Y-86145000D02*
X83505000Y-86145000D01*
X85155000Y-91345000D02*
X85155000Y-86145000D01*
X83505000Y-86145000D02*
G75*
G02*
X81505000Y-86145000I-1000000J0D01*
G01*
%TO.C,R79*%
X99752500Y-66537258D02*
X99752500Y-66062742D01*
X100797500Y-66537258D02*
X100797500Y-66062742D01*
%TO.C,U8*%
X143750000Y-59440000D02*
X141800000Y-59440000D01*
X143750000Y-59440000D02*
X145700000Y-59440000D01*
X143750000Y-64560000D02*
X141800000Y-64560000D01*
X143750000Y-64560000D02*
X145700000Y-64560000D01*
X146690000Y-64795000D02*
X146210000Y-64795000D01*
X146450000Y-64465000D01*
X146690000Y-64795000D01*
G36*
X146690000Y-64795000D02*
G01*
X146210000Y-64795000D01*
X146450000Y-64465000D01*
X146690000Y-64795000D01*
G37*
%TO.C,J17*%
X91090000Y-50555000D02*
X92250000Y-50555000D01*
X91090000Y-51365000D02*
X91090000Y-50555000D01*
X91090000Y-52175000D02*
X91090000Y-53380000D01*
X91090000Y-52175000D02*
X91583292Y-52175000D01*
X91090000Y-53380000D02*
X91932077Y-53380000D01*
X92567923Y-53380000D02*
X93410000Y-53380000D01*
X92916708Y-52175000D02*
X93410000Y-52175000D01*
X93410000Y-52175000D02*
X93410000Y-53380000D01*
%TO.C,C2*%
X129670000Y-80112651D02*
X137830000Y-80112651D01*
X129670000Y-80152651D02*
X137830000Y-80152651D01*
X129671000Y-80072651D02*
X137829000Y-80072651D01*
X129672000Y-80032651D02*
X137828000Y-80032651D01*
X129673000Y-79992651D02*
X137827000Y-79992651D01*
X129675000Y-79952651D02*
X137825000Y-79952651D01*
X129677000Y-79912651D02*
X137823000Y-79912651D01*
X129680000Y-79872651D02*
X137820000Y-79872651D01*
X129682000Y-79832651D02*
X137818000Y-79832651D01*
X129686000Y-79792651D02*
X137814000Y-79792651D01*
X129689000Y-79752651D02*
X137811000Y-79752651D01*
X129694000Y-79712651D02*
X137806000Y-79712651D01*
X129698000Y-79672651D02*
X137802000Y-79672651D01*
X129703000Y-79632651D02*
X137797000Y-79632651D01*
X129708000Y-79592651D02*
X137792000Y-79592651D01*
X129714000Y-79552651D02*
X137786000Y-79552651D01*
X129720000Y-79512651D02*
X137780000Y-79512651D01*
X129727000Y-79472651D02*
X137773000Y-79472651D01*
X129733000Y-79432651D02*
X132710000Y-79432651D01*
X129741000Y-79392651D02*
X132710000Y-79392651D01*
X129748000Y-79352651D02*
X132710000Y-79352651D01*
X129757000Y-79312651D02*
X132710000Y-79312651D01*
X129765000Y-79272651D02*
X132710000Y-79272651D01*
X129774000Y-79232651D02*
X132710000Y-79232651D01*
X129783000Y-79192651D02*
X132710000Y-79192651D01*
X129793000Y-79152651D02*
X132710000Y-79152651D01*
X129803000Y-79112651D02*
X132710000Y-79112651D01*
X129814000Y-79072651D02*
X132710000Y-79072651D01*
X129825000Y-79032651D02*
X132710000Y-79032651D01*
X129837000Y-78992651D02*
X132710000Y-78992651D01*
X129849000Y-78952651D02*
X132710000Y-78952651D01*
X129861000Y-78912651D02*
X132710000Y-78912651D01*
X129874000Y-78872651D02*
X132710000Y-78872651D01*
X129887000Y-78832651D02*
X132710000Y-78832651D01*
X129901000Y-78792651D02*
X132710000Y-78792651D01*
X129915000Y-78752651D02*
X132710000Y-78752651D01*
X129930000Y-78712651D02*
X132710000Y-78712651D01*
X129945000Y-78672651D02*
X132710000Y-78672651D01*
X129961000Y-78632651D02*
X132710000Y-78632651D01*
X129977000Y-78592651D02*
X132710000Y-78592651D01*
X129993000Y-78552651D02*
X132710000Y-78552651D01*
X130010000Y-78512651D02*
X132710000Y-78512651D01*
X130028000Y-78472651D02*
X132710000Y-78472651D01*
X130046000Y-78432651D02*
X132710000Y-78432651D01*
X130065000Y-78392651D02*
X132710000Y-78392651D01*
X130084000Y-78352651D02*
X132710000Y-78352651D01*
X130104000Y-78312651D02*
X132710000Y-78312651D01*
X130124000Y-78272651D02*
X132710000Y-78272651D01*
X130145000Y-78232651D02*
X132710000Y-78232651D01*
X130166000Y-78192651D02*
X132710000Y-78192651D01*
X130188000Y-78152651D02*
X132710000Y-78152651D01*
X130211000Y-78112651D02*
X132710000Y-78112651D01*
X130234000Y-78072651D02*
X132710000Y-78072651D01*
X130257000Y-78032651D02*
X132710000Y-78032651D01*
X130282000Y-77992651D02*
X132710000Y-77992651D01*
X130307000Y-77952651D02*
X132710000Y-77952651D01*
X130332000Y-77912651D02*
X132710000Y-77912651D01*
X130358000Y-77872651D02*
X132710000Y-77872651D01*
X130385000Y-77832651D02*
X132710000Y-77832651D01*
X130413000Y-77792651D02*
X132710000Y-77792651D01*
X130441000Y-77752651D02*
X132710000Y-77752651D01*
X130470000Y-77712651D02*
X132710000Y-77712651D01*
X130500000Y-77672651D02*
X132710000Y-77672651D01*
X130531000Y-77632651D02*
X132710000Y-77632651D01*
X130562000Y-77592651D02*
X132710000Y-77592651D01*
X130594000Y-77552651D02*
X132710000Y-77552651D01*
X130627000Y-77512651D02*
X132710000Y-77512651D01*
X130661000Y-77472651D02*
X132710000Y-77472651D01*
X130695000Y-77432651D02*
X132710000Y-77432651D01*
X130731000Y-77392651D02*
X132710000Y-77392651D01*
X130768000Y-77352651D02*
X136732000Y-77352651D01*
X130805000Y-77312651D02*
X136695000Y-77312651D01*
X130844000Y-77272651D02*
X136656000Y-77272651D01*
X130883000Y-77232651D02*
X136617000Y-77232651D01*
X130924000Y-77192651D02*
X136576000Y-77192651D01*
X130966000Y-77152651D02*
X136534000Y-77152651D01*
X131009000Y-77112651D02*
X136491000Y-77112651D01*
X131035000Y-84162349D02*
X131835000Y-84162349D01*
X131054000Y-77072651D02*
X136446000Y-77072651D01*
X131099000Y-77032651D02*
X136401000Y-77032651D01*
X131146000Y-76992651D02*
X136354000Y-76992651D01*
X131195000Y-76952651D02*
X136305000Y-76952651D01*
X131245000Y-76912651D02*
X136255000Y-76912651D01*
X131297000Y-76872651D02*
X136203000Y-76872651D01*
X131350000Y-76832651D02*
X136150000Y-76832651D01*
X131406000Y-76792651D02*
X136094000Y-76792651D01*
X131435000Y-84562349D02*
X131435000Y-83762349D01*
X131463000Y-76752651D02*
X136037000Y-76752651D01*
X131523000Y-76712651D02*
X135977000Y-76712651D01*
X131585000Y-76672651D02*
X135915000Y-76672651D01*
X131649000Y-76632651D02*
X135851000Y-76632651D01*
X131716000Y-76592651D02*
X135784000Y-76592651D01*
X131786000Y-76552651D02*
X135714000Y-76552651D01*
X131860000Y-76512651D02*
X135640000Y-76512651D01*
X131937000Y-76472651D02*
X135563000Y-76472651D01*
X132019000Y-76432651D02*
X135481000Y-76432651D01*
X132106000Y-76392651D02*
X135394000Y-76392651D01*
X132198000Y-76352651D02*
X135302000Y-76352651D01*
X132297000Y-76312651D02*
X135203000Y-76312651D01*
X132404000Y-76272651D02*
X135096000Y-76272651D01*
X132522000Y-76232651D02*
X134978000Y-76232651D01*
X132653000Y-76192651D02*
X134847000Y-76192651D01*
X132803000Y-76152651D02*
X134697000Y-76152651D01*
X132982000Y-76112651D02*
X134518000Y-76112651D01*
X133217000Y-76072651D02*
X134283000Y-76072651D01*
X134790000Y-77392651D02*
X136769000Y-77392651D01*
X134790000Y-77432651D02*
X136805000Y-77432651D01*
X134790000Y-77472651D02*
X136839000Y-77472651D01*
X134790000Y-77512651D02*
X136873000Y-77512651D01*
X134790000Y-77552651D02*
X136906000Y-77552651D01*
X134790000Y-77592651D02*
X136938000Y-77592651D01*
X134790000Y-77632651D02*
X136969000Y-77632651D01*
X134790000Y-77672651D02*
X137000000Y-77672651D01*
X134790000Y-77712651D02*
X137030000Y-77712651D01*
X134790000Y-77752651D02*
X137059000Y-77752651D01*
X134790000Y-77792651D02*
X137087000Y-77792651D01*
X134790000Y-77832651D02*
X137115000Y-77832651D01*
X134790000Y-77872651D02*
X137142000Y-77872651D01*
X134790000Y-77912651D02*
X137168000Y-77912651D01*
X134790000Y-77952651D02*
X137193000Y-77952651D01*
X134790000Y-77992651D02*
X137218000Y-77992651D01*
X134790000Y-78032651D02*
X137243000Y-78032651D01*
X134790000Y-78072651D02*
X137266000Y-78072651D01*
X134790000Y-78112651D02*
X137289000Y-78112651D01*
X134790000Y-78152651D02*
X137312000Y-78152651D01*
X134790000Y-78192651D02*
X137334000Y-78192651D01*
X134790000Y-78232651D02*
X137355000Y-78232651D01*
X134790000Y-78272651D02*
X137376000Y-78272651D01*
X134790000Y-78312651D02*
X137396000Y-78312651D01*
X134790000Y-78352651D02*
X137416000Y-78352651D01*
X134790000Y-78392651D02*
X137435000Y-78392651D01*
X134790000Y-78432651D02*
X137454000Y-78432651D01*
X134790000Y-78472651D02*
X137472000Y-78472651D01*
X134790000Y-78512651D02*
X137490000Y-78512651D01*
X134790000Y-78552651D02*
X137507000Y-78552651D01*
X134790000Y-78592651D02*
X137523000Y-78592651D01*
X134790000Y-78632651D02*
X137539000Y-78632651D01*
X134790000Y-78672651D02*
X137555000Y-78672651D01*
X134790000Y-78712651D02*
X137570000Y-78712651D01*
X134790000Y-78752651D02*
X137585000Y-78752651D01*
X134790000Y-78792651D02*
X137599000Y-78792651D01*
X134790000Y-78832651D02*
X137613000Y-78832651D01*
X134790000Y-78872651D02*
X137626000Y-78872651D01*
X134790000Y-78912651D02*
X137639000Y-78912651D01*
X134790000Y-78952651D02*
X137651000Y-78952651D01*
X134790000Y-78992651D02*
X137663000Y-78992651D01*
X134790000Y-79032651D02*
X137675000Y-79032651D01*
X134790000Y-79072651D02*
X137686000Y-79072651D01*
X134790000Y-79112651D02*
X137697000Y-79112651D01*
X134790000Y-79152651D02*
X137707000Y-79152651D01*
X134790000Y-79192651D02*
X137717000Y-79192651D01*
X134790000Y-79232651D02*
X137726000Y-79232651D01*
X134790000Y-79272651D02*
X137735000Y-79272651D01*
X134790000Y-79312651D02*
X137743000Y-79312651D01*
X134790000Y-79352651D02*
X137752000Y-79352651D01*
X134790000Y-79392651D02*
X137759000Y-79392651D01*
X134790000Y-79432651D02*
X137767000Y-79432651D01*
X137870000Y-80152651D02*
G75*
G02*
X129630000Y-80152651I-4120000J0D01*
G01*
X129630000Y-80152651D02*
G75*
G02*
X137870000Y-80152651I4120000J0D01*
G01*
%TO.C,D5*%
X131350000Y-86490000D02*
X131350000Y-92000000D01*
X134650000Y-86490000D02*
X131350000Y-86490000D01*
X134650000Y-86490000D02*
X134650000Y-92000000D01*
%TO.C,SW4*%
X146250000Y-84500000D02*
X146250000Y-89000000D01*
X148750000Y-90250000D02*
X150250000Y-90250000D01*
X150250000Y-83250000D02*
X148750000Y-83250000D01*
X152750000Y-89000000D02*
X152750000Y-84500000D01*
%TO.C,R62*%
X98515000Y-84064564D02*
X98515000Y-83610436D01*
X99985000Y-84064564D02*
X99985000Y-83610436D01*
%TO.C,C9*%
X120687651Y-78185000D02*
X121487651Y-78185000D01*
X121087651Y-77785000D02*
X121087651Y-78585000D01*
X125097349Y-76420000D02*
X125097349Y-84580000D01*
X125137349Y-76420000D02*
X125137349Y-84580000D01*
X125177349Y-76421000D02*
X125177349Y-84579000D01*
X125217349Y-76422000D02*
X125217349Y-84578000D01*
X125257349Y-76423000D02*
X125257349Y-84577000D01*
X125297349Y-76425000D02*
X125297349Y-84575000D01*
X125337349Y-76427000D02*
X125337349Y-84573000D01*
X125377349Y-76430000D02*
X125377349Y-84570000D01*
X125417349Y-76432000D02*
X125417349Y-84568000D01*
X125457349Y-76436000D02*
X125457349Y-84564000D01*
X125497349Y-76439000D02*
X125497349Y-84561000D01*
X125537349Y-76444000D02*
X125537349Y-84556000D01*
X125577349Y-76448000D02*
X125577349Y-84552000D01*
X125617349Y-76453000D02*
X125617349Y-84547000D01*
X125657349Y-76458000D02*
X125657349Y-84542000D01*
X125697349Y-76464000D02*
X125697349Y-84536000D01*
X125737349Y-76470000D02*
X125737349Y-84530000D01*
X125777349Y-76477000D02*
X125777349Y-84523000D01*
X125817349Y-76483000D02*
X125817349Y-79460000D01*
X125817349Y-81540000D02*
X125817349Y-84517000D01*
X125857349Y-76491000D02*
X125857349Y-79460000D01*
X125857349Y-81540000D02*
X125857349Y-84509000D01*
X125897349Y-76498000D02*
X125897349Y-79460000D01*
X125897349Y-81540000D02*
X125897349Y-84502000D01*
X125937349Y-76507000D02*
X125937349Y-79460000D01*
X125937349Y-81540000D02*
X125937349Y-84493000D01*
X125977349Y-76515000D02*
X125977349Y-79460000D01*
X125977349Y-81540000D02*
X125977349Y-84485000D01*
X126017349Y-76524000D02*
X126017349Y-79460000D01*
X126017349Y-81540000D02*
X126017349Y-84476000D01*
X126057349Y-76533000D02*
X126057349Y-79460000D01*
X126057349Y-81540000D02*
X126057349Y-84467000D01*
X126097349Y-76543000D02*
X126097349Y-79460000D01*
X126097349Y-81540000D02*
X126097349Y-84457000D01*
X126137349Y-76553000D02*
X126137349Y-79460000D01*
X126137349Y-81540000D02*
X126137349Y-84447000D01*
X126177349Y-76564000D02*
X126177349Y-79460000D01*
X126177349Y-81540000D02*
X126177349Y-84436000D01*
X126217349Y-76575000D02*
X126217349Y-79460000D01*
X126217349Y-81540000D02*
X126217349Y-84425000D01*
X126257349Y-76587000D02*
X126257349Y-79460000D01*
X126257349Y-81540000D02*
X126257349Y-84413000D01*
X126297349Y-76599000D02*
X126297349Y-79460000D01*
X126297349Y-81540000D02*
X126297349Y-84401000D01*
X126337349Y-76611000D02*
X126337349Y-79460000D01*
X126337349Y-81540000D02*
X126337349Y-84389000D01*
X126377349Y-76624000D02*
X126377349Y-79460000D01*
X126377349Y-81540000D02*
X126377349Y-84376000D01*
X126417349Y-76637000D02*
X126417349Y-79460000D01*
X126417349Y-81540000D02*
X126417349Y-84363000D01*
X126457349Y-76651000D02*
X126457349Y-79460000D01*
X126457349Y-81540000D02*
X126457349Y-84349000D01*
X126497349Y-76665000D02*
X126497349Y-79460000D01*
X126497349Y-81540000D02*
X126497349Y-84335000D01*
X126537349Y-76680000D02*
X126537349Y-79460000D01*
X126537349Y-81540000D02*
X126537349Y-84320000D01*
X126577349Y-76695000D02*
X126577349Y-79460000D01*
X126577349Y-81540000D02*
X126577349Y-84305000D01*
X126617349Y-76711000D02*
X126617349Y-79460000D01*
X126617349Y-81540000D02*
X126617349Y-84289000D01*
X126657349Y-76727000D02*
X126657349Y-79460000D01*
X126657349Y-81540000D02*
X126657349Y-84273000D01*
X126697349Y-76743000D02*
X126697349Y-79460000D01*
X126697349Y-81540000D02*
X126697349Y-84257000D01*
X126737349Y-76760000D02*
X126737349Y-79460000D01*
X126737349Y-81540000D02*
X126737349Y-84240000D01*
X126777349Y-76778000D02*
X126777349Y-79460000D01*
X126777349Y-81540000D02*
X126777349Y-84222000D01*
X126817349Y-76796000D02*
X126817349Y-79460000D01*
X126817349Y-81540000D02*
X126817349Y-84204000D01*
X126857349Y-76815000D02*
X126857349Y-79460000D01*
X126857349Y-81540000D02*
X126857349Y-84185000D01*
X126897349Y-76834000D02*
X126897349Y-79460000D01*
X126897349Y-81540000D02*
X126897349Y-84166000D01*
X126937349Y-76854000D02*
X126937349Y-79460000D01*
X126937349Y-81540000D02*
X126937349Y-84146000D01*
X126977349Y-76874000D02*
X126977349Y-79460000D01*
X126977349Y-81540000D02*
X126977349Y-84126000D01*
X127017349Y-76895000D02*
X127017349Y-79460000D01*
X127017349Y-81540000D02*
X127017349Y-84105000D01*
X127057349Y-76916000D02*
X127057349Y-79460000D01*
X127057349Y-81540000D02*
X127057349Y-84084000D01*
X127097349Y-76938000D02*
X127097349Y-79460000D01*
X127097349Y-81540000D02*
X127097349Y-84062000D01*
X127137349Y-76961000D02*
X127137349Y-79460000D01*
X127137349Y-81540000D02*
X127137349Y-84039000D01*
X127177349Y-76984000D02*
X127177349Y-79460000D01*
X127177349Y-81540000D02*
X127177349Y-84016000D01*
X127217349Y-77007000D02*
X127217349Y-79460000D01*
X127217349Y-81540000D02*
X127217349Y-83993000D01*
X127257349Y-77032000D02*
X127257349Y-79460000D01*
X127257349Y-81540000D02*
X127257349Y-83968000D01*
X127297349Y-77057000D02*
X127297349Y-79460000D01*
X127297349Y-81540000D02*
X127297349Y-83943000D01*
X127337349Y-77082000D02*
X127337349Y-79460000D01*
X127337349Y-81540000D02*
X127337349Y-83918000D01*
X127377349Y-77108000D02*
X127377349Y-79460000D01*
X127377349Y-81540000D02*
X127377349Y-83892000D01*
X127417349Y-77135000D02*
X127417349Y-79460000D01*
X127417349Y-81540000D02*
X127417349Y-83865000D01*
X127457349Y-77163000D02*
X127457349Y-79460000D01*
X127457349Y-81540000D02*
X127457349Y-83837000D01*
X127497349Y-77191000D02*
X127497349Y-79460000D01*
X127497349Y-81540000D02*
X127497349Y-83809000D01*
X127537349Y-77220000D02*
X127537349Y-79460000D01*
X127537349Y-81540000D02*
X127537349Y-83780000D01*
X127577349Y-77250000D02*
X127577349Y-79460000D01*
X127577349Y-81540000D02*
X127577349Y-83750000D01*
X127617349Y-77281000D02*
X127617349Y-79460000D01*
X127617349Y-81540000D02*
X127617349Y-83719000D01*
X127657349Y-77312000D02*
X127657349Y-79460000D01*
X127657349Y-81540000D02*
X127657349Y-83688000D01*
X127697349Y-77344000D02*
X127697349Y-79460000D01*
X127697349Y-81540000D02*
X127697349Y-83656000D01*
X127737349Y-77377000D02*
X127737349Y-79460000D01*
X127737349Y-81540000D02*
X127737349Y-83623000D01*
X127777349Y-77411000D02*
X127777349Y-79460000D01*
X127777349Y-81540000D02*
X127777349Y-83589000D01*
X127817349Y-77445000D02*
X127817349Y-79460000D01*
X127817349Y-81540000D02*
X127817349Y-83555000D01*
X127857349Y-77481000D02*
X127857349Y-79460000D01*
X127857349Y-81540000D02*
X127857349Y-83519000D01*
X127897349Y-77518000D02*
X127897349Y-83482000D01*
X127937349Y-77555000D02*
X127937349Y-83445000D01*
X127977349Y-77594000D02*
X127977349Y-83406000D01*
X128017349Y-77633000D02*
X128017349Y-83367000D01*
X128057349Y-77674000D02*
X128057349Y-83326000D01*
X128097349Y-77716000D02*
X128097349Y-83284000D01*
X128137349Y-77759000D02*
X128137349Y-83241000D01*
X128177349Y-77804000D02*
X128177349Y-83196000D01*
X128217349Y-77849000D02*
X128217349Y-83151000D01*
X128257349Y-77896000D02*
X128257349Y-83104000D01*
X128297349Y-77945000D02*
X128297349Y-83055000D01*
X128337349Y-77995000D02*
X128337349Y-83005000D01*
X128377349Y-78047000D02*
X128377349Y-82953000D01*
X128417349Y-78100000D02*
X128417349Y-82900000D01*
X128457349Y-78156000D02*
X128457349Y-82844000D01*
X128497349Y-78213000D02*
X128497349Y-82787000D01*
X128537349Y-78273000D02*
X128537349Y-82727000D01*
X128577349Y-78335000D02*
X128577349Y-82665000D01*
X128617349Y-78399000D02*
X128617349Y-82601000D01*
X128657349Y-78466000D02*
X128657349Y-82534000D01*
X128697349Y-78536000D02*
X128697349Y-82464000D01*
X128737349Y-78610000D02*
X128737349Y-82390000D01*
X128777349Y-78687000D02*
X128777349Y-82313000D01*
X128817349Y-78769000D02*
X128817349Y-82231000D01*
X128857349Y-78856000D02*
X128857349Y-82144000D01*
X128897349Y-78948000D02*
X128897349Y-82052000D01*
X128937349Y-79047000D02*
X128937349Y-81953000D01*
X128977349Y-79154000D02*
X128977349Y-81846000D01*
X129017349Y-79272000D02*
X129017349Y-81728000D01*
X129057349Y-79403000D02*
X129057349Y-81597000D01*
X129097349Y-79553000D02*
X129097349Y-81447000D01*
X129137349Y-79732000D02*
X129137349Y-81268000D01*
X129177349Y-79967000D02*
X129177349Y-81033000D01*
X129217349Y-80500000D02*
G75*
G02*
X120977349Y-80500000I-4120000J0D01*
G01*
X120977349Y-80500000D02*
G75*
G02*
X129217349Y-80500000I4120000J0D01*
G01*
%TO.C,J3*%
X136200000Y-52580000D02*
X136200000Y-51200000D01*
X137580000Y-52580000D02*
X136200000Y-52580000D01*
X138850000Y-49820000D02*
X149120000Y-49820000D01*
X138850000Y-52580000D02*
X138850000Y-49820000D01*
X138850000Y-52580000D02*
X149120000Y-52580000D01*
X149120000Y-52580000D02*
X149120000Y-49820000D01*
%TO.C,R49*%
X89227500Y-76512742D02*
X89227500Y-76987258D01*
X90272500Y-76512742D02*
X90272500Y-76987258D01*
%TO.C,C46*%
X75151248Y-85765000D02*
X75673752Y-85765000D01*
X75151248Y-87235000D02*
X75673752Y-87235000D01*
%TO.C,U1*%
X125840000Y-58727500D02*
X125840000Y-58317500D01*
X125840000Y-65297500D02*
X125840000Y-64647500D01*
X126490000Y-58077500D02*
X126140000Y-58077500D01*
X126490000Y-65297500D02*
X125840000Y-65297500D01*
X132410000Y-58077500D02*
X133060000Y-58077500D01*
X132410000Y-65297500D02*
X133060000Y-65297500D01*
X133060000Y-58077500D02*
X133060000Y-58727500D01*
X133060000Y-65297500D02*
X133060000Y-64647500D01*
X125840000Y-58077500D02*
X125600000Y-57747500D01*
X126080000Y-57747500D01*
X125840000Y-58077500D01*
G36*
X125840000Y-58077500D02*
G01*
X125600000Y-57747500D01*
X126080000Y-57747500D01*
X125840000Y-58077500D01*
G37*
%TO.C,C51*%
X155609420Y-87990000D02*
X155890580Y-87990000D01*
X155609420Y-89010000D02*
X155890580Y-89010000D01*
%TO.C,J2*%
X153602500Y-58250000D02*
X153602500Y-59250000D01*
X153602500Y-59250000D02*
X154102500Y-58750000D01*
X154102500Y-58750000D02*
X153602500Y-58250000D01*
X154322500Y-53840000D02*
X154322500Y-66160000D01*
X154322500Y-66160000D02*
X158582500Y-66160000D01*
X158582500Y-53840000D02*
X154322500Y-53840000D01*
%TO.C,Q4*%
X103087500Y-53815000D02*
X102437500Y-53815000D01*
X103087500Y-53815000D02*
X103737500Y-53815000D01*
X103087500Y-56935000D02*
X102437500Y-56935000D01*
X103087500Y-56935000D02*
X103737500Y-56935000D01*
X104490000Y-57215000D02*
X104010000Y-57215000D01*
X104250000Y-56885000D01*
X104490000Y-57215000D01*
G36*
X104490000Y-57215000D02*
G01*
X104010000Y-57215000D01*
X104250000Y-56885000D01*
X104490000Y-57215000D01*
G37*
%TO.C,C49*%
X155634420Y-79590000D02*
X155915580Y-79590000D01*
X155634420Y-80610000D02*
X155915580Y-80610000D01*
%TO.C,J13*%
X110840000Y-50420000D02*
X112000000Y-50420000D01*
X110840000Y-51230000D02*
X110840000Y-50420000D01*
X110840000Y-52040000D02*
X110840000Y-53245000D01*
X110840000Y-52040000D02*
X111333292Y-52040000D01*
X110840000Y-53245000D02*
X111682077Y-53245000D01*
X112317923Y-53245000D02*
X113160000Y-53245000D01*
X112666708Y-52040000D02*
X113160000Y-52040000D01*
X113160000Y-52040000D02*
X113160000Y-53245000D01*
%TO.C,C41*%
X130859420Y-74740000D02*
X131140580Y-74740000D01*
X130859420Y-75760000D02*
X131140580Y-75760000D01*
%TO.C,R40*%
X75172936Y-77465000D02*
X75627064Y-77465000D01*
X75172936Y-78935000D02*
X75627064Y-78935000D01*
%TO.C,Q2*%
X105636501Y-57256071D02*
X104986501Y-57256071D01*
X105636501Y-57256071D02*
X106286501Y-57256071D01*
X105636501Y-60376071D02*
X104986501Y-60376071D01*
X105636501Y-60376071D02*
X106286501Y-60376071D01*
X104474001Y-57306071D02*
X104234001Y-56976071D01*
X104714001Y-56976071D01*
X104474001Y-57306071D01*
G36*
X104474001Y-57306071D02*
G01*
X104234001Y-56976071D01*
X104714001Y-56976071D01*
X104474001Y-57306071D01*
G37*
%TO.C,C55*%
X147990000Y-65390580D02*
X147990000Y-65109420D01*
X149010000Y-65390580D02*
X149010000Y-65109420D01*
%TO.C,U12*%
X95860000Y-74355000D02*
X95860000Y-79655000D01*
X95860000Y-79655000D02*
X106140000Y-79655000D01*
X106140000Y-74355000D02*
X95860000Y-74355000D01*
X106140000Y-76005000D02*
X106140000Y-74355000D01*
X106140000Y-79655000D02*
X106140000Y-78005000D01*
X106140000Y-78005000D02*
G75*
G02*
X106140000Y-76005000I0J1000000D01*
G01*
%TO.C,J18*%
X107590000Y-50420000D02*
X108750000Y-50420000D01*
X107590000Y-51230000D02*
X107590000Y-50420000D01*
X107590000Y-52040000D02*
X107590000Y-53245000D01*
X107590000Y-52040000D02*
X108083292Y-52040000D01*
X107590000Y-53245000D02*
X108432077Y-53245000D01*
X109067923Y-53245000D02*
X109910000Y-53245000D01*
X109416708Y-52040000D02*
X109910000Y-52040000D01*
X109910000Y-52040000D02*
X109910000Y-53245000D01*
%TO.C,U6*%
X138290000Y-78290000D02*
X139550000Y-78290000D01*
X138290000Y-82050000D02*
X138290000Y-78290000D01*
X145110000Y-78290000D02*
X143850000Y-78290000D01*
X145110000Y-82050000D02*
X145110000Y-78290000D01*
X138390000Y-83330000D02*
X138060000Y-83570000D01*
X138060000Y-83090000D01*
X138390000Y-83330000D01*
G36*
X138390000Y-83330000D02*
G01*
X138060000Y-83570000D01*
X138060000Y-83090000D01*
X138390000Y-83330000D01*
G37*
%TO.C,U11*%
X115990000Y-49740000D02*
X115990000Y-50010000D01*
X115990000Y-55260000D02*
X115990000Y-54990000D01*
X118750000Y-49740000D02*
X115990000Y-49740000D01*
X118750000Y-49740000D02*
X121510000Y-49740000D01*
X118750000Y-55260000D02*
X115990000Y-55260000D01*
X118750000Y-55260000D02*
X121510000Y-55260000D01*
X121510000Y-49740000D02*
X121510000Y-50010000D01*
X121510000Y-55260000D02*
X121510000Y-54990000D01*
X115225000Y-50010000D02*
X114985000Y-49680000D01*
X115465000Y-49680000D01*
X115225000Y-50010000D01*
G36*
X115225000Y-50010000D02*
G01*
X114985000Y-49680000D01*
X115465000Y-49680000D01*
X115225000Y-50010000D01*
G37*
%TO.C,C47*%
X105190000Y-62934420D02*
X105190000Y-63215580D01*
X106210000Y-62934420D02*
X106210000Y-63215580D01*
%TO.C,R69*%
X99562258Y-60477500D02*
X99087742Y-60477500D01*
X99562258Y-61522500D02*
X99087742Y-61522500D01*
%TO.C,C45*%
X106090000Y-69440580D02*
X106090000Y-69159420D01*
X107110000Y-69440580D02*
X107110000Y-69159420D01*
%TO.C,SW1*%
X159190000Y-73640000D02*
X159190000Y-74160000D01*
X159190000Y-80840000D02*
X159190000Y-81360000D01*
X159700000Y-73640000D02*
X159190000Y-73640000D01*
X159700000Y-74160000D02*
X159190000Y-74160000D01*
X159700000Y-80840000D02*
X159190000Y-80840000D01*
X159700000Y-81360000D02*
X159190000Y-81360000D01*
X162530000Y-74160000D02*
X162300000Y-74160000D01*
X162530000Y-74160000D02*
X162530000Y-74700000D01*
X162530000Y-75800000D02*
X162530000Y-79200000D01*
X162530000Y-80300000D02*
X162530000Y-80840000D01*
X162530000Y-80840000D02*
X162300000Y-80840000D01*
X164400000Y-73640000D02*
X162300000Y-73640000D01*
X164400000Y-81360000D02*
X162300000Y-81360000D01*
%TO.C,FB2*%
X151627064Y-54515000D02*
X151172936Y-54515000D01*
X151627064Y-55985000D02*
X151172936Y-55985000D01*
%TO.C,R50*%
X103677500Y-63312258D02*
X103677500Y-62837742D01*
X104722500Y-63312258D02*
X104722500Y-62837742D01*
%TO.C,J11*%
X65890000Y-61130000D02*
X65890000Y-71290000D01*
X65890000Y-71290000D02*
X73510000Y-71290000D01*
X67160000Y-71290000D02*
X67160000Y-61130000D01*
X73510000Y-61130000D02*
X65890000Y-61130000D01*
X73510000Y-71290000D02*
X73510000Y-61130000D01*
%TO.C,Q9*%
X97387500Y-56890000D02*
X96737500Y-56890000D01*
X97387500Y-56890000D02*
X98037500Y-56890000D01*
X97387500Y-60010000D02*
X96737500Y-60010000D01*
X97387500Y-60010000D02*
X98037500Y-60010000D01*
X98790000Y-60290000D02*
X98310000Y-60290000D01*
X98550000Y-59960000D01*
X98790000Y-60290000D01*
G36*
X98790000Y-60290000D02*
G01*
X98310000Y-60290000D01*
X98550000Y-59960000D01*
X98790000Y-60290000D01*
G37*
%TO.C,R51*%
X122922943Y-57418295D02*
X123397459Y-57418295D01*
X122922943Y-58463295D02*
X123397459Y-58463295D01*
%TO.C,R44*%
X103677500Y-66312258D02*
X103677500Y-65837742D01*
X104722500Y-66312258D02*
X104722500Y-65837742D01*
%TO.C,C39*%
X127640580Y-74740000D02*
X127359420Y-74740000D01*
X127640580Y-75760000D02*
X127359420Y-75760000D01*
%TO.C,R9*%
X135477500Y-59512742D02*
X135477500Y-59987258D01*
X136522500Y-59512742D02*
X136522500Y-59987258D01*
%TO.C,R54*%
X155512742Y-89477500D02*
X155987258Y-89477500D01*
X155512742Y-90522500D02*
X155987258Y-90522500D01*
%TO.C,J10*%
X65890000Y-50630000D02*
X65890000Y-60790000D01*
X65890000Y-60790000D02*
X73510000Y-60790000D01*
X67160000Y-60790000D02*
X67160000Y-50630000D01*
X73510000Y-50630000D02*
X65890000Y-50630000D01*
X73510000Y-60790000D02*
X73510000Y-50630000D01*
%TD*%
G36*
X165143039Y-49319685D02*
G01*
X165188794Y-49372489D01*
X165200000Y-49424000D01*
X165200000Y-50376000D01*
X165180315Y-50443039D01*
X165127511Y-50488794D01*
X165076000Y-50500000D01*
X150624000Y-50500000D01*
X150556961Y-50480315D01*
X150511206Y-50427511D01*
X150500000Y-50376000D01*
X150500000Y-49424000D01*
X150519685Y-49356961D01*
X150572489Y-49311206D01*
X150624000Y-49300000D01*
X165076000Y-49300000D01*
X165143039Y-49319685D01*
G37*
G36*
X80443039Y-49319685D02*
G01*
X80488794Y-49372489D01*
X80500000Y-49424000D01*
X80500000Y-50376000D01*
X80480315Y-50443039D01*
X80427511Y-50488794D01*
X80376000Y-50500000D01*
X66024000Y-50500000D01*
X65956961Y-50480315D01*
X65911206Y-50427511D01*
X65900000Y-50376000D01*
X65900000Y-49424000D01*
X65919685Y-49356961D01*
X65972489Y-49311206D01*
X66024000Y-49300000D01*
X80376000Y-49300000D01*
X80443039Y-49319685D01*
G37*
G36*
X165143039Y-92519685D02*
G01*
X165188794Y-92572489D01*
X165200000Y-92624000D01*
X165200000Y-93576000D01*
X165180315Y-93643039D01*
X165127511Y-93688794D01*
X165076000Y-93700000D01*
X150624000Y-93700000D01*
X150556961Y-93680315D01*
X150511206Y-93627511D01*
X150500000Y-93576000D01*
X150500000Y-92624000D01*
X150519685Y-92556961D01*
X150572489Y-92511206D01*
X150624000Y-92500000D01*
X165076000Y-92500000D01*
X165143039Y-92519685D01*
G37*
G36*
X80443039Y-92519685D02*
G01*
X80488794Y-92572489D01*
X80500000Y-92624000D01*
X80500000Y-93576000D01*
X80480315Y-93643039D01*
X80427511Y-93688794D01*
X80376000Y-93700000D01*
X66024000Y-93700000D01*
X65956961Y-93680315D01*
X65911206Y-93627511D01*
X65900000Y-93576000D01*
X65900000Y-92624000D01*
X65919685Y-92556961D01*
X65972489Y-92511206D01*
X66024000Y-92500000D01*
X80376000Y-92500000D01*
X80443039Y-92519685D01*
G37*
M02*
