%TF.GenerationSoftware,KiCad,Pcbnew,9.0.4-1.fc42*%
%TF.CreationDate,2025-09-28T20:56:02+03:00*%
%TF.ProjectId,ea01,65613031-2e6b-4696-9361-645f70636258,rev?*%
%TF.SameCoordinates,Original*%
%TF.FileFunction,Soldermask,Bot*%
%TF.FilePolarity,Negative*%
%FSLAX46Y46*%
G04 Gerber Fmt 4.6, Leading zero omitted, Abs format (unit mm)*
G04 Created by KiCad (PCBNEW 9.0.4-1.fc42) date 2025-09-28 20:56:02*
%MOMM*%
%LPD*%
G01*
G04 APERTURE LIST*
G04 Aperture macros list*
%AMRoundRect*
0 Rectangle with rounded corners*
0 $1 Rounding radius*
0 $2 $3 $4 $5 $6 $7 $8 $9 X,Y pos of 4 corners*
0 Add a 4 corners polygon primitive as box body*
4,1,4,$2,$3,$4,$5,$6,$7,$8,$9,$2,$3,0*
0 Add four circle primitives for the rounded corners*
1,1,$1+$1,$2,$3*
1,1,$1+$1,$4,$5*
1,1,$1+$1,$6,$7*
1,1,$1+$1,$8,$9*
0 Add four rect primitives between the rounded corners*
20,1,$1+$1,$2,$3,$4,$5,0*
20,1,$1+$1,$4,$5,$6,$7,0*
20,1,$1+$1,$6,$7,$8,$9,0*
20,1,$1+$1,$8,$9,$2,$3,0*%
G04 Aperture macros list end*
%ADD10RoundRect,0.250000X-0.550000X-0.550000X0.550000X-0.550000X0.550000X0.550000X-0.550000X0.550000X0*%
%ADD11C,1.600000*%
%ADD12RoundRect,0.250000X-0.550000X0.550000X-0.550000X-0.550000X0.550000X-0.550000X0.550000X0.550000X0*%
%ADD13C,2.000000*%
%ADD14R,1.700000X1.700000*%
%ADD15C,1.700000*%
%ADD16R,3.000000X3.000000*%
%ADD17C,3.000000*%
%ADD18R,1.000000X1.000000*%
%ADD19C,1.000000*%
%ADD20O,1.800000X1.800000*%
%ADD21R,1.800000X1.800000*%
%ADD22C,2.100000*%
%ADD23C,1.750000*%
%ADD24RoundRect,0.250000X0.550000X-0.550000X0.550000X0.550000X-0.550000X0.550000X-0.550000X-0.550000X0*%
%ADD25C,3.500000*%
%ADD26RoundRect,0.225000X0.225000X0.250000X-0.225000X0.250000X-0.225000X-0.250000X0.225000X-0.250000X0*%
%ADD27RoundRect,0.200000X0.200000X0.275000X-0.200000X0.275000X-0.200000X-0.275000X0.200000X-0.275000X0*%
%ADD28RoundRect,0.225000X0.250000X-0.225000X0.250000X0.225000X-0.250000X0.225000X-0.250000X-0.225000X0*%
%ADD29RoundRect,0.200000X-0.275000X0.200000X-0.275000X-0.200000X0.275000X-0.200000X0.275000X0.200000X0*%
%ADD30RoundRect,0.250000X0.650000X-1.000000X0.650000X1.000000X-0.650000X1.000000X-0.650000X-1.000000X0*%
%ADD31RoundRect,0.200000X0.275000X-0.200000X0.275000X0.200000X-0.275000X0.200000X-0.275000X-0.200000X0*%
%ADD32RoundRect,0.250000X1.100000X-0.500000X1.100000X0.500000X-1.100000X0.500000X-1.100000X-0.500000X0*%
%ADD33RoundRect,0.250000X0.475000X-0.250000X0.475000X0.250000X-0.475000X0.250000X-0.475000X-0.250000X0*%
%ADD34RoundRect,0.200000X-0.200000X-0.275000X0.200000X-0.275000X0.200000X0.275000X-0.200000X0.275000X0*%
%ADD35RoundRect,0.250000X0.450000X-0.262500X0.450000X0.262500X-0.450000X0.262500X-0.450000X-0.262500X0*%
%ADD36RoundRect,0.250000X0.250000X0.475000X-0.250000X0.475000X-0.250000X-0.475000X0.250000X-0.475000X0*%
%ADD37RoundRect,0.250000X-0.475000X0.250000X-0.475000X-0.250000X0.475000X-0.250000X0.475000X0.250000X0*%
%ADD38RoundRect,0.225000X-0.225000X-0.250000X0.225000X-0.250000X0.225000X0.250000X-0.225000X0.250000X0*%
%ADD39RoundRect,0.250000X0.262500X0.450000X-0.262500X0.450000X-0.262500X-0.450000X0.262500X-0.450000X0*%
%ADD40RoundRect,0.250000X0.600000X-0.400000X0.600000X0.400000X-0.600000X0.400000X-0.600000X-0.400000X0*%
%ADD41RoundRect,0.150000X0.587500X0.150000X-0.587500X0.150000X-0.587500X-0.150000X0.587500X-0.150000X0*%
%ADD42RoundRect,0.225000X-0.250000X0.225000X-0.250000X-0.225000X0.250000X-0.225000X0.250000X0.225000X0*%
%ADD43RoundRect,0.150000X-0.587500X-0.150000X0.587500X-0.150000X0.587500X0.150000X-0.587500X0.150000X0*%
%ADD44RoundRect,0.249999X-3.750001X1.250001X-3.750001X-1.250001X3.750001X-1.250001X3.750001X1.250001X0*%
%ADD45RoundRect,0.250000X-0.262500X-0.450000X0.262500X-0.450000X0.262500X0.450000X-0.262500X0.450000X0*%
%ADD46RoundRect,0.250000X-0.450000X0.262500X-0.450000X-0.262500X0.450000X-0.262500X0.450000X0.262500X0*%
G04 APERTURE END LIST*
D10*
%TO.C,U13*%
X78695000Y-80975000D03*
D11*
X78695000Y-83515000D03*
X86315000Y-83515000D03*
X86315000Y-80975000D03*
%TD*%
D12*
%TO.C,C62*%
X82750000Y-72347349D03*
D11*
X82750000Y-75847349D03*
%TD*%
D13*
%TO.C,SW3*%
X151750000Y-73500000D03*
X151750000Y-80000000D03*
X147250000Y-73500000D03*
X147250000Y-80000000D03*
%TD*%
D14*
%TO.C,J7*%
X155850000Y-76850000D03*
D15*
X155850000Y-74310000D03*
X155850000Y-71770000D03*
%TD*%
D16*
%TO.C,J4*%
X69700000Y-74250000D03*
D17*
X69700000Y-79330000D03*
%TD*%
D14*
%TO.C,J8*%
X147740000Y-54810000D03*
D15*
X145200000Y-54810000D03*
X142660000Y-54810000D03*
%TD*%
D14*
%TO.C,BT1*%
X151600000Y-64900000D03*
D15*
X151600000Y-67440000D03*
%TD*%
D16*
%TO.C,J5*%
X69700000Y-84760000D03*
D17*
X69700000Y-89840000D03*
%TD*%
D18*
%TO.C,J16*%
X97250000Y-51365000D03*
D19*
X97250000Y-52635000D03*
%TD*%
D20*
%TO.C,K1*%
X82200000Y-55800000D03*
X75200000Y-55800000D03*
D21*
X93700000Y-60500000D03*
D20*
X93700000Y-55800000D03*
%TD*%
D18*
%TO.C,J15*%
X87250000Y-51365000D03*
D19*
X87250000Y-52635000D03*
%TD*%
D22*
%TO.C,SW2*%
X161047500Y-83750000D03*
X161047500Y-90760000D03*
D23*
X163537500Y-85000000D03*
X163537500Y-89500000D03*
%TD*%
D16*
%TO.C,J1*%
X137750000Y-89800000D03*
D17*
X142830000Y-89800000D03*
%TD*%
D16*
%TO.C,J6*%
X92670000Y-89750000D03*
D17*
X97750000Y-89750000D03*
X102830000Y-89750000D03*
%TD*%
D18*
%TO.C,J14*%
X82250000Y-51365000D03*
D19*
X82250000Y-52635000D03*
%TD*%
D18*
%TO.C,J19*%
X128400000Y-51065000D03*
D19*
X128400000Y-52335000D03*
%TD*%
D20*
%TO.C,K2*%
X82200000Y-63582500D03*
X75200000Y-63582500D03*
D21*
X93700000Y-68282500D03*
D20*
X93700000Y-63582500D03*
%TD*%
D10*
%TO.C,U14*%
X78695000Y-87475000D03*
D11*
X78695000Y-90015000D03*
X86315000Y-90015000D03*
X86315000Y-87475000D03*
%TD*%
D18*
%TO.C,J17*%
X92250000Y-51365000D03*
D19*
X92250000Y-52635000D03*
%TD*%
D24*
%TO.C,C2*%
X133750000Y-81902651D03*
D11*
X133750000Y-78402651D03*
%TD*%
D13*
%TO.C,SW4*%
X151750000Y-83500000D03*
X151750000Y-90000000D03*
X147250000Y-83500000D03*
X147250000Y-90000000D03*
%TD*%
D10*
%TO.C,C9*%
X123347349Y-80500000D03*
D11*
X126847349Y-80500000D03*
%TD*%
D14*
%TO.C,J3*%
X137580000Y-51200000D03*
D15*
X140120000Y-51200000D03*
X142660000Y-51200000D03*
X145200000Y-51200000D03*
X147740000Y-51200000D03*
%TD*%
D14*
%TO.C,J2*%
X155922500Y-58750000D03*
D15*
X155922500Y-61250000D03*
X157922500Y-61250000D03*
X157922500Y-58750000D03*
D25*
X160632500Y-53980000D03*
X160632500Y-66020000D03*
%TD*%
D18*
%TO.C,J13*%
X112000000Y-51230000D03*
D19*
X112000000Y-52500000D03*
%TD*%
D12*
%TO.C,U12*%
X104810000Y-73195000D03*
D11*
X102270000Y-73195000D03*
X99730000Y-73195000D03*
X97190000Y-73195000D03*
X97190000Y-80815000D03*
X99730000Y-80815000D03*
X102270000Y-80815000D03*
X104810000Y-80815000D03*
%TD*%
D18*
%TO.C,J18*%
X108750000Y-51230000D03*
D19*
X108750000Y-52500000D03*
%TD*%
D22*
%TO.C,SW1*%
X161010000Y-74000000D03*
X161010000Y-81010000D03*
D23*
X163500000Y-75250000D03*
X163500000Y-79750000D03*
%TD*%
D16*
%TO.C,J11*%
X69700000Y-63670000D03*
D17*
X69700000Y-68750000D03*
%TD*%
D16*
%TO.C,J10*%
X69700000Y-53170000D03*
D17*
X69700000Y-58250000D03*
%TD*%
D26*
%TO.C,C25*%
X128625000Y-55700000D03*
X127075000Y-55700000D03*
%TD*%
D27*
%TO.C,R57*%
X143360000Y-62450000D03*
X141710000Y-62450000D03*
%TD*%
D28*
%TO.C,C58*%
X102750000Y-78525000D03*
X102750000Y-76975000D03*
%TD*%
D29*
%TO.C,R65*%
X99750000Y-69675000D03*
X99750000Y-71325000D03*
%TD*%
D30*
%TO.C,D15*%
X75000000Y-90000000D03*
X75000000Y-86000000D03*
%TD*%
D26*
%TO.C,C36*%
X152625000Y-57500000D03*
X151075000Y-57500000D03*
%TD*%
D28*
%TO.C,C53*%
X137500000Y-72025000D03*
X137500000Y-70475000D03*
%TD*%
D31*
%TO.C,R59*%
X132450000Y-56825000D03*
X132450000Y-55175000D03*
%TD*%
%TO.C,R66*%
X102750000Y-71325000D03*
X102750000Y-69675000D03*
%TD*%
D32*
%TO.C,D21*%
X90250000Y-68150000D03*
X90250000Y-63350000D03*
%TD*%
D27*
%TO.C,R26*%
X112010000Y-59150000D03*
X110360000Y-59150000D03*
%TD*%
D33*
%TO.C,C59*%
X104750000Y-78700000D03*
X104750000Y-76800000D03*
%TD*%
D29*
%TO.C,R30*%
X105812500Y-54525000D03*
X105812500Y-56175000D03*
%TD*%
D28*
%TO.C,C30*%
X125850000Y-65575000D03*
X125850000Y-64025000D03*
%TD*%
D26*
%TO.C,C26*%
X132225000Y-64230000D03*
X130675000Y-64230000D03*
%TD*%
D34*
%TO.C,R55*%
X119170000Y-59500000D03*
X120820000Y-59500000D03*
%TD*%
D26*
%TO.C,C52*%
X120770000Y-58000000D03*
X119220000Y-58000000D03*
%TD*%
D31*
%TO.C,R84*%
X123000000Y-52325000D03*
X123000000Y-50675000D03*
%TD*%
D35*
%TO.C,FB3*%
X156000000Y-56162500D03*
X156000000Y-54337500D03*
%TD*%
D26*
%TO.C,C34*%
X128775000Y-60900000D03*
X127225000Y-60900000D03*
%TD*%
D27*
%TO.C,R15*%
X117125000Y-52250000D03*
X115475000Y-52250000D03*
%TD*%
D28*
%TO.C,C29*%
X131600000Y-61225000D03*
X131600000Y-59675000D03*
%TD*%
D36*
%TO.C,C35*%
X152700000Y-55500000D03*
X150800000Y-55500000D03*
%TD*%
D31*
%TO.C,R68*%
X104250000Y-71325000D03*
X104250000Y-69675000D03*
%TD*%
D30*
%TO.C,D19*%
X94000000Y-84250000D03*
X94000000Y-80250000D03*
%TD*%
D37*
%TO.C,C11*%
X124000000Y-90637500D03*
X124000000Y-92537500D03*
%TD*%
D28*
%TO.C,C4*%
X131500000Y-81025000D03*
X131500000Y-79475000D03*
%TD*%
%TO.C,C63*%
X132750000Y-52250000D03*
X132750000Y-50700000D03*
%TD*%
D38*
%TO.C,C28*%
X130685000Y-62740000D03*
X132235000Y-62740000D03*
%TD*%
D26*
%TO.C,C32*%
X128775000Y-62400000D03*
X127225000Y-62400000D03*
%TD*%
D28*
%TO.C,C54*%
X139000000Y-72025000D03*
X139000000Y-70475000D03*
%TD*%
D39*
%TO.C,FB6*%
X89912500Y-73250000D03*
X88087500Y-73250000D03*
%TD*%
D40*
%TO.C,D17*%
X148750000Y-63750000D03*
X148750000Y-60250000D03*
%TD*%
D29*
%TO.C,R81*%
X134250000Y-50650000D03*
X134250000Y-52300000D03*
%TD*%
D41*
%TO.C,Q5*%
X104000000Y-54400000D03*
X104000000Y-56300000D03*
X102125000Y-55350000D03*
%TD*%
D32*
%TO.C,D20*%
X90250000Y-60400000D03*
X90250000Y-55600000D03*
%TD*%
D34*
%TO.C,R45*%
X122215000Y-59490000D03*
X123865000Y-59490000D03*
%TD*%
D42*
%TO.C,C23*%
X140650000Y-76025000D03*
X140650000Y-77575000D03*
%TD*%
D27*
%TO.C,R29*%
X112010000Y-60620000D03*
X110360000Y-60620000D03*
%TD*%
D34*
%TO.C,R82*%
X135325000Y-59500000D03*
X136975000Y-59500000D03*
%TD*%
D29*
%TO.C,R83*%
X124500000Y-50675000D03*
X124500000Y-52325000D03*
%TD*%
%TO.C,R36*%
X105750000Y-51025000D03*
X105750000Y-52675000D03*
%TD*%
D27*
%TO.C,R14*%
X117125000Y-50750000D03*
X115475000Y-50750000D03*
%TD*%
D37*
%TO.C,C18*%
X142650000Y-75850000D03*
X142650000Y-77750000D03*
%TD*%
D43*
%TO.C,Q3*%
X104674001Y-59741071D03*
X104674001Y-57841071D03*
X106549001Y-58791071D03*
%TD*%
D26*
%TO.C,C44*%
X123805000Y-58020000D03*
X122255000Y-58020000D03*
%TD*%
D31*
%TO.C,R8*%
X119250000Y-52300000D03*
X119250000Y-50650000D03*
%TD*%
D37*
%TO.C,C27*%
X135450000Y-55750000D03*
X135450000Y-57650000D03*
%TD*%
D30*
%TO.C,D14*%
X75000000Y-78800000D03*
X75000000Y-74800000D03*
%TD*%
D28*
%TO.C,C22*%
X140650000Y-81325000D03*
X140650000Y-79775000D03*
%TD*%
D30*
%TO.C,D6*%
X133000000Y-91250000D03*
X133000000Y-87250000D03*
%TD*%
D31*
%TO.C,R38*%
X142760000Y-72845000D03*
X142760000Y-71195000D03*
%TD*%
D19*
%TO.C,Y3*%
X138900000Y-66350000D03*
X138900000Y-68250000D03*
D44*
X145900000Y-67300000D03*
%TD*%
D45*
%TO.C,R5*%
X118087500Y-92250000D03*
X119912500Y-92250000D03*
%TD*%
D38*
%TO.C,C57*%
X141760000Y-63950000D03*
X143310000Y-63950000D03*
%TD*%
D39*
%TO.C,FB5*%
X89912500Y-71200000D03*
X88087500Y-71200000D03*
%TD*%
D29*
%TO.C,R7*%
X120750000Y-50650000D03*
X120750000Y-52300000D03*
%TD*%
D31*
%TO.C,R67*%
X98200000Y-71325000D03*
X98200000Y-69675000D03*
%TD*%
D27*
%TO.C,R32*%
X113305000Y-56090000D03*
X111655000Y-56090000D03*
%TD*%
D41*
%TO.C,Q7*%
X104000000Y-50900000D03*
X104000000Y-52800000D03*
X102125000Y-51850000D03*
%TD*%
D27*
%TO.C,R35*%
X113305000Y-54620000D03*
X111655000Y-54620000D03*
%TD*%
D33*
%TO.C,C10*%
X130550000Y-56650000D03*
X130550000Y-54750000D03*
%TD*%
%TO.C,C21*%
X142650000Y-81475000D03*
X142650000Y-79575000D03*
%TD*%
D31*
%TO.C,R39*%
X144330000Y-72855000D03*
X144330000Y-71205000D03*
%TD*%
D30*
%TO.C,D18*%
X90500000Y-84250000D03*
X90500000Y-80250000D03*
%TD*%
D46*
%TO.C,R6*%
X122000000Y-90675000D03*
X122000000Y-92500000D03*
%TD*%
D28*
%TO.C,C5*%
X136000000Y-81025000D03*
X136000000Y-79475000D03*
%TD*%
D38*
%TO.C,C31*%
X128195000Y-67300000D03*
X129745000Y-67300000D03*
%TD*%
%TO.C,C14*%
X140925000Y-58750000D03*
X142475000Y-58750000D03*
%TD*%
D31*
%TO.C,R24*%
X102875000Y-59600000D03*
X102875000Y-57950000D03*
%TD*%
D42*
%TO.C,C33*%
X128000000Y-57725000D03*
X128000000Y-59275000D03*
%TD*%
D40*
%TO.C,D16*%
X146500000Y-63750000D03*
X146500000Y-60250000D03*
%TD*%
M02*
