M48
; DRILL file {KiCad 9.0.4-1.fc42} date 2025-09-28T20:58:05+0300
; FORMAT={-:-/ absolute / metric / decimal}
; #@! TF.CreationDate,2025-09-28T20:58:05+03:00
; #@! TF.GenerationSoftware,Kicad,Pcbnew,9.0.4-1.fc42
; #@! TF.FileFunction,Plated,1,2,PTH
FMAT,2
METRIC
; #@! TA.AperFunction,Plated,PTH,ViaDrill
T1C0.300
; #@! TA.AperFunction,Plated,PTH,ComponentDrill
T2C0.500
; #@! TA.AperFunction,Plated,PTH,ComponentDrill
T3C0.650
; #@! TA.AperFunction,Plated,PTH,ComponentDrill
T4C0.800
; #@! TA.AperFunction,Plated,PTH,ComponentDrill
T5C0.920
; #@! TA.AperFunction,Plated,PTH,ComponentDrill
T6C0.990
; #@! TA.AperFunction,Plated,PTH,ComponentDrill
T7C1.000
; #@! TA.AperFunction,Plated,PTH,ComponentDrill
T8C1.100
; #@! TA.AperFunction,Plated,PTH,ComponentDrill
T9C1.300
; #@! TA.AperFunction,Plated,PTH,ComponentDrill
T10C1.520
; #@! TA.AperFunction,Plated,PTH,ComponentDrill
T11C2.330
%
G90
G05
T1
X75.8Y-89.0
X75.9Y-78.2
X76.0Y-76.2
X76.4Y-86.5
X76.9Y-74.1
X86.1Y-78.3
X87.9Y-83.5
X88.0Y-78.3
X88.1Y-90.0
X89.9Y-73.3
X89.9Y-74.0
X89.9Y-74.7
X90.8Y-50.85
X91.2Y-77.6
X91.4Y-79.4
X91.4Y-80.7
X91.8Y-58.0
X92.4Y-58.0
X92.5Y-65.9
X93.0Y-79.4
X93.0Y-80.7
X93.1Y-58.0
X93.1Y-65.9
X93.1Y-72.1
X93.6Y-73.4
X93.7Y-65.9
X93.9Y-72.1
X94.7Y-72.1
X97.2Y-78.4
X98.1Y-65.3
X98.2Y-75.2
X98.25Y-53.9
X98.3Y-57.6
X98.9Y-65.3
X99.0Y-57.6
X99.4Y-54.65
X100.1Y-78.4
X100.81Y-50.49
X101.35Y-50.5
X101.4Y-53.6
X101.4Y-56.7
X101.4Y-69.1
X101.6Y-59.6
X102.3Y-50.85
X102.3Y-63.9
X102.3Y-66.9
X102.8Y-62.4
X103.2Y-75.0
X103.3Y-82.4
X104.0Y-51.8
X104.2Y-55.4
X104.8Y-58.8
X104.81Y-78.6
X105.25Y-82.925
X106.005Y-57.735
X106.54Y-53.5
X106.65Y-59.8
X106.9Y-68.1
X107.2Y-50.6
X107.325Y-55.94
X107.45Y-57.93
X107.7Y-61.9
X108.2Y-59.9
X109.3Y-88.6
X109.3Y-90.4
X110.0Y-50.6
X110.1Y-56.8
X110.6Y-68.4
X111.8Y-62.8
X111.8Y-66.7
X112.0Y-92.5
X112.2Y-65.6
X112.7Y-68.5
X113.7Y-50.7
X113.7Y-57.5
X113.8Y-58.7
X114.53Y-60.66
X115.1Y-64.3
X115.162Y-50.595
X115.3Y-92.9
X115.41Y-60.42
X115.5Y-69.2
X116.0Y-54.7
X116.1Y-68.5
X116.3Y-56.5
X116.5Y-66.6
X116.55Y-53.85
X116.6Y-59.0
X117.1Y-70.1
X117.145Y-53.315
X117.15Y-50.7
X117.5Y-63.6
X117.59Y-60.09
X117.6Y-92.8
X117.8Y-70.7
X118.0Y-58.0
X118.0Y-69.5
X118.2Y-63.0
X118.4Y-54.35
X118.4Y-65.4
X119.7Y-54.0
X119.9Y-92.4
X120.6Y-62.6
X120.72Y-60.487
X120.8Y-50.595
X121.55Y-62.6
X122.0Y-65.4
X122.2Y-56.8
X122.342Y-62.487
X123.3Y-85.5
X123.3Y-87.0
X123.8Y-63.0
X124.35Y-70.4
X124.4Y-72.2
X124.5Y-50.45
X124.92Y-58.62
X125.4Y-73.8
X125.75Y-65.6
X127.1Y-62.35
X127.15Y-60.9
X128.1Y-59.3
X128.1Y-67.3
X128.223Y-64.19
X128.3Y-75.95
X128.6Y-60.95
X128.6Y-62.45
X128.95Y-69.6
X129.016Y-55.734
X129.06Y-63.788
X129.2Y-71.0
X129.2Y-73.0
X129.5Y-50.2
X129.85Y-67.26
X130.0Y-86.6
X130.0Y-92.0
X130.25Y-76.0
X130.6Y-62.7
X130.61Y-59.31
X130.618Y-64.2
X130.9Y-61.25
X131.4Y-52.6
X131.45Y-56.65
X131.6Y-51.7
X132.01Y-62.73
X132.11Y-66.65
X132.4Y-54.225
X132.4Y-56.8
X133.0Y-69.45
X133.05Y-66.65
X134.3Y-50.65
X134.475Y-65.75
X134.646Y-61.716
X134.739Y-60.921
X134.9Y-57.65
X134.93Y-59.52
X135.0Y-73.4
X135.25Y-53.2
X135.25Y-75.3
X136.0Y-50.2
X136.0Y-64.1
X136.0Y-67.3
X136.0Y-73.4
X136.1Y-74.65
X136.3Y-72.0
X136.8Y-73.4
X136.975Y-59.5
X137.45Y-57.15
X137.6Y-73.4
X137.64Y-64.31
X137.726Y-65.126
X138.1Y-54.0
X139.05Y-62.75
X139.3Y-54.95
X139.406Y-55.743
X139.91Y-62.89
X140.13Y-63.94
X140.275Y-71.925
X140.7Y-79.8
X140.8Y-59.0
X142.5Y-58.75
X142.7Y-60.06
X142.75Y-74.65
X142.75Y-75.25
X142.75Y-75.95
X142.8Y-69.55
X143.16Y-61.0
X143.2Y-64.0
X143.4Y-62.4
X143.95Y-82.75
X143.95Y-83.45
X143.95Y-84.1
X143.95Y-84.85
X144.2Y-60.06
X144.86Y-69.88
X145.2Y-53.0
X146.3Y-56.9
X146.6Y-92.8
X147.3Y-65.1
X147.7Y-62.0
X148.2Y-60.2
X148.23Y-69.68
X148.4Y-60.9
X148.6Y-67.6
X148.75Y-63.525
X149.61Y-63.55
X150.4Y-50.0
X150.4Y-70.6
X151.3Y-59.0
X151.4Y-92.8
X153.2Y-70.6
X155.9Y-92.8
X156.4Y-64.05
X156.5Y-87.3
X157.1Y-83.7
X157.199Y-64.099
X157.8Y-80.1
X158.1Y-75.0
X159.6Y-70.6
X160.0Y-92.8
X162.8Y-70.6
X163.8Y-71.9
X163.9Y-92.8
T2
X138.9Y-66.35
X138.9Y-68.25
T3
X82.25Y-51.365
X82.25Y-52.635
X87.25Y-51.365
X87.25Y-52.635
X92.25Y-51.365
X92.25Y-52.635
X97.25Y-51.365
X97.25Y-52.635
X108.75Y-51.23
X108.75Y-52.5
X112.0Y-51.23
X112.0Y-52.5
X128.4Y-51.065
X128.4Y-52.335
T4
X78.695Y-80.975
X78.695Y-83.515
X78.695Y-87.475
X78.695Y-90.015
X82.75Y-72.347
X82.75Y-75.847
X86.315Y-80.975
X86.315Y-83.515
X86.315Y-87.475
X86.315Y-90.015
X97.19Y-73.195
X97.19Y-80.815
X99.73Y-73.195
X99.73Y-80.815
X102.27Y-73.195
X102.27Y-80.815
X104.81Y-73.195
X104.81Y-80.815
X123.347Y-80.5
X126.847Y-80.5
X133.75Y-78.403
X133.75Y-81.903
T5
X155.922Y-58.75
X155.922Y-61.25
X157.922Y-58.75
X157.922Y-61.25
T6
X163.5Y-75.25
X163.5Y-79.75
X163.537Y-85.0
X163.537Y-89.5
T7
X137.58Y-51.2
X140.12Y-51.2
X142.66Y-51.2
X142.66Y-54.81
X145.2Y-51.2
X145.2Y-54.81
X147.74Y-51.2
X147.74Y-54.81
X151.6Y-64.9
X151.6Y-67.44
X155.85Y-71.77
X155.85Y-74.31
X155.85Y-76.85
T8
X75.2Y-55.8
X75.2Y-63.582
X82.2Y-55.8
X82.2Y-63.582
X93.7Y-55.8
X93.7Y-60.5
X93.7Y-63.582
X93.7Y-68.282
X147.25Y-73.5
X147.25Y-80.0
X147.25Y-83.5
X147.25Y-90.0
X151.75Y-73.5
X151.75Y-80.0
X151.75Y-83.5
X151.75Y-90.0
T9
X161.01Y-74.0
X161.01Y-81.01
X161.047Y-83.75
X161.047Y-90.76
T10
X69.7Y-53.17
X69.7Y-58.25
X69.7Y-63.67
X69.7Y-68.75
X69.7Y-74.25
X69.7Y-79.33
X69.7Y-84.76
X69.7Y-89.84
X92.67Y-89.75
X97.75Y-89.75
X102.83Y-89.75
X137.75Y-89.8
X142.83Y-89.8
T11
X160.632Y-53.98
X160.632Y-66.02
M30
