%TF.GenerationSoftware,KiCad,Pcbnew,9.0.4-1.fc42*%
%TF.CreationDate,2025-09-30T21:03:08+03:00*%
%TF.ProjectId,ea01,65613031-2e6b-4696-9361-645f70636258,rev?*%
%TF.SameCoordinates,Original*%
%TF.FileFunction,Legend,Bot*%
%TF.FilePolarity,Positive*%
%FSLAX46Y46*%
G04 Gerber Fmt 4.6, Leading zero omitted, Abs format (unit mm)*
G04 Created by KiCad (PCBNEW 9.0.4-1.fc42) date 2025-09-30 21:03:08*
%MOMM*%
%LPD*%
G01*
G04 APERTURE LIST*
%ADD10C,0.100000*%
%ADD11C,0.120000*%
G04 APERTURE END LIST*
D10*
X134881830Y-53768323D02*
X134500877Y-53768323D01*
X134958020Y-53996895D02*
X134691353Y-53196895D01*
X134691353Y-53196895D02*
X134424687Y-53996895D01*
X134158020Y-53996895D02*
X134158020Y-53196895D01*
X134158020Y-53196895D02*
X133967544Y-53196895D01*
X133967544Y-53196895D02*
X133853258Y-53234990D01*
X133853258Y-53234990D02*
X133777068Y-53311180D01*
X133777068Y-53311180D02*
X133738973Y-53387371D01*
X133738973Y-53387371D02*
X133700877Y-53539752D01*
X133700877Y-53539752D02*
X133700877Y-53654038D01*
X133700877Y-53654038D02*
X133738973Y-53806419D01*
X133738973Y-53806419D02*
X133777068Y-53882609D01*
X133777068Y-53882609D02*
X133853258Y-53958800D01*
X133853258Y-53958800D02*
X133967544Y-53996895D01*
X133967544Y-53996895D02*
X134158020Y-53996895D01*
X133358020Y-53996895D02*
X133358020Y-53196895D01*
X133358020Y-53196895D02*
X133167544Y-53196895D01*
X133167544Y-53196895D02*
X133053258Y-53234990D01*
X133053258Y-53234990D02*
X132977068Y-53311180D01*
X132977068Y-53311180D02*
X132938973Y-53387371D01*
X132938973Y-53387371D02*
X132900877Y-53539752D01*
X132900877Y-53539752D02*
X132900877Y-53654038D01*
X132900877Y-53654038D02*
X132938973Y-53806419D01*
X132938973Y-53806419D02*
X132977068Y-53882609D01*
X132977068Y-53882609D02*
X133053258Y-53958800D01*
X133053258Y-53958800D02*
X133167544Y-53996895D01*
X133167544Y-53996895D02*
X133358020Y-53996895D01*
X132100877Y-53996895D02*
X132367544Y-53615942D01*
X132558020Y-53996895D02*
X132558020Y-53196895D01*
X132558020Y-53196895D02*
X132253258Y-53196895D01*
X132253258Y-53196895D02*
X132177068Y-53234990D01*
X132177068Y-53234990D02*
X132138973Y-53273085D01*
X132138973Y-53273085D02*
X132100877Y-53349276D01*
X132100877Y-53349276D02*
X132100877Y-53463561D01*
X132100877Y-53463561D02*
X132138973Y-53539752D01*
X132138973Y-53539752D02*
X132177068Y-53577847D01*
X132177068Y-53577847D02*
X132253258Y-53615942D01*
X132253258Y-53615942D02*
X132558020Y-53615942D01*
X124124687Y-53908940D02*
X124581830Y-53908940D01*
X124353258Y-53908940D02*
X124353258Y-53108940D01*
X124353258Y-53108940D02*
X124429449Y-53223225D01*
X124429449Y-53223225D02*
X124505639Y-53299416D01*
X124505639Y-53299416D02*
X124581830Y-53337511D01*
X123019924Y-53108940D02*
X122943734Y-53108940D01*
X122943734Y-53108940D02*
X122867543Y-53147035D01*
X122867543Y-53147035D02*
X122829448Y-53185130D01*
X122829448Y-53185130D02*
X122791353Y-53261321D01*
X122791353Y-53261321D02*
X122753258Y-53413702D01*
X122753258Y-53413702D02*
X122753258Y-53604178D01*
X122753258Y-53604178D02*
X122791353Y-53756559D01*
X122791353Y-53756559D02*
X122829448Y-53832749D01*
X122829448Y-53832749D02*
X122867543Y-53870845D01*
X122867543Y-53870845D02*
X122943734Y-53908940D01*
X122943734Y-53908940D02*
X123019924Y-53908940D01*
X123019924Y-53908940D02*
X123096115Y-53870845D01*
X123096115Y-53870845D02*
X123134210Y-53832749D01*
X123134210Y-53832749D02*
X123172305Y-53756559D01*
X123172305Y-53756559D02*
X123210401Y-53604178D01*
X123210401Y-53604178D02*
X123210401Y-53413702D01*
X123210401Y-53413702D02*
X123172305Y-53261321D01*
X123172305Y-53261321D02*
X123134210Y-53185130D01*
X123134210Y-53185130D02*
X123096115Y-53147035D01*
X123096115Y-53147035D02*
X123019924Y-53108940D01*
X124658020Y-54396895D02*
X124391353Y-55196895D01*
X124391353Y-55196895D02*
X124124687Y-54396895D01*
X123858020Y-55196895D02*
X123858020Y-54396895D01*
X123858020Y-54701657D02*
X123781830Y-54663561D01*
X123781830Y-54663561D02*
X123629449Y-54663561D01*
X123629449Y-54663561D02*
X123553258Y-54701657D01*
X123553258Y-54701657D02*
X123515163Y-54739752D01*
X123515163Y-54739752D02*
X123477068Y-54815942D01*
X123477068Y-54815942D02*
X123477068Y-55044514D01*
X123477068Y-55044514D02*
X123515163Y-55120704D01*
X123515163Y-55120704D02*
X123553258Y-55158800D01*
X123553258Y-55158800D02*
X123629449Y-55196895D01*
X123629449Y-55196895D02*
X123781830Y-55196895D01*
X123781830Y-55196895D02*
X123858020Y-55158800D01*
X122981829Y-54396895D02*
X122905639Y-54396895D01*
X122905639Y-54396895D02*
X122829448Y-54434990D01*
X122829448Y-54434990D02*
X122791353Y-54473085D01*
X122791353Y-54473085D02*
X122753258Y-54549276D01*
X122753258Y-54549276D02*
X122715163Y-54701657D01*
X122715163Y-54701657D02*
X122715163Y-54892133D01*
X122715163Y-54892133D02*
X122753258Y-55044514D01*
X122753258Y-55044514D02*
X122791353Y-55120704D01*
X122791353Y-55120704D02*
X122829448Y-55158800D01*
X122829448Y-55158800D02*
X122905639Y-55196895D01*
X122905639Y-55196895D02*
X122981829Y-55196895D01*
X122981829Y-55196895D02*
X123058020Y-55158800D01*
X123058020Y-55158800D02*
X123096115Y-55120704D01*
X123096115Y-55120704D02*
X123134210Y-55044514D01*
X123134210Y-55044514D02*
X123172306Y-54892133D01*
X123172306Y-54892133D02*
X123172306Y-54701657D01*
X123172306Y-54701657D02*
X123134210Y-54549276D01*
X123134210Y-54549276D02*
X123096115Y-54473085D01*
X123096115Y-54473085D02*
X123058020Y-54434990D01*
X123058020Y-54434990D02*
X122981829Y-54396895D01*
X120324687Y-53908940D02*
X120781830Y-53908940D01*
X120553258Y-53908940D02*
X120553258Y-53108940D01*
X120553258Y-53108940D02*
X120629449Y-53223225D01*
X120629449Y-53223225D02*
X120705639Y-53299416D01*
X120705639Y-53299416D02*
X120781830Y-53337511D01*
X119219924Y-53108940D02*
X119143734Y-53108940D01*
X119143734Y-53108940D02*
X119067543Y-53147035D01*
X119067543Y-53147035D02*
X119029448Y-53185130D01*
X119029448Y-53185130D02*
X118991353Y-53261321D01*
X118991353Y-53261321D02*
X118953258Y-53413702D01*
X118953258Y-53413702D02*
X118953258Y-53604178D01*
X118953258Y-53604178D02*
X118991353Y-53756559D01*
X118991353Y-53756559D02*
X119029448Y-53832749D01*
X119029448Y-53832749D02*
X119067543Y-53870845D01*
X119067543Y-53870845D02*
X119143734Y-53908940D01*
X119143734Y-53908940D02*
X119219924Y-53908940D01*
X119219924Y-53908940D02*
X119296115Y-53870845D01*
X119296115Y-53870845D02*
X119334210Y-53832749D01*
X119334210Y-53832749D02*
X119372305Y-53756559D01*
X119372305Y-53756559D02*
X119410401Y-53604178D01*
X119410401Y-53604178D02*
X119410401Y-53413702D01*
X119410401Y-53413702D02*
X119372305Y-53261321D01*
X119372305Y-53261321D02*
X119334210Y-53185130D01*
X119334210Y-53185130D02*
X119296115Y-53147035D01*
X119296115Y-53147035D02*
X119219924Y-53108940D01*
X120858020Y-54396895D02*
X120591353Y-55196895D01*
X120591353Y-55196895D02*
X120324687Y-54396895D01*
X120058020Y-55196895D02*
X120058020Y-54396895D01*
X120058020Y-54701657D02*
X119981830Y-54663561D01*
X119981830Y-54663561D02*
X119829449Y-54663561D01*
X119829449Y-54663561D02*
X119753258Y-54701657D01*
X119753258Y-54701657D02*
X119715163Y-54739752D01*
X119715163Y-54739752D02*
X119677068Y-54815942D01*
X119677068Y-54815942D02*
X119677068Y-55044514D01*
X119677068Y-55044514D02*
X119715163Y-55120704D01*
X119715163Y-55120704D02*
X119753258Y-55158800D01*
X119753258Y-55158800D02*
X119829449Y-55196895D01*
X119829449Y-55196895D02*
X119981830Y-55196895D01*
X119981830Y-55196895D02*
X120058020Y-55158800D01*
X118915163Y-55196895D02*
X119372306Y-55196895D01*
X119143734Y-55196895D02*
X119143734Y-54396895D01*
X119143734Y-54396895D02*
X119219925Y-54511180D01*
X119219925Y-54511180D02*
X119296115Y-54587371D01*
X119296115Y-54587371D02*
X119372306Y-54625466D01*
D11*
%TO.C,C25*%
X127990580Y-55190000D02*
X127709420Y-55190000D01*
X127990580Y-56210000D02*
X127709420Y-56210000D01*
%TO.C,R57*%
X142772258Y-61927500D02*
X142297742Y-61927500D01*
X142772258Y-62972500D02*
X142297742Y-62972500D01*
%TO.C,C58*%
X102240000Y-77890580D02*
X102240000Y-77609420D01*
X103260000Y-77890580D02*
X103260000Y-77609420D01*
%TO.C,R65*%
X99227500Y-70262742D02*
X99227500Y-70737258D01*
X100272500Y-70262742D02*
X100272500Y-70737258D01*
%TO.C,D15*%
X73350000Y-91510000D02*
X73350000Y-86000000D01*
X76650000Y-91510000D02*
X73350000Y-91510000D01*
X76650000Y-91510000D02*
X76650000Y-86000000D01*
%TO.C,C36*%
X151990580Y-56990000D02*
X151709420Y-56990000D01*
X151990580Y-58010000D02*
X151709420Y-58010000D01*
%TO.C,C53*%
X136990000Y-71390580D02*
X136990000Y-71109420D01*
X138010000Y-71390580D02*
X138010000Y-71109420D01*
%TO.C,R59*%
X131927500Y-56237258D02*
X131927500Y-55762742D01*
X132972500Y-56237258D02*
X132972500Y-55762742D01*
%TO.C,R66*%
X102227500Y-70737258D02*
X102227500Y-70262742D01*
X103272500Y-70737258D02*
X103272500Y-70262742D01*
%TO.C,D21*%
X88640000Y-69160000D02*
X88640000Y-63350000D01*
X91860000Y-63350000D02*
X91860000Y-69160000D01*
X91860000Y-69160000D02*
X88640000Y-69160000D01*
%TO.C,R26*%
X111422258Y-58627500D02*
X110947742Y-58627500D01*
X111422258Y-59672500D02*
X110947742Y-59672500D01*
%TO.C,C59*%
X104015000Y-78011252D02*
X104015000Y-77488748D01*
X105485000Y-78011252D02*
X105485000Y-77488748D01*
%TO.C,R30*%
X105290000Y-55112742D02*
X105290000Y-55587258D01*
X106335000Y-55112742D02*
X106335000Y-55587258D01*
%TO.C,C30*%
X125340000Y-64940580D02*
X125340000Y-64659420D01*
X126360000Y-64940580D02*
X126360000Y-64659420D01*
%TO.C,C26*%
X131590580Y-63720000D02*
X131309420Y-63720000D01*
X131590580Y-64740000D02*
X131309420Y-64740000D01*
%TO.C,R55*%
X119757742Y-58977500D02*
X120232258Y-58977500D01*
X119757742Y-60022500D02*
X120232258Y-60022500D01*
%TO.C,C52*%
X120135580Y-57490000D02*
X119854420Y-57490000D01*
X120135580Y-58510000D02*
X119854420Y-58510000D01*
%TO.C,R84*%
X122477500Y-51737258D02*
X122477500Y-51262742D01*
X123522500Y-51737258D02*
X123522500Y-51262742D01*
%TO.C,FB3*%
X155265000Y-55477064D02*
X155265000Y-55022936D01*
X156735000Y-55477064D02*
X156735000Y-55022936D01*
%TO.C,C34*%
X128140580Y-60390000D02*
X127859420Y-60390000D01*
X128140580Y-61410000D02*
X127859420Y-61410000D01*
%TO.C,R15*%
X116537258Y-51727500D02*
X116062742Y-51727500D01*
X116537258Y-52772500D02*
X116062742Y-52772500D01*
%TO.C,C29*%
X131090000Y-60590580D02*
X131090000Y-60309420D01*
X132110000Y-60590580D02*
X132110000Y-60309420D01*
%TO.C,C35*%
X152011252Y-54765000D02*
X151488748Y-54765000D01*
X152011252Y-56235000D02*
X151488748Y-56235000D01*
%TO.C,R68*%
X103727500Y-70737258D02*
X103727500Y-70262742D01*
X104772500Y-70737258D02*
X104772500Y-70262742D01*
%TO.C,D19*%
X92350000Y-85760000D02*
X92350000Y-80250000D01*
X95650000Y-85760000D02*
X92350000Y-85760000D01*
X95650000Y-85760000D02*
X95650000Y-80250000D01*
%TO.C,C11*%
X123265000Y-91326248D02*
X123265000Y-91848752D01*
X124735000Y-91326248D02*
X124735000Y-91848752D01*
%TO.C,C4*%
X130990000Y-80390580D02*
X130990000Y-80109420D01*
X132010000Y-80390580D02*
X132010000Y-80109420D01*
%TO.C,C63*%
X135959420Y-58990000D02*
X136240580Y-58990000D01*
X135959420Y-60010000D02*
X136240580Y-60010000D01*
%TO.C,C28*%
X131319420Y-62230000D02*
X131600580Y-62230000D01*
X131319420Y-63250000D02*
X131600580Y-63250000D01*
%TO.C,C32*%
X128140580Y-61890000D02*
X127859420Y-61890000D01*
X128140580Y-62910000D02*
X127859420Y-62910000D01*
%TO.C,C54*%
X138490000Y-71390580D02*
X138490000Y-71109420D01*
X139510000Y-71390580D02*
X139510000Y-71109420D01*
%TO.C,FB6*%
X89227064Y-72515000D02*
X88772936Y-72515000D01*
X89227064Y-73985000D02*
X88772936Y-73985000D01*
%TO.C,D17*%
X147640000Y-64660000D02*
X147640000Y-60250000D01*
X149860000Y-60250000D02*
X149860000Y-64660000D01*
X149860000Y-64660000D02*
X147640000Y-64660000D01*
%TO.C,R81*%
X133727500Y-51162742D02*
X133727500Y-51637258D01*
X134772500Y-51162742D02*
X134772500Y-51637258D01*
%TO.C,Q5*%
X103062500Y-53790000D02*
X102412500Y-53790000D01*
X103062500Y-53790000D02*
X103712500Y-53790000D01*
X103062500Y-56910000D02*
X102412500Y-56910000D01*
X103062500Y-56910000D02*
X103712500Y-56910000D01*
X104225000Y-53840000D02*
X103985000Y-53510000D01*
X104465000Y-53510000D01*
X104225000Y-53840000D01*
G36*
X104225000Y-53840000D02*
G01*
X103985000Y-53510000D01*
X104465000Y-53510000D01*
X104225000Y-53840000D01*
G37*
%TO.C,D20*%
X88640000Y-61410000D02*
X88640000Y-55600000D01*
X91860000Y-55600000D02*
X91860000Y-61410000D01*
X91860000Y-61410000D02*
X88640000Y-61410000D01*
%TO.C,R45*%
X122802742Y-58967500D02*
X123277258Y-58967500D01*
X122802742Y-60012500D02*
X123277258Y-60012500D01*
%TO.C,C23*%
X140140000Y-76659420D02*
X140140000Y-76940580D01*
X141160000Y-76659420D02*
X141160000Y-76940580D01*
%TO.C,R29*%
X111422258Y-60097500D02*
X110947742Y-60097500D01*
X111422258Y-61142500D02*
X110947742Y-61142500D01*
%TO.C,R82*%
X132177500Y-51637258D02*
X132177500Y-51162742D01*
X133222500Y-51637258D02*
X133222500Y-51162742D01*
%TO.C,R83*%
X123977500Y-51262742D02*
X123977500Y-51737258D01*
X125022500Y-51262742D02*
X125022500Y-51737258D01*
%TO.C,R36*%
X105227500Y-51612742D02*
X105227500Y-52087258D01*
X106272500Y-51612742D02*
X106272500Y-52087258D01*
%TO.C,R14*%
X116537258Y-50227500D02*
X116062742Y-50227500D01*
X116537258Y-51272500D02*
X116062742Y-51272500D01*
%TO.C,C18*%
X141915000Y-76538748D02*
X141915000Y-77061252D01*
X143385000Y-76538748D02*
X143385000Y-77061252D01*
%TO.C,Q3*%
X105611501Y-57231071D02*
X104961501Y-57231071D01*
X105611501Y-57231071D02*
X106261501Y-57231071D01*
X105611501Y-60351071D02*
X104961501Y-60351071D01*
X105611501Y-60351071D02*
X106261501Y-60351071D01*
X104689001Y-60631071D02*
X104209001Y-60631071D01*
X104449001Y-60301071D01*
X104689001Y-60631071D01*
G36*
X104689001Y-60631071D02*
G01*
X104209001Y-60631071D01*
X104449001Y-60301071D01*
X104689001Y-60631071D01*
G37*
%TO.C,C44*%
X123170580Y-57510000D02*
X122889420Y-57510000D01*
X123170580Y-58530000D02*
X122889420Y-58530000D01*
%TO.C,R8*%
X118727500Y-51712258D02*
X118727500Y-51237742D01*
X119772500Y-51712258D02*
X119772500Y-51237742D01*
%TO.C,C27*%
X134715000Y-56438748D02*
X134715000Y-56961252D01*
X136185000Y-56438748D02*
X136185000Y-56961252D01*
%TO.C,D14*%
X73350000Y-80310000D02*
X73350000Y-74800000D01*
X76650000Y-80310000D02*
X73350000Y-80310000D01*
X76650000Y-80310000D02*
X76650000Y-74800000D01*
%TO.C,C22*%
X140140000Y-80690580D02*
X140140000Y-80409420D01*
X141160000Y-80690580D02*
X141160000Y-80409420D01*
%TO.C,D6*%
X131350000Y-92760000D02*
X131350000Y-87250000D01*
X134650000Y-92760000D02*
X131350000Y-92760000D01*
X134650000Y-92760000D02*
X134650000Y-87250000D01*
%TO.C,R38*%
X142237500Y-72257258D02*
X142237500Y-71782742D01*
X143282500Y-72257258D02*
X143282500Y-71782742D01*
%TO.C,Y3*%
X140020000Y-66350000D02*
X139460000Y-66350000D01*
X140020000Y-68250000D02*
X139460000Y-68250000D01*
X141140000Y-65540000D02*
X141140000Y-69060000D01*
X141140000Y-66755000D02*
X140020000Y-66350000D01*
X141140000Y-67845000D02*
X140020000Y-68250000D01*
X141140000Y-69060000D02*
X142240000Y-69060000D01*
X142240000Y-65540000D02*
X141140000Y-65540000D01*
%TO.C,R5*%
X118772936Y-91515000D02*
X119227064Y-91515000D01*
X118772936Y-92985000D02*
X119227064Y-92985000D01*
%TO.C,C57*%
X142394420Y-63440000D02*
X142675580Y-63440000D01*
X142394420Y-64460000D02*
X142675580Y-64460000D01*
%TO.C,FB5*%
X89227064Y-70465000D02*
X88772936Y-70465000D01*
X89227064Y-71935000D02*
X88772936Y-71935000D01*
%TO.C,R7*%
X120227500Y-51237742D02*
X120227500Y-51712258D01*
X121272500Y-51237742D02*
X121272500Y-51712258D01*
%TO.C,R67*%
X97677500Y-70737258D02*
X97677500Y-70262742D01*
X98722500Y-70737258D02*
X98722500Y-70262742D01*
%TO.C,R32*%
X112717258Y-55567500D02*
X112242742Y-55567500D01*
X112717258Y-56612500D02*
X112242742Y-56612500D01*
%TO.C,Q7*%
X103062500Y-50290000D02*
X102412500Y-50290000D01*
X103062500Y-50290000D02*
X103712500Y-50290000D01*
X103062500Y-53410000D02*
X102412500Y-53410000D01*
X103062500Y-53410000D02*
X103712500Y-53410000D01*
X104225000Y-50340000D02*
X103985000Y-50010000D01*
X104465000Y-50010000D01*
X104225000Y-50340000D01*
G36*
X104225000Y-50340000D02*
G01*
X103985000Y-50010000D01*
X104465000Y-50010000D01*
X104225000Y-50340000D01*
G37*
%TO.C,R35*%
X112717258Y-54097500D02*
X112242742Y-54097500D01*
X112717258Y-55142500D02*
X112242742Y-55142500D01*
%TO.C,C10*%
X129815000Y-55961252D02*
X129815000Y-55438748D01*
X131285000Y-55961252D02*
X131285000Y-55438748D01*
%TO.C,C21*%
X141915000Y-80786252D02*
X141915000Y-80263748D01*
X143385000Y-80786252D02*
X143385000Y-80263748D01*
%TO.C,R39*%
X143807500Y-72267258D02*
X143807500Y-71792742D01*
X144852500Y-72267258D02*
X144852500Y-71792742D01*
%TO.C,D18*%
X88850000Y-85760000D02*
X88850000Y-80250000D01*
X92150000Y-85760000D02*
X88850000Y-85760000D01*
X92150000Y-85760000D02*
X92150000Y-80250000D01*
%TO.C,R6*%
X121265000Y-91360436D02*
X121265000Y-91814564D01*
X122735000Y-91360436D02*
X122735000Y-91814564D01*
%TO.C,C5*%
X135490000Y-80390580D02*
X135490000Y-80109420D01*
X136510000Y-80390580D02*
X136510000Y-80109420D01*
%TO.C,C31*%
X128829420Y-66790000D02*
X129110580Y-66790000D01*
X128829420Y-67810000D02*
X129110580Y-67810000D01*
%TO.C,C14*%
X141559420Y-58240000D02*
X141840580Y-58240000D01*
X141559420Y-59260000D02*
X141840580Y-59260000D01*
%TO.C,R24*%
X102352500Y-59012258D02*
X102352500Y-58537742D01*
X103397500Y-59012258D02*
X103397500Y-58537742D01*
%TO.C,C33*%
X127490000Y-58359420D02*
X127490000Y-58640580D01*
X128510000Y-58359420D02*
X128510000Y-58640580D01*
%TO.C,D16*%
X145390000Y-64660000D02*
X145390000Y-60250000D01*
X147610000Y-60250000D02*
X147610000Y-64660000D01*
X147610000Y-64660000D02*
X145390000Y-64660000D01*
%TD*%
M02*
