%TF.GenerationSoftware,KiCad,Pcbnew,9.0.4-1.fc42*%
%TF.CreationDate,2025-09-30T21:03:08+03:00*%
%TF.ProjectId,ea01,65613031-2e6b-4696-9361-645f70636258,rev?*%
%TF.SameCoordinates,Original*%
%TF.FileFunction,Paste,Top*%
%TF.FilePolarity,Positive*%
%FSLAX46Y46*%
G04 Gerber Fmt 4.6, Leading zero omitted, Abs format (unit mm)*
G04 Created by KiCad (PCBNEW 9.0.4-1.fc42) date 2025-09-30 21:03:08*
%MOMM*%
%LPD*%
G01*
G04 APERTURE LIST*
G04 Aperture macros list*
%AMRoundRect*
0 Rectangle with rounded corners*
0 $1 Rounding radius*
0 $2 $3 $4 $5 $6 $7 $8 $9 X,Y pos of 4 corners*
0 Add a 4 corners polygon primitive as box body*
4,1,4,$2,$3,$4,$5,$6,$7,$8,$9,$2,$3,0*
0 Add four circle primitives for the rounded corners*
1,1,$1+$1,$2,$3*
1,1,$1+$1,$4,$5*
1,1,$1+$1,$6,$7*
1,1,$1+$1,$8,$9*
0 Add four rect primitives between the rounded corners*
20,1,$1+$1,$2,$3,$4,$5,0*
20,1,$1+$1,$4,$5,$6,$7,0*
20,1,$1+$1,$6,$7,$8,$9,0*
20,1,$1+$1,$8,$9,$2,$3,0*%
G04 Aperture macros list end*
%ADD10RoundRect,0.225000X-0.225000X-0.250000X0.225000X-0.250000X0.225000X0.250000X-0.225000X0.250000X0*%
%ADD11RoundRect,0.250000X-0.250000X-0.475000X0.250000X-0.475000X0.250000X0.475000X-0.250000X0.475000X0*%
%ADD12RoundRect,0.200000X0.275000X-0.200000X0.275000X0.200000X-0.275000X0.200000X-0.275000X-0.200000X0*%
%ADD13RoundRect,0.200000X-0.275000X0.200000X-0.275000X-0.200000X0.275000X-0.200000X0.275000X0.200000X0*%
%ADD14RoundRect,0.200000X0.200000X0.275000X-0.200000X0.275000X-0.200000X-0.275000X0.200000X-0.275000X0*%
%ADD15RoundRect,0.250000X1.000000X0.650000X-1.000000X0.650000X-1.000000X-0.650000X1.000000X-0.650000X0*%
%ADD16RoundRect,0.150000X-0.825000X-0.150000X0.825000X-0.150000X0.825000X0.150000X-0.825000X0.150000X0*%
%ADD17RoundRect,0.250000X0.262500X0.450000X-0.262500X0.450000X-0.262500X-0.450000X0.262500X-0.450000X0*%
%ADD18RoundRect,0.250000X0.312500X0.625000X-0.312500X0.625000X-0.312500X-0.625000X0.312500X-0.625000X0*%
%ADD19RoundRect,0.250000X-0.450000X0.262500X-0.450000X-0.262500X0.450000X-0.262500X0.450000X0.262500X0*%
%ADD20RoundRect,0.250000X0.450000X-0.262500X0.450000X0.262500X-0.450000X0.262500X-0.450000X-0.262500X0*%
%ADD21RoundRect,0.250000X-0.475000X0.250000X-0.475000X-0.250000X0.475000X-0.250000X0.475000X0.250000X0*%
%ADD22RoundRect,0.225000X0.225000X0.250000X-0.225000X0.250000X-0.225000X-0.250000X0.225000X-0.250000X0*%
%ADD23RoundRect,0.250000X0.250000X0.475000X-0.250000X0.475000X-0.250000X-0.475000X0.250000X-0.475000X0*%
%ADD24RoundRect,0.150000X0.587500X0.150000X-0.587500X0.150000X-0.587500X-0.150000X0.587500X-0.150000X0*%
%ADD25RoundRect,0.250000X-0.262500X-0.450000X0.262500X-0.450000X0.262500X0.450000X-0.262500X0.450000X0*%
%ADD26RoundRect,0.200000X-0.200000X-0.275000X0.200000X-0.275000X0.200000X0.275000X-0.200000X0.275000X0*%
%ADD27RoundRect,0.250000X0.475000X-0.250000X0.475000X0.250000X-0.475000X0.250000X-0.475000X-0.250000X0*%
%ADD28RoundRect,0.100000X0.225000X0.100000X-0.225000X0.100000X-0.225000X-0.100000X0.225000X-0.100000X0*%
%ADD29RoundRect,0.250000X0.700000X0.950000X-0.700000X0.950000X-0.700000X-0.950000X0.700000X-0.950000X0*%
%ADD30RoundRect,0.150000X0.825000X0.150000X-0.825000X0.150000X-0.825000X-0.150000X0.825000X-0.150000X0*%
%ADD31RoundRect,0.100000X0.100000X-0.225000X0.100000X0.225000X-0.100000X0.225000X-0.100000X-0.225000X0*%
%ADD32RoundRect,0.249999X-1.250001X-2.500001X1.250001X-2.500001X1.250001X2.500001X-1.250001X2.500001X0*%
%ADD33RoundRect,0.225000X-0.250000X0.225000X-0.250000X-0.225000X0.250000X-0.225000X0.250000X0.225000X0*%
%ADD34RoundRect,0.250000X-0.650000X1.000000X-0.650000X-1.000000X0.650000X-1.000000X0.650000X1.000000X0*%
%ADD35RoundRect,0.249999X-0.395001X-0.395001X0.395001X-0.395001X0.395001X0.395001X-0.395001X0.395001X0*%
%ADD36RoundRect,0.050000X-0.387500X-0.050000X0.387500X-0.050000X0.387500X0.050000X-0.387500X0.050000X0*%
%ADD37RoundRect,0.050000X-0.050000X-0.387500X0.050000X-0.387500X0.050000X0.387500X-0.050000X0.387500X0*%
%ADD38RoundRect,0.150000X-0.587500X-0.150000X0.587500X-0.150000X0.587500X0.150000X-0.587500X0.150000X0*%
%ADD39RoundRect,0.225000X0.250000X-0.225000X0.250000X0.225000X-0.250000X0.225000X-0.250000X-0.225000X0*%
%ADD40RoundRect,0.375000X0.375000X-0.625000X0.375000X0.625000X-0.375000X0.625000X-0.375000X-0.625000X0*%
%ADD41RoundRect,0.500000X1.400000X-0.500000X1.400000X0.500000X-1.400000X0.500000X-1.400000X-0.500000X0*%
%ADD42RoundRect,0.162500X-0.650000X-0.162500X0.650000X-0.162500X0.650000X0.162500X-0.650000X0.162500X0*%
G04 APERTURE END LIST*
D10*
%TO.C,C1*%
X134475000Y-65750000D03*
X136025000Y-65750000D03*
%TD*%
D11*
%TO.C,C6*%
X128800000Y-84500000D03*
X130700000Y-84500000D03*
%TD*%
D12*
%TO.C,R27*%
X105837500Y-56200000D03*
X105837500Y-54550000D03*
%TD*%
D13*
%TO.C,R37*%
X94750000Y-51425000D03*
X94750000Y-53075000D03*
%TD*%
D14*
%TO.C,R16*%
X131825000Y-69250000D03*
X130175000Y-69250000D03*
%TD*%
D15*
%TO.C,D2*%
X113250000Y-89500000D03*
X109250000Y-89500000D03*
%TD*%
D16*
%TO.C,U4*%
X116500000Y-89095000D03*
X116500000Y-90365000D03*
X116500000Y-91635000D03*
X116500000Y-92905000D03*
X121450000Y-92905000D03*
X121450000Y-91635000D03*
X121450000Y-90365000D03*
X121450000Y-89095000D03*
%TD*%
D13*
%TO.C,R56*%
X138850000Y-70275000D03*
X138850000Y-71925000D03*
%TD*%
D17*
%TO.C,R48*%
X76325000Y-84500000D03*
X74500000Y-84500000D03*
%TD*%
D18*
%TO.C,R2*%
X127962500Y-87000000D03*
X125037500Y-87000000D03*
%TD*%
D10*
%TO.C,C12*%
X121725000Y-87000000D03*
X123275000Y-87000000D03*
%TD*%
D19*
%TO.C,R61*%
X101250000Y-82925000D03*
X101250000Y-84750000D03*
%TD*%
D20*
%TO.C,FB4*%
X105250000Y-84750000D03*
X105250000Y-82925000D03*
%TD*%
D21*
%TO.C,C3*%
X130000000Y-90050000D03*
X130000000Y-91950000D03*
%TD*%
D22*
%TO.C,C48*%
X123935201Y-59440795D03*
X122385201Y-59440795D03*
%TD*%
D11*
%TO.C,C42*%
X74450000Y-76200000D03*
X76350000Y-76200000D03*
%TD*%
D10*
%TO.C,C13*%
X121725000Y-85500000D03*
X123275000Y-85500000D03*
%TD*%
D13*
%TO.C,R31*%
X84750000Y-51425000D03*
X84750000Y-53075000D03*
%TD*%
D14*
%TO.C,R23*%
X111950000Y-58200000D03*
X110300000Y-58200000D03*
%TD*%
D23*
%TO.C,C8*%
X113950000Y-92500000D03*
X112050000Y-92500000D03*
%TD*%
D24*
%TO.C,Q6*%
X103975000Y-52800000D03*
X103975000Y-50900000D03*
X102100000Y-51850000D03*
%TD*%
D25*
%TO.C,R47*%
X74500000Y-90500000D03*
X76325000Y-90500000D03*
%TD*%
D24*
%TO.C,Q11*%
X98462500Y-67250000D03*
X98462500Y-65350000D03*
X96587500Y-66300000D03*
%TD*%
D26*
%TO.C,R80*%
X96200000Y-63550000D03*
X97850000Y-63550000D03*
%TD*%
D25*
%TO.C,R41*%
X74500000Y-80100000D03*
X76325000Y-80100000D03*
%TD*%
D14*
%TO.C,R12*%
X136685000Y-54300000D03*
X135035000Y-54300000D03*
%TD*%
%TO.C,R25*%
X112825000Y-54500000D03*
X111175000Y-54500000D03*
%TD*%
%TO.C,R78*%
X99650000Y-68900000D03*
X98000000Y-68900000D03*
%TD*%
%TO.C,R1*%
X136075000Y-67250000D03*
X134425000Y-67250000D03*
%TD*%
D19*
%TO.C,R63*%
X103250000Y-82925000D03*
X103250000Y-84750000D03*
%TD*%
D13*
%TO.C,R43*%
X88000000Y-75925000D03*
X88000000Y-77575000D03*
%TD*%
D27*
%TO.C,C7*%
X130000000Y-88450000D03*
X130000000Y-86550000D03*
%TD*%
D12*
%TO.C,R33*%
X105775000Y-52700000D03*
X105775000Y-51050000D03*
%TD*%
%TO.C,R34*%
X89750000Y-53075000D03*
X89750000Y-51425000D03*
%TD*%
D28*
%TO.C,U7*%
X152150000Y-60950000D03*
X152150000Y-60300000D03*
X152150000Y-59650000D03*
X150250000Y-59650000D03*
X150250000Y-60300000D03*
X150250000Y-60950000D03*
%TD*%
D26*
%TO.C,R71*%
X96250000Y-55750000D03*
X97900000Y-55750000D03*
%TD*%
D25*
%TO.C,R46*%
X74500000Y-88500000D03*
X76325000Y-88500000D03*
%TD*%
D18*
%TO.C,R3*%
X127962500Y-89250000D03*
X125037500Y-89250000D03*
%TD*%
D14*
%TO.C,R21*%
X111950000Y-59700000D03*
X110300000Y-59700000D03*
%TD*%
D19*
%TO.C,R64*%
X97250000Y-82925000D03*
X97250000Y-84750000D03*
%TD*%
D26*
%TO.C,R52*%
X154950000Y-81600000D03*
X156600000Y-81600000D03*
%TD*%
D29*
%TO.C,Y1*%
X131300000Y-72250000D03*
X127200000Y-72250000D03*
%TD*%
D26*
%TO.C,R11*%
X124425000Y-52000000D03*
X126075000Y-52000000D03*
%TD*%
D10*
%TO.C,C40*%
X124475000Y-50500000D03*
X126025000Y-50500000D03*
%TD*%
D17*
%TO.C,FB1*%
X152312500Y-53000000D03*
X150487500Y-53000000D03*
%TD*%
D14*
%TO.C,R13*%
X136685000Y-55770000D03*
X135035000Y-55770000D03*
%TD*%
D12*
%TO.C,R28*%
X79800000Y-53075000D03*
X79800000Y-51425000D03*
%TD*%
D17*
%TO.C,R42*%
X76312500Y-74200000D03*
X74487500Y-74200000D03*
%TD*%
D26*
%TO.C,R53*%
X119175000Y-59450000D03*
X120825000Y-59450000D03*
%TD*%
D18*
%TO.C,R4*%
X127962500Y-91500000D03*
X125037500Y-91500000D03*
%TD*%
D30*
%TO.C,U3*%
X113775000Y-70670000D03*
X113775000Y-69400000D03*
X113775000Y-68130000D03*
X113775000Y-66860000D03*
X113775000Y-65590000D03*
X113775000Y-64320000D03*
X113775000Y-63050000D03*
X108825000Y-63050000D03*
X108825000Y-64320000D03*
X108825000Y-65590000D03*
X108825000Y-66860000D03*
X108825000Y-68130000D03*
X108825000Y-69400000D03*
X108825000Y-70670000D03*
%TD*%
D12*
%TO.C,R70*%
X100075000Y-59325000D03*
X100075000Y-57675000D03*
%TD*%
D31*
%TO.C,U5*%
X137500000Y-60600000D03*
X138150000Y-60600000D03*
X138800000Y-60600000D03*
X138800000Y-58700000D03*
X137500000Y-58700000D03*
%TD*%
D13*
%TO.C,R22*%
X102900000Y-57975000D03*
X102900000Y-59625000D03*
%TD*%
D16*
%TO.C,U2*%
X141275000Y-66095000D03*
X141275000Y-67365000D03*
X141275000Y-68635000D03*
X141275000Y-69905000D03*
X146225000Y-69905000D03*
X146225000Y-68635000D03*
X146225000Y-67365000D03*
X146225000Y-66095000D03*
%TD*%
D10*
%TO.C,C15*%
X135925000Y-57300000D03*
X137475000Y-57300000D03*
%TD*%
D32*
%TO.C,L1*%
X109500000Y-81500000D03*
X119000000Y-81500000D03*
%TD*%
D22*
%TO.C,C50*%
X120775000Y-57950000D03*
X119225000Y-57950000D03*
%TD*%
D33*
%TO.C,C43*%
X105700000Y-65300000D03*
X105700000Y-66850000D03*
%TD*%
D14*
%TO.C,R17*%
X109575000Y-54500000D03*
X107925000Y-54500000D03*
%TD*%
D12*
%TO.C,R79*%
X100275000Y-67125000D03*
X100275000Y-65475000D03*
%TD*%
D30*
%TO.C,U8*%
X146225000Y-63905000D03*
X146225000Y-62635000D03*
X146225000Y-61365000D03*
X146225000Y-60095000D03*
X141275000Y-60095000D03*
X141275000Y-61365000D03*
X141275000Y-62635000D03*
X141275000Y-63905000D03*
%TD*%
D34*
%TO.C,D5*%
X133000000Y-88000000D03*
X133000000Y-92000000D03*
%TD*%
D20*
%TO.C,R62*%
X99250000Y-84750000D03*
X99250000Y-82925000D03*
%TD*%
D13*
%TO.C,R49*%
X89750000Y-75925000D03*
X89750000Y-77575000D03*
%TD*%
D11*
%TO.C,C46*%
X74462500Y-86500000D03*
X76362500Y-86500000D03*
%TD*%
D35*
%TO.C,U1*%
X128650000Y-60887500D03*
X128650000Y-62487500D03*
X130250000Y-60887500D03*
X130250000Y-62487500D03*
D36*
X126012500Y-59087500D03*
X126012500Y-59487500D03*
X126012500Y-59887500D03*
X126012500Y-60287500D03*
X126012500Y-60687500D03*
X126012500Y-61087500D03*
X126012500Y-61487500D03*
X126012500Y-61887500D03*
X126012500Y-62287500D03*
X126012500Y-62687500D03*
X126012500Y-63087500D03*
X126012500Y-63487500D03*
X126012500Y-63887500D03*
X126012500Y-64287500D03*
D37*
X126850000Y-65125000D03*
X127250000Y-65125000D03*
X127650000Y-65125000D03*
X128050000Y-65125000D03*
X128450000Y-65125000D03*
X128850000Y-65125000D03*
X129250000Y-65125000D03*
X129650000Y-65125000D03*
X130050000Y-65125000D03*
X130450000Y-65125000D03*
X130850000Y-65125000D03*
X131250000Y-65125000D03*
X131650000Y-65125000D03*
X132050000Y-65125000D03*
D36*
X132887500Y-64287500D03*
X132887500Y-63887500D03*
X132887500Y-63487500D03*
X132887500Y-63087500D03*
X132887500Y-62687500D03*
X132887500Y-62287500D03*
X132887500Y-61887500D03*
X132887500Y-61487500D03*
X132887500Y-61087500D03*
X132887500Y-60687500D03*
X132887500Y-60287500D03*
X132887500Y-59887500D03*
X132887500Y-59487500D03*
X132887500Y-59087500D03*
D37*
X132050000Y-58250000D03*
X131650000Y-58250000D03*
X131250000Y-58250000D03*
X130850000Y-58250000D03*
X130450000Y-58250000D03*
X130050000Y-58250000D03*
X129650000Y-58250000D03*
X129250000Y-58250000D03*
X128850000Y-58250000D03*
X128450000Y-58250000D03*
X128050000Y-58250000D03*
X127650000Y-58250000D03*
X127250000Y-58250000D03*
X126850000Y-58250000D03*
%TD*%
D10*
%TO.C,C51*%
X154975000Y-88500000D03*
X156525000Y-88500000D03*
%TD*%
D24*
%TO.C,Q4*%
X104025000Y-56325000D03*
X104025000Y-54425000D03*
X102150000Y-55375000D03*
%TD*%
D10*
%TO.C,C49*%
X155000000Y-80100000D03*
X156550000Y-80100000D03*
%TD*%
%TO.C,C41*%
X130225000Y-75250000D03*
X131775000Y-75250000D03*
%TD*%
D25*
%TO.C,R40*%
X74487500Y-78200000D03*
X76312500Y-78200000D03*
%TD*%
D38*
%TO.C,Q2*%
X104699001Y-57866071D03*
X104699001Y-59766071D03*
X106574001Y-58816071D03*
%TD*%
D39*
%TO.C,C55*%
X148500000Y-66025000D03*
X148500000Y-64475000D03*
%TD*%
D40*
%TO.C,U6*%
X139400000Y-83350000D03*
X141700000Y-83350000D03*
D41*
X141700000Y-77050000D03*
D40*
X144000000Y-83350000D03*
%TD*%
D42*
%TO.C,U11*%
X115162500Y-50595000D03*
X115162500Y-51865000D03*
X115162500Y-53135000D03*
X115162500Y-54405000D03*
X122337500Y-54405000D03*
X122337500Y-53135000D03*
X122337500Y-51865000D03*
X122337500Y-50595000D03*
%TD*%
D33*
%TO.C,C47*%
X105700000Y-62300000D03*
X105700000Y-63850000D03*
%TD*%
D14*
%TO.C,R69*%
X100150000Y-61000000D03*
X98500000Y-61000000D03*
%TD*%
D39*
%TO.C,C45*%
X106600000Y-70075000D03*
X106600000Y-68525000D03*
%TD*%
D17*
%TO.C,FB2*%
X152312500Y-55250000D03*
X150487500Y-55250000D03*
%TD*%
D12*
%TO.C,R50*%
X104200000Y-63900000D03*
X104200000Y-62250000D03*
%TD*%
D24*
%TO.C,Q9*%
X98325000Y-59400000D03*
X98325000Y-57500000D03*
X96450000Y-58450000D03*
%TD*%
D26*
%TO.C,R51*%
X122335201Y-57940795D03*
X123985201Y-57940795D03*
%TD*%
D12*
%TO.C,R44*%
X104200000Y-66900000D03*
X104200000Y-65250000D03*
%TD*%
D22*
%TO.C,C39*%
X128275000Y-75250000D03*
X126725000Y-75250000D03*
%TD*%
D13*
%TO.C,R9*%
X136000000Y-58925000D03*
X136000000Y-60575000D03*
%TD*%
D26*
%TO.C,R54*%
X154925000Y-90000000D03*
X156575000Y-90000000D03*
%TD*%
M02*
